M48
; DRILL file {KiCad (6.0.9)} date Tue Jan  3 12:12:55 2023
; FORMAT={-:-/ absolute / metric / decimal}
; #@! TF.CreationDate,2023-01-03T12:12:55-05:00
; #@! TF.GenerationSoftware,Kicad,Pcbnew,(6.0.9)
; #@! TF.FileFunction,Plated,1,2,PTH
FMAT,2
METRIC
; #@! TA.AperFunction,Plated,PTH,ComponentDrill
T1C0.800
; #@! TA.AperFunction,Plated,PTH,ComponentDrill
T2C1.000
%
G90
G05
T1
X82.532Y-53.332
X87.532Y-53.332
X87.652Y-77.462
X92.652Y-77.462
X97.782Y-46.982
X97.782Y-49.523
X97.782Y-52.062
X97.782Y-54.602
X97.782Y-57.142
X97.782Y-59.682
X97.782Y-62.222
X97.782Y-64.763
X100.904Y-74.549
X105.904Y-74.549
X110.483Y-46.982
X110.483Y-49.523
X110.483Y-52.062
X110.483Y-54.602
X110.483Y-57.142
X110.483Y-59.682
X110.483Y-62.222
X110.483Y-64.763
X121.902Y-69.843
X121.902Y-73.653
X132.062Y-69.843
X132.062Y-73.653
T2
X63.17Y-80.95
X65.71Y-80.95
X70.79Y-72.06
X73.33Y-72.06
X75.87Y-72.06
X76.817Y-34.917
X76.817Y-37.457
X76.817Y-83.177
X76.817Y-85.718
X79.358Y-34.917
X79.358Y-37.457
X79.358Y-83.177
X79.358Y-85.718
X81.897Y-34.917
X81.897Y-37.457
X81.897Y-83.177
X81.897Y-85.718
X82.517Y-41.927
X82.532Y-71.83
X84.438Y-34.917
X84.438Y-37.457
X84.438Y-83.177
X84.438Y-85.718
X85.057Y-41.927
X85.072Y-71.83
X86.977Y-34.917
X86.977Y-37.457
X86.977Y-83.177
X86.977Y-85.718
X87.597Y-41.927
X87.612Y-71.83
X89.517Y-34.917
X89.517Y-37.457
X89.517Y-83.177
X89.517Y-85.718
X92.057Y-34.917
X92.057Y-37.457
X92.057Y-83.177
X92.057Y-85.718
X92.405Y-51.74
X92.405Y-54.28
X92.405Y-56.82
X92.405Y-59.36
X94.597Y-34.917
X94.597Y-37.457
X94.597Y-83.177
X94.597Y-85.718
X97.137Y-34.917
X97.137Y-37.457
X97.137Y-83.177
X97.137Y-85.718
X99.677Y-34.917
X99.677Y-37.457
X99.677Y-83.177
X99.677Y-85.718
X102.218Y-34.917
X102.218Y-37.457
X102.218Y-83.177
X102.218Y-85.718
X104.757Y-34.917
X104.757Y-37.457
X104.757Y-83.177
X104.757Y-85.718
X107.297Y-34.917
X107.297Y-37.457
X107.297Y-83.177
X107.297Y-85.718
X109.837Y-34.917
X109.837Y-37.457
X109.837Y-83.177
X109.837Y-85.718
X112.377Y-34.917
X112.377Y-37.457
X112.377Y-83.177
X112.377Y-85.718
X114.917Y-34.917
X114.917Y-37.457
X114.917Y-83.177
X114.917Y-85.718
X117.457Y-34.917
X117.457Y-37.457
X117.457Y-83.177
X117.457Y-85.718
X119.997Y-34.917
X119.997Y-37.457
X119.997Y-83.177
X119.997Y-85.718
X121.902Y-64.515
X122.537Y-34.917
X122.537Y-37.457
X122.537Y-83.177
X122.537Y-85.718
X124.442Y-46.735
X124.442Y-64.515
X125.078Y-34.917
X125.078Y-37.457
X125.078Y-83.177
X125.078Y-85.718
X126.982Y-46.735
X126.982Y-64.515
X127.617Y-34.917
X127.617Y-37.457
X127.617Y-83.177
X127.617Y-85.718
X129.523Y-46.735
X129.523Y-64.515
X130.157Y-34.917
X130.157Y-37.457
X130.157Y-83.177
X130.157Y-85.718
X132.062Y-46.735
X132.062Y-64.515
X132.697Y-34.917
X132.697Y-37.457
X132.697Y-83.177
X132.697Y-85.718
X134.602Y-64.515
T0
M30
