%TF.GenerationSoftware,KiCad,Pcbnew,(6.0.9)*%
%TF.CreationDate,2023-01-03T09:52:10-05:00*%
%TF.ProjectId,cape,63617065-2e6b-4696-9361-645f70636258,1.4*%
%TF.SameCoordinates,Original*%
%TF.FileFunction,Soldermask,Top*%
%TF.FilePolarity,Negative*%
%FSLAX46Y46*%
G04 Gerber Fmt 4.6, Leading zero omitted, Abs format (unit mm)*
G04 Created by KiCad (PCBNEW (6.0.9)) date 2023-01-03 09:52:10*
%MOMM*%
%LPD*%
G01*
G04 APERTURE LIST*
%ADD10R,1.700000X1.700000*%
%ADD11O,1.700000X1.700000*%
%ADD12C,1.700000*%
%ADD13C,3.200000*%
%ADD14C,1.600000*%
%ADD15O,1.600000X1.600000*%
%ADD16R,1.600000X1.600000*%
G04 APERTURE END LIST*
D10*
%TO.C,U1*%
X121902500Y-64515000D03*
D11*
X124442500Y-64515000D03*
X126982500Y-64515000D03*
X129522500Y-64515000D03*
X132062500Y-64515000D03*
X134602500Y-64515000D03*
D12*
X124442500Y-46735000D03*
X126982500Y-46735000D03*
X129522500Y-46735000D03*
X132062500Y-46735000D03*
%TD*%
D10*
%TO.C,P2*%
X76817500Y-37457500D03*
D11*
X76817500Y-34917500D03*
X79357500Y-37457500D03*
X79357500Y-34917500D03*
X81897500Y-37457500D03*
X81897500Y-34917500D03*
X84437500Y-37457500D03*
X84437500Y-34917500D03*
X86977500Y-37457500D03*
X86977500Y-34917500D03*
X89517500Y-37457500D03*
X89517500Y-34917500D03*
X92057500Y-37457500D03*
X92057500Y-34917500D03*
X94597500Y-37457500D03*
X94597500Y-34917500D03*
X97137500Y-37457500D03*
X97137500Y-34917500D03*
X99677500Y-37457500D03*
X99677500Y-34917500D03*
X102217500Y-37457500D03*
X102217500Y-34917500D03*
X104757500Y-37457500D03*
X104757500Y-34917500D03*
X107297500Y-37457500D03*
X107297500Y-34917500D03*
X109837500Y-37457500D03*
X109837500Y-34917500D03*
X112377500Y-37457500D03*
X112377500Y-34917500D03*
X114917500Y-37457500D03*
X114917500Y-34917500D03*
X117457500Y-37457500D03*
X117457500Y-34917500D03*
X119997500Y-37457500D03*
X119997500Y-34917500D03*
X122537500Y-37457500D03*
X122537500Y-34917500D03*
X125077500Y-37457500D03*
X125077500Y-34917500D03*
X127617500Y-37457500D03*
X127617500Y-34917500D03*
X130157500Y-37457500D03*
X130157500Y-34917500D03*
X132697500Y-37457500D03*
X132697500Y-34917500D03*
%TD*%
D10*
%TO.C,P1*%
X76817500Y-85717500D03*
D11*
X76817500Y-83177500D03*
X79357500Y-85717500D03*
X79357500Y-83177500D03*
X81897500Y-85717500D03*
X81897500Y-83177500D03*
X84437500Y-85717500D03*
X84437500Y-83177500D03*
X86977500Y-85717500D03*
X86977500Y-83177500D03*
X89517500Y-85717500D03*
X89517500Y-83177500D03*
X92057500Y-85717500D03*
X92057500Y-83177500D03*
X94597500Y-85717500D03*
X94597500Y-83177500D03*
X97137500Y-85717500D03*
X97137500Y-83177500D03*
X99677500Y-85717500D03*
X99677500Y-83177500D03*
X102217500Y-85717500D03*
X102217500Y-83177500D03*
X104757500Y-85717500D03*
X104757500Y-83177500D03*
X107297500Y-85717500D03*
X107297500Y-83177500D03*
X109837500Y-85717500D03*
X109837500Y-83177500D03*
X112377500Y-85717500D03*
X112377500Y-83177500D03*
X114917500Y-85717500D03*
X114917500Y-83177500D03*
X117457500Y-85717500D03*
X117457500Y-83177500D03*
X119997500Y-85717500D03*
X119997500Y-83177500D03*
X122537500Y-85717500D03*
X122537500Y-83177500D03*
X125077500Y-85717500D03*
X125077500Y-83177500D03*
X127617500Y-85717500D03*
X127617500Y-83177500D03*
X130157500Y-85717500D03*
X130157500Y-83177500D03*
X132697500Y-85717500D03*
X132697500Y-83177500D03*
%TD*%
D13*
%TO.C,MH3*%
X137777500Y-39362500D03*
%TD*%
D14*
%TO.C,R1*%
X121902500Y-69842500D03*
D15*
X132062500Y-69842500D03*
%TD*%
D16*
%TO.C,U4*%
X97782500Y-46982500D03*
D15*
X97782500Y-49522500D03*
X97782500Y-52062500D03*
X97782500Y-54602500D03*
X97782500Y-57142500D03*
X97782500Y-59682500D03*
X97782500Y-62222500D03*
X97782500Y-64762500D03*
X110482500Y-64762500D03*
X110482500Y-62222500D03*
X110482500Y-59682500D03*
X110482500Y-57142500D03*
X110482500Y-54602500D03*
X110482500Y-52062500D03*
X110482500Y-49522500D03*
X110482500Y-46982500D03*
%TD*%
D14*
%TO.C,C2*%
X87652500Y-77462500D03*
X92652500Y-77462500D03*
%TD*%
D13*
%TO.C,MH4*%
X137777500Y-81272500D03*
%TD*%
%TO.C,MH1*%
X71737500Y-36187500D03*
%TD*%
D14*
%TO.C,C3*%
X100903600Y-74549200D03*
X105903600Y-74549200D03*
%TD*%
D10*
%TO.C,JP1*%
X70790000Y-72060000D03*
D11*
X73330000Y-72060000D03*
X75870000Y-72060000D03*
%TD*%
D14*
%TO.C,C1*%
X82532500Y-53332500D03*
X87532500Y-53332500D03*
%TD*%
D10*
%TO.C,U2*%
X82532500Y-71830000D03*
D11*
X85072500Y-71830000D03*
X87612500Y-71830000D03*
%TD*%
D10*
%TO.C,U3*%
X92405000Y-51740000D03*
D11*
X92405000Y-54280000D03*
X92405000Y-56820000D03*
X92405000Y-59360000D03*
%TD*%
D14*
%TO.C,R2*%
X121902500Y-73652500D03*
D15*
X132062500Y-73652500D03*
%TD*%
D13*
%TO.C,MH2*%
X71737500Y-84447500D03*
%TD*%
D10*
%TO.C,BT1*%
X65710000Y-80950000D03*
D11*
X63170000Y-80950000D03*
%TD*%
D10*
%TO.C,M1*%
X87597500Y-41927500D03*
D11*
X85057500Y-41927500D03*
X82517500Y-41927500D03*
%TD*%
M02*
