%TF.GenerationSoftware,KiCad,Pcbnew,(6.0.9)*%
%TF.CreationDate,2023-01-03T09:52:22-05:00*%
%TF.ProjectId,cape,63617065-2e6b-4696-9361-645f70636258,1.4*%
%TF.SameCoordinates,Original*%
%TF.FileFunction,Drillmap*%
%TF.FilePolarity,Positive*%
%FSLAX45Y45*%
G04 Gerber Fmt 4.5, Leading zero omitted, Abs format (unit mm)*
G04 Created by KiCad (PCBNEW (6.0.9)) date 2023-01-03 09:52:22*
%MOMM*%
%LPD*%
G01*
G04 APERTURE LIST*
%ADD10C,0.002540*%
%ADD11C,0.200000*%
%ADD12C,0.320000*%
G04 APERTURE END LIST*
D10*
X5713250Y-8127250D02*
G75*
G03*
X6348250Y-8762250I635000J0D01*
G01*
X14349250Y-7492250D02*
X14349250Y-4571250D01*
X6348250Y-8762250D02*
X13079250Y-8762250D01*
X7745250Y-6666750D02*
X5713250Y-6666750D01*
X6284750Y-3301250D02*
X6284750Y-4888750D01*
X5713250Y-6666750D02*
X5713250Y-8127250D01*
X13079250Y-3301250D02*
X6284750Y-3301250D01*
X13079250Y-8762250D02*
G75*
G03*
X14349250Y-7492250I0J1270000D01*
G01*
X14349250Y-4571250D02*
G75*
G03*
X13079250Y-3301250I-1270000J0D01*
G01*
X7745250Y-4888750D02*
X7745250Y-6666750D01*
X6284750Y-4888750D02*
X7745250Y-4888750D01*
D11*
D12*
X7013750Y-3458750D02*
X7333750Y-3778750D01*
X7333750Y-3458750D02*
X7013750Y-3778750D01*
X7013750Y-8284750D02*
X7333750Y-8604750D01*
X7333750Y-8284750D02*
X7013750Y-8604750D01*
X13617750Y-3776250D02*
X13937750Y-4096250D01*
X13937750Y-3776250D02*
X13617750Y-4096250D01*
X13617750Y-7967250D02*
X13937750Y-8287250D01*
X13937750Y-7967250D02*
X13617750Y-8287250D01*
D11*
X5970742Y-9072853D02*
X5970742Y-8872853D01*
X6018361Y-8872853D01*
X6046932Y-8882377D01*
X6065980Y-8901425D01*
X6075504Y-8920472D01*
X6085028Y-8958567D01*
X6085028Y-8987139D01*
X6075504Y-9025234D01*
X6065980Y-9044282D01*
X6046932Y-9063329D01*
X6018361Y-9072853D01*
X5970742Y-9072853D01*
X6170742Y-9072853D02*
X6170742Y-8939520D01*
X6170742Y-8977615D02*
X6180266Y-8958567D01*
X6189790Y-8949044D01*
X6208837Y-8939520D01*
X6227885Y-8939520D01*
X6294551Y-9072853D02*
X6294551Y-8939520D01*
X6294551Y-8872853D02*
X6285028Y-8882377D01*
X6294551Y-8891901D01*
X6304075Y-8882377D01*
X6294551Y-8872853D01*
X6294551Y-8891901D01*
X6418361Y-9072853D02*
X6399313Y-9063329D01*
X6389790Y-9044282D01*
X6389790Y-8872853D01*
X6523123Y-9072853D02*
X6504075Y-9063329D01*
X6494551Y-9044282D01*
X6494551Y-8872853D01*
X6751694Y-9072853D02*
X6751694Y-8872853D01*
X6818361Y-9015710D01*
X6885028Y-8872853D01*
X6885028Y-9072853D01*
X7065980Y-9072853D02*
X7065980Y-8968091D01*
X7056456Y-8949044D01*
X7037409Y-8939520D01*
X6999313Y-8939520D01*
X6980266Y-8949044D01*
X7065980Y-9063329D02*
X7046932Y-9072853D01*
X6999313Y-9072853D01*
X6980266Y-9063329D01*
X6970742Y-9044282D01*
X6970742Y-9025234D01*
X6980266Y-9006187D01*
X6999313Y-8996663D01*
X7046932Y-8996663D01*
X7065980Y-8987139D01*
X7161218Y-8939520D02*
X7161218Y-9139520D01*
X7161218Y-8949044D02*
X7180266Y-8939520D01*
X7218361Y-8939520D01*
X7237409Y-8949044D01*
X7246932Y-8958567D01*
X7256456Y-8977615D01*
X7256456Y-9034758D01*
X7246932Y-9053806D01*
X7237409Y-9063329D01*
X7218361Y-9072853D01*
X7180266Y-9072853D01*
X7161218Y-9063329D01*
X7342171Y-9053806D02*
X7351694Y-9063329D01*
X7342171Y-9072853D01*
X7332647Y-9063329D01*
X7342171Y-9053806D01*
X7342171Y-9072853D01*
X7342171Y-8949044D02*
X7351694Y-8958567D01*
X7342171Y-8968091D01*
X7332647Y-8958567D01*
X7342171Y-8949044D01*
X7342171Y-8968091D01*
X5513123Y-9302377D02*
X5713123Y-9502377D01*
X5713123Y-9302377D02*
X5513123Y-9502377D01*
X5951694Y-9292853D02*
X6075504Y-9292853D01*
X6008837Y-9369044D01*
X6037409Y-9369044D01*
X6056456Y-9378567D01*
X6065980Y-9388091D01*
X6075504Y-9407139D01*
X6075504Y-9454758D01*
X6065980Y-9473806D01*
X6056456Y-9483329D01*
X6037409Y-9492853D01*
X5980266Y-9492853D01*
X5961218Y-9483329D01*
X5951694Y-9473806D01*
X6161218Y-9473806D02*
X6170742Y-9483329D01*
X6161218Y-9492853D01*
X6151694Y-9483329D01*
X6161218Y-9473806D01*
X6161218Y-9492853D01*
X6246932Y-9311901D02*
X6256456Y-9302377D01*
X6275504Y-9292853D01*
X6323123Y-9292853D01*
X6342171Y-9302377D01*
X6351694Y-9311901D01*
X6361218Y-9330948D01*
X6361218Y-9349996D01*
X6351694Y-9378567D01*
X6237409Y-9492853D01*
X6361218Y-9492853D01*
X6485028Y-9292853D02*
X6504075Y-9292853D01*
X6523123Y-9302377D01*
X6532647Y-9311901D01*
X6542171Y-9330948D01*
X6551694Y-9369044D01*
X6551694Y-9416663D01*
X6542171Y-9454758D01*
X6532647Y-9473806D01*
X6523123Y-9483329D01*
X6504075Y-9492853D01*
X6485028Y-9492853D01*
X6465980Y-9483329D01*
X6456456Y-9473806D01*
X6446932Y-9454758D01*
X6437409Y-9416663D01*
X6437409Y-9369044D01*
X6446932Y-9330948D01*
X6456456Y-9311901D01*
X6465980Y-9302377D01*
X6485028Y-9292853D01*
X6675504Y-9292853D02*
X6694551Y-9292853D01*
X6713599Y-9302377D01*
X6723123Y-9311901D01*
X6732647Y-9330948D01*
X6742171Y-9369044D01*
X6742171Y-9416663D01*
X6732647Y-9454758D01*
X6723123Y-9473806D01*
X6713599Y-9483329D01*
X6694551Y-9492853D01*
X6675504Y-9492853D01*
X6656456Y-9483329D01*
X6646932Y-9473806D01*
X6637409Y-9454758D01*
X6627885Y-9416663D01*
X6627885Y-9369044D01*
X6637409Y-9330948D01*
X6646932Y-9311901D01*
X6656456Y-9302377D01*
X6675504Y-9292853D01*
X6827885Y-9492853D02*
X6827885Y-9359520D01*
X6827885Y-9378567D02*
X6837409Y-9369044D01*
X6856456Y-9359520D01*
X6885028Y-9359520D01*
X6904075Y-9369044D01*
X6913599Y-9388091D01*
X6913599Y-9492853D01*
X6913599Y-9388091D02*
X6923123Y-9369044D01*
X6942171Y-9359520D01*
X6970742Y-9359520D01*
X6989790Y-9369044D01*
X6999313Y-9388091D01*
X6999313Y-9492853D01*
X7094551Y-9492853D02*
X7094551Y-9359520D01*
X7094551Y-9378567D02*
X7104075Y-9369044D01*
X7123123Y-9359520D01*
X7151694Y-9359520D01*
X7170742Y-9369044D01*
X7180266Y-9388091D01*
X7180266Y-9492853D01*
X7180266Y-9388091D02*
X7189790Y-9369044D01*
X7208837Y-9359520D01*
X7237409Y-9359520D01*
X7256456Y-9369044D01*
X7265980Y-9388091D01*
X7265980Y-9492853D01*
X7656456Y-9283329D02*
X7485028Y-9540472D01*
X7913599Y-9292853D02*
X7932647Y-9292853D01*
X7951694Y-9302377D01*
X7961218Y-9311901D01*
X7970742Y-9330948D01*
X7980266Y-9369044D01*
X7980266Y-9416663D01*
X7970742Y-9454758D01*
X7961218Y-9473806D01*
X7951694Y-9483329D01*
X7932647Y-9492853D01*
X7913599Y-9492853D01*
X7894551Y-9483329D01*
X7885028Y-9473806D01*
X7875504Y-9454758D01*
X7865980Y-9416663D01*
X7865980Y-9369044D01*
X7875504Y-9330948D01*
X7885028Y-9311901D01*
X7894551Y-9302377D01*
X7913599Y-9292853D01*
X8065980Y-9473806D02*
X8075504Y-9483329D01*
X8065980Y-9492853D01*
X8056456Y-9483329D01*
X8065980Y-9473806D01*
X8065980Y-9492853D01*
X8265980Y-9492853D02*
X8151694Y-9492853D01*
X8208837Y-9492853D02*
X8208837Y-9292853D01*
X8189790Y-9321425D01*
X8170742Y-9340472D01*
X8151694Y-9349996D01*
X8342171Y-9311901D02*
X8351694Y-9302377D01*
X8370742Y-9292853D01*
X8418361Y-9292853D01*
X8437409Y-9302377D01*
X8446933Y-9311901D01*
X8456456Y-9330948D01*
X8456456Y-9349996D01*
X8446933Y-9378567D01*
X8332647Y-9492853D01*
X8456456Y-9492853D01*
X8627885Y-9292853D02*
X8589790Y-9292853D01*
X8570742Y-9302377D01*
X8561218Y-9311901D01*
X8542171Y-9340472D01*
X8532647Y-9378567D01*
X8532647Y-9454758D01*
X8542171Y-9473806D01*
X8551694Y-9483329D01*
X8570742Y-9492853D01*
X8608837Y-9492853D01*
X8627885Y-9483329D01*
X8637409Y-9473806D01*
X8646933Y-9454758D01*
X8646933Y-9407139D01*
X8637409Y-9388091D01*
X8627885Y-9378567D01*
X8608837Y-9369044D01*
X8570742Y-9369044D01*
X8551694Y-9378567D01*
X8542171Y-9388091D01*
X8532647Y-9407139D01*
X8770742Y-9292853D02*
X8789790Y-9292853D01*
X8808837Y-9302377D01*
X8818361Y-9311901D01*
X8827885Y-9330948D01*
X8837409Y-9369044D01*
X8837409Y-9416663D01*
X8827885Y-9454758D01*
X8818361Y-9473806D01*
X8808837Y-9483329D01*
X8789790Y-9492853D01*
X8770742Y-9492853D01*
X8751694Y-9483329D01*
X8742171Y-9473806D01*
X8732647Y-9454758D01*
X8723123Y-9416663D01*
X8723123Y-9369044D01*
X8732647Y-9330948D01*
X8742171Y-9311901D01*
X8751694Y-9302377D01*
X8770742Y-9292853D01*
X8913599Y-9292853D02*
X8913599Y-9330948D01*
X8989790Y-9292853D02*
X8989790Y-9330948D01*
X9285028Y-9569044D02*
X9275504Y-9559520D01*
X9256456Y-9530948D01*
X9246933Y-9511901D01*
X9237409Y-9483329D01*
X9227885Y-9435710D01*
X9227885Y-9397615D01*
X9237409Y-9349996D01*
X9246933Y-9321425D01*
X9256456Y-9302377D01*
X9275504Y-9273806D01*
X9285028Y-9264282D01*
X9446933Y-9359520D02*
X9446933Y-9492853D01*
X9399313Y-9283329D02*
X9351694Y-9426187D01*
X9475504Y-9426187D01*
X9704075Y-9492853D02*
X9704075Y-9292853D01*
X9789790Y-9492853D02*
X9789790Y-9388091D01*
X9780266Y-9369044D01*
X9761218Y-9359520D01*
X9732647Y-9359520D01*
X9713599Y-9369044D01*
X9704075Y-9378567D01*
X9913599Y-9492853D02*
X9894552Y-9483329D01*
X9885028Y-9473806D01*
X9875504Y-9454758D01*
X9875504Y-9397615D01*
X9885028Y-9378567D01*
X9894552Y-9369044D01*
X9913599Y-9359520D01*
X9942171Y-9359520D01*
X9961218Y-9369044D01*
X9970742Y-9378567D01*
X9980266Y-9397615D01*
X9980266Y-9454758D01*
X9970742Y-9473806D01*
X9961218Y-9483329D01*
X9942171Y-9492853D01*
X9913599Y-9492853D01*
X10094552Y-9492853D02*
X10075504Y-9483329D01*
X10065980Y-9464282D01*
X10065980Y-9292853D01*
X10246933Y-9483329D02*
X10227885Y-9492853D01*
X10189790Y-9492853D01*
X10170742Y-9483329D01*
X10161218Y-9464282D01*
X10161218Y-9388091D01*
X10170742Y-9369044D01*
X10189790Y-9359520D01*
X10227885Y-9359520D01*
X10246933Y-9369044D01*
X10256456Y-9388091D01*
X10256456Y-9407139D01*
X10161218Y-9426187D01*
X10332647Y-9483329D02*
X10351694Y-9492853D01*
X10389790Y-9492853D01*
X10408837Y-9483329D01*
X10418361Y-9464282D01*
X10418361Y-9454758D01*
X10408837Y-9435710D01*
X10389790Y-9426187D01*
X10361218Y-9426187D01*
X10342171Y-9416663D01*
X10332647Y-9397615D01*
X10332647Y-9388091D01*
X10342171Y-9369044D01*
X10361218Y-9359520D01*
X10389790Y-9359520D01*
X10408837Y-9369044D01*
X10485028Y-9569044D02*
X10494552Y-9559520D01*
X10513599Y-9530948D01*
X10523123Y-9511901D01*
X10532647Y-9483329D01*
X10542171Y-9435710D01*
X10542171Y-9397615D01*
X10532647Y-9349996D01*
X10523123Y-9321425D01*
X10513599Y-9302377D01*
X10494552Y-9273806D01*
X10485028Y-9264282D01*
X10846933Y-9569044D02*
X10837409Y-9559520D01*
X10818361Y-9530948D01*
X10808837Y-9511901D01*
X10799313Y-9483329D01*
X10789790Y-9435710D01*
X10789790Y-9397615D01*
X10799313Y-9349996D01*
X10808837Y-9321425D01*
X10818361Y-9302377D01*
X10837409Y-9273806D01*
X10846933Y-9264282D01*
X10923123Y-9359520D02*
X10923123Y-9492853D01*
X10923123Y-9378567D02*
X10932647Y-9369044D01*
X10951694Y-9359520D01*
X10980266Y-9359520D01*
X10999313Y-9369044D01*
X11008837Y-9388091D01*
X11008837Y-9492853D01*
X11132647Y-9492853D02*
X11113599Y-9483329D01*
X11104075Y-9473806D01*
X11094552Y-9454758D01*
X11094552Y-9397615D01*
X11104075Y-9378567D01*
X11113599Y-9369044D01*
X11132647Y-9359520D01*
X11161218Y-9359520D01*
X11180266Y-9369044D01*
X11189790Y-9378567D01*
X11199313Y-9397615D01*
X11199313Y-9454758D01*
X11189790Y-9473806D01*
X11180266Y-9483329D01*
X11161218Y-9492853D01*
X11132647Y-9492853D01*
X11256456Y-9359520D02*
X11332647Y-9359520D01*
X11285028Y-9292853D02*
X11285028Y-9464282D01*
X11294551Y-9483329D01*
X11313599Y-9492853D01*
X11332647Y-9492853D01*
X11551694Y-9359520D02*
X11551694Y-9559520D01*
X11551694Y-9369044D02*
X11570742Y-9359520D01*
X11608837Y-9359520D01*
X11627885Y-9369044D01*
X11637409Y-9378567D01*
X11646932Y-9397615D01*
X11646932Y-9454758D01*
X11637409Y-9473806D01*
X11627885Y-9483329D01*
X11608837Y-9492853D01*
X11570742Y-9492853D01*
X11551694Y-9483329D01*
X11761218Y-9492853D02*
X11742171Y-9483329D01*
X11732647Y-9464282D01*
X11732647Y-9292853D01*
X11923123Y-9492853D02*
X11923123Y-9388091D01*
X11913599Y-9369044D01*
X11894551Y-9359520D01*
X11856456Y-9359520D01*
X11837409Y-9369044D01*
X11923123Y-9483329D02*
X11904075Y-9492853D01*
X11856456Y-9492853D01*
X11837409Y-9483329D01*
X11827885Y-9464282D01*
X11827885Y-9445234D01*
X11837409Y-9426187D01*
X11856456Y-9416663D01*
X11904075Y-9416663D01*
X11923123Y-9407139D01*
X11989790Y-9359520D02*
X12065980Y-9359520D01*
X12018361Y-9292853D02*
X12018361Y-9464282D01*
X12027885Y-9483329D01*
X12046932Y-9492853D01*
X12065980Y-9492853D01*
X12208837Y-9483329D02*
X12189790Y-9492853D01*
X12151694Y-9492853D01*
X12132647Y-9483329D01*
X12123123Y-9464282D01*
X12123123Y-9388091D01*
X12132647Y-9369044D01*
X12151694Y-9359520D01*
X12189790Y-9359520D01*
X12208837Y-9369044D01*
X12218361Y-9388091D01*
X12218361Y-9407139D01*
X12123123Y-9426187D01*
X12389790Y-9492853D02*
X12389790Y-9292853D01*
X12389790Y-9483329D02*
X12370742Y-9492853D01*
X12332647Y-9492853D01*
X12313599Y-9483329D01*
X12304075Y-9473806D01*
X12294551Y-9454758D01*
X12294551Y-9397615D01*
X12304075Y-9378567D01*
X12313599Y-9369044D01*
X12332647Y-9359520D01*
X12370742Y-9359520D01*
X12389790Y-9369044D01*
X12465980Y-9569044D02*
X12475504Y-9559520D01*
X12494551Y-9530948D01*
X12504075Y-9511901D01*
X12513599Y-9483329D01*
X12523123Y-9435710D01*
X12523123Y-9397615D01*
X12513599Y-9349996D01*
X12504075Y-9321425D01*
X12494551Y-9302377D01*
X12475504Y-9273806D01*
X12465980Y-9264282D01*
M02*
