%TF.GenerationSoftware,KiCad,Pcbnew,(6.0.9)*%
%TF.CreationDate,2023-01-03T12:12:29-05:00*%
%TF.ProjectId,cape,63617065-2e6b-4696-9361-645f70636258,1.4*%
%TF.SameCoordinates,Original*%
%TF.FileFunction,Copper,L2,Bot*%
%TF.FilePolarity,Positive*%
%FSLAX46Y46*%
G04 Gerber Fmt 4.6, Leading zero omitted, Abs format (unit mm)*
G04 Created by KiCad (PCBNEW (6.0.9)) date 2023-01-03 12:12:29*
%MOMM*%
%LPD*%
G01*
G04 APERTURE LIST*
%TA.AperFunction,ComponentPad*%
%ADD10R,1.700000X1.700000*%
%TD*%
%TA.AperFunction,ComponentPad*%
%ADD11O,1.700000X1.700000*%
%TD*%
%TA.AperFunction,ComponentPad*%
%ADD12C,1.700000*%
%TD*%
%TA.AperFunction,ComponentPad*%
%ADD13C,1.600000*%
%TD*%
%TA.AperFunction,ComponentPad*%
%ADD14O,1.600000X1.600000*%
%TD*%
%TA.AperFunction,ComponentPad*%
%ADD15R,1.600000X1.600000*%
%TD*%
%TA.AperFunction,Conductor*%
%ADD16C,0.250000*%
%TD*%
G04 APERTURE END LIST*
D10*
X121902500Y-64515000D03*
D11*
X124442500Y-64515000D03*
X126982500Y-64515000D03*
X129522500Y-64515000D03*
X132062500Y-64515000D03*
X134602500Y-64515000D03*
D12*
X124442500Y-46735000D03*
X126982500Y-46735000D03*
X129522500Y-46735000D03*
X132062500Y-46735000D03*
D10*
X76817500Y-37457500D03*
D11*
X76817500Y-34917500D03*
X79357500Y-37457500D03*
X79357500Y-34917500D03*
X81897500Y-37457500D03*
X81897500Y-34917500D03*
X84437500Y-37457500D03*
X84437500Y-34917500D03*
X86977500Y-37457500D03*
X86977500Y-34917500D03*
X89517500Y-37457500D03*
X89517500Y-34917500D03*
X92057500Y-37457500D03*
X92057500Y-34917500D03*
X94597500Y-37457500D03*
X94597500Y-34917500D03*
X97137500Y-37457500D03*
X97137500Y-34917500D03*
X99677500Y-37457500D03*
X99677500Y-34917500D03*
X102217500Y-37457500D03*
X102217500Y-34917500D03*
X104757500Y-37457500D03*
X104757500Y-34917500D03*
X107297500Y-37457500D03*
X107297500Y-34917500D03*
X109837500Y-37457500D03*
X109837500Y-34917500D03*
X112377500Y-37457500D03*
X112377500Y-34917500D03*
X114917500Y-37457500D03*
X114917500Y-34917500D03*
X117457500Y-37457500D03*
X117457500Y-34917500D03*
X119997500Y-37457500D03*
X119997500Y-34917500D03*
X122537500Y-37457500D03*
X122537500Y-34917500D03*
X125077500Y-37457500D03*
X125077500Y-34917500D03*
X127617500Y-37457500D03*
X127617500Y-34917500D03*
X130157500Y-37457500D03*
X130157500Y-34917500D03*
X132697500Y-37457500D03*
X132697500Y-34917500D03*
D10*
X76817500Y-85717500D03*
D11*
X76817500Y-83177500D03*
X79357500Y-85717500D03*
X79357500Y-83177500D03*
X81897500Y-85717500D03*
X81897500Y-83177500D03*
X84437500Y-85717500D03*
X84437500Y-83177500D03*
X86977500Y-85717500D03*
X86977500Y-83177500D03*
X89517500Y-85717500D03*
X89517500Y-83177500D03*
X92057500Y-85717500D03*
X92057500Y-83177500D03*
X94597500Y-85717500D03*
X94597500Y-83177500D03*
X97137500Y-85717500D03*
X97137500Y-83177500D03*
X99677500Y-85717500D03*
X99677500Y-83177500D03*
X102217500Y-85717500D03*
X102217500Y-83177500D03*
X104757500Y-85717500D03*
X104757500Y-83177500D03*
X107297500Y-85717500D03*
X107297500Y-83177500D03*
X109837500Y-85717500D03*
X109837500Y-83177500D03*
X112377500Y-85717500D03*
X112377500Y-83177500D03*
X114917500Y-85717500D03*
X114917500Y-83177500D03*
X117457500Y-85717500D03*
X117457500Y-83177500D03*
X119997500Y-85717500D03*
X119997500Y-83177500D03*
X122537500Y-85717500D03*
X122537500Y-83177500D03*
X125077500Y-85717500D03*
X125077500Y-83177500D03*
X127617500Y-85717500D03*
X127617500Y-83177500D03*
X130157500Y-85717500D03*
X130157500Y-83177500D03*
X132697500Y-85717500D03*
X132697500Y-83177500D03*
D13*
X121902500Y-69842500D03*
D14*
X132062500Y-69842500D03*
D15*
X97782500Y-46982500D03*
D14*
X97782500Y-49522500D03*
X97782500Y-52062500D03*
X97782500Y-54602500D03*
X97782500Y-57142500D03*
X97782500Y-59682500D03*
X97782500Y-62222500D03*
X97782500Y-64762500D03*
X110482500Y-64762500D03*
X110482500Y-62222500D03*
X110482500Y-59682500D03*
X110482500Y-57142500D03*
X110482500Y-54602500D03*
X110482500Y-52062500D03*
X110482500Y-49522500D03*
X110482500Y-46982500D03*
D13*
X87652500Y-77462500D03*
X92652500Y-77462500D03*
X100903600Y-74549200D03*
X105903600Y-74549200D03*
D10*
X70790000Y-72060000D03*
D11*
X73330000Y-72060000D03*
X75870000Y-72060000D03*
D13*
X82532500Y-53332500D03*
X87532500Y-53332500D03*
D10*
X82532500Y-71830000D03*
D11*
X85072500Y-71830000D03*
X87612500Y-71830000D03*
D10*
X92405000Y-51740000D03*
D11*
X92405000Y-54280000D03*
X92405000Y-56820000D03*
X92405000Y-59360000D03*
D13*
X121902500Y-73652500D03*
D14*
X132062500Y-73652500D03*
D10*
X65710000Y-80950000D03*
D11*
X63170000Y-80950000D03*
D10*
X87597500Y-41927500D03*
D11*
X85057500Y-41927500D03*
X82517500Y-41927500D03*
D16*
X87612500Y-71830000D02*
X87612500Y-77462500D01*
%TA.AperFunction,Conductor*%
G36*
X76112203Y-33541002D02*
G01*
X76158696Y-33594658D01*
X76168800Y-33664932D01*
X76139306Y-33729512D01*
X76102263Y-33758763D01*
X76095958Y-33762045D01*
X76087238Y-33767536D01*
X75916933Y-33895405D01*
X75909226Y-33902248D01*
X75762090Y-34056217D01*
X75755604Y-34064227D01*
X75635598Y-34240149D01*
X75630500Y-34249123D01*
X75540838Y-34442283D01*
X75537275Y-34451970D01*
X75481889Y-34651683D01*
X75483412Y-34660107D01*
X75495792Y-34663500D01*
X76945500Y-34663500D01*
X77013621Y-34683502D01*
X77060114Y-34737158D01*
X77071500Y-34789500D01*
X77071500Y-38797384D01*
X77075975Y-38812623D01*
X77077365Y-38813828D01*
X77085048Y-38815499D01*
X77712169Y-38815499D01*
X77718990Y-38815129D01*
X77769852Y-38809605D01*
X77785104Y-38805979D01*
X77905554Y-38760824D01*
X77921149Y-38752286D01*
X78023224Y-38675785D01*
X78035785Y-38663224D01*
X78112286Y-38561149D01*
X78120824Y-38545554D01*
X78161725Y-38436452D01*
X78204367Y-38379688D01*
X78270928Y-38354988D01*
X78340277Y-38370196D01*
X78374944Y-38398184D01*
X78400365Y-38427531D01*
X78400369Y-38427535D01*
X78403750Y-38431438D01*
X78575626Y-38574132D01*
X78768500Y-38686838D01*
X78977192Y-38766530D01*
X78982260Y-38767561D01*
X78982263Y-38767562D01*
X79077362Y-38786910D01*
X79196097Y-38811067D01*
X79201272Y-38811257D01*
X79201274Y-38811257D01*
X79414173Y-38819064D01*
X79414177Y-38819064D01*
X79419337Y-38819253D01*
X79424457Y-38818597D01*
X79424459Y-38818597D01*
X79635788Y-38791525D01*
X79635789Y-38791525D01*
X79640916Y-38790868D01*
X79645866Y-38789383D01*
X79849929Y-38728161D01*
X79849934Y-38728159D01*
X79854884Y-38726674D01*
X80055494Y-38628396D01*
X80237360Y-38498673D01*
X80395596Y-38340989D01*
X80428063Y-38295807D01*
X80525953Y-38159577D01*
X80527276Y-38160528D01*
X80574145Y-38117357D01*
X80644080Y-38105125D01*
X80709526Y-38132644D01*
X80737375Y-38164494D01*
X80797487Y-38262588D01*
X80943750Y-38431438D01*
X81115626Y-38574132D01*
X81308500Y-38686838D01*
X81517192Y-38766530D01*
X81522260Y-38767561D01*
X81522263Y-38767562D01*
X81617362Y-38786910D01*
X81736097Y-38811067D01*
X81741272Y-38811257D01*
X81741274Y-38811257D01*
X81954173Y-38819064D01*
X81954177Y-38819064D01*
X81959337Y-38819253D01*
X81964457Y-38818597D01*
X81964459Y-38818597D01*
X82175788Y-38791525D01*
X82175789Y-38791525D01*
X82180916Y-38790868D01*
X82185866Y-38789383D01*
X82389929Y-38728161D01*
X82389934Y-38728159D01*
X82394884Y-38726674D01*
X82595494Y-38628396D01*
X82777360Y-38498673D01*
X82935596Y-38340989D01*
X82968063Y-38295807D01*
X83065953Y-38159577D01*
X83067276Y-38160528D01*
X83114145Y-38117357D01*
X83184080Y-38105125D01*
X83249526Y-38132644D01*
X83277375Y-38164494D01*
X83337487Y-38262588D01*
X83483750Y-38431438D01*
X83655626Y-38574132D01*
X83848500Y-38686838D01*
X84057192Y-38766530D01*
X84062260Y-38767561D01*
X84062263Y-38767562D01*
X84157362Y-38786910D01*
X84276097Y-38811067D01*
X84281272Y-38811257D01*
X84281274Y-38811257D01*
X84494173Y-38819064D01*
X84494177Y-38819064D01*
X84499337Y-38819253D01*
X84504457Y-38818597D01*
X84504459Y-38818597D01*
X84715788Y-38791525D01*
X84715789Y-38791525D01*
X84720916Y-38790868D01*
X84725866Y-38789383D01*
X84929929Y-38728161D01*
X84929934Y-38728159D01*
X84934884Y-38726674D01*
X85135494Y-38628396D01*
X85317360Y-38498673D01*
X85475596Y-38340989D01*
X85508063Y-38295807D01*
X85605953Y-38159577D01*
X85607276Y-38160528D01*
X85654145Y-38117357D01*
X85724080Y-38105125D01*
X85789526Y-38132644D01*
X85817375Y-38164494D01*
X85877487Y-38262588D01*
X86023750Y-38431438D01*
X86195626Y-38574132D01*
X86388500Y-38686838D01*
X86597192Y-38766530D01*
X86602260Y-38767561D01*
X86602263Y-38767562D01*
X86697362Y-38786910D01*
X86816097Y-38811067D01*
X86821272Y-38811257D01*
X86821274Y-38811257D01*
X87034173Y-38819064D01*
X87034177Y-38819064D01*
X87039337Y-38819253D01*
X87044457Y-38818597D01*
X87044459Y-38818597D01*
X87255788Y-38791525D01*
X87255789Y-38791525D01*
X87260916Y-38790868D01*
X87265866Y-38789383D01*
X87469929Y-38728161D01*
X87469934Y-38728159D01*
X87474884Y-38726674D01*
X87675494Y-38628396D01*
X87857360Y-38498673D01*
X88015596Y-38340989D01*
X88048063Y-38295807D01*
X88145953Y-38159577D01*
X88147276Y-38160528D01*
X88194145Y-38117357D01*
X88264080Y-38105125D01*
X88329526Y-38132644D01*
X88357375Y-38164494D01*
X88417487Y-38262588D01*
X88563750Y-38431438D01*
X88735626Y-38574132D01*
X88928500Y-38686838D01*
X89137192Y-38766530D01*
X89142260Y-38767561D01*
X89142263Y-38767562D01*
X89237362Y-38786910D01*
X89356097Y-38811067D01*
X89361272Y-38811257D01*
X89361274Y-38811257D01*
X89574173Y-38819064D01*
X89574177Y-38819064D01*
X89579337Y-38819253D01*
X89584457Y-38818597D01*
X89584459Y-38818597D01*
X89795788Y-38791525D01*
X89795789Y-38791525D01*
X89800916Y-38790868D01*
X89805866Y-38789383D01*
X90009929Y-38728161D01*
X90009934Y-38728159D01*
X90014884Y-38726674D01*
X90215494Y-38628396D01*
X90397360Y-38498673D01*
X90555596Y-38340989D01*
X90588063Y-38295807D01*
X90685953Y-38159577D01*
X90687276Y-38160528D01*
X90734145Y-38117357D01*
X90804080Y-38105125D01*
X90869526Y-38132644D01*
X90897375Y-38164494D01*
X90957487Y-38262588D01*
X91103750Y-38431438D01*
X91275626Y-38574132D01*
X91468500Y-38686838D01*
X91677192Y-38766530D01*
X91682260Y-38767561D01*
X91682263Y-38767562D01*
X91777362Y-38786910D01*
X91896097Y-38811067D01*
X91901272Y-38811257D01*
X91901274Y-38811257D01*
X92114173Y-38819064D01*
X92114177Y-38819064D01*
X92119337Y-38819253D01*
X92124457Y-38818597D01*
X92124459Y-38818597D01*
X92335788Y-38791525D01*
X92335789Y-38791525D01*
X92340916Y-38790868D01*
X92345866Y-38789383D01*
X92549929Y-38728161D01*
X92549934Y-38728159D01*
X92554884Y-38726674D01*
X92755494Y-38628396D01*
X92937360Y-38498673D01*
X93095596Y-38340989D01*
X93128063Y-38295807D01*
X93225953Y-38159577D01*
X93227276Y-38160528D01*
X93274145Y-38117357D01*
X93344080Y-38105125D01*
X93409526Y-38132644D01*
X93437375Y-38164494D01*
X93497487Y-38262588D01*
X93643750Y-38431438D01*
X93815626Y-38574132D01*
X94008500Y-38686838D01*
X94217192Y-38766530D01*
X94222260Y-38767561D01*
X94222263Y-38767562D01*
X94317362Y-38786910D01*
X94436097Y-38811067D01*
X94441272Y-38811257D01*
X94441274Y-38811257D01*
X94654173Y-38819064D01*
X94654177Y-38819064D01*
X94659337Y-38819253D01*
X94664457Y-38818597D01*
X94664459Y-38818597D01*
X94875788Y-38791525D01*
X94875789Y-38791525D01*
X94880916Y-38790868D01*
X94885866Y-38789383D01*
X95089929Y-38728161D01*
X95089934Y-38728159D01*
X95094884Y-38726674D01*
X95295494Y-38628396D01*
X95477360Y-38498673D01*
X95635596Y-38340989D01*
X95668063Y-38295807D01*
X95765953Y-38159577D01*
X95767276Y-38160528D01*
X95814145Y-38117357D01*
X95884080Y-38105125D01*
X95949526Y-38132644D01*
X95977375Y-38164494D01*
X96037487Y-38262588D01*
X96183750Y-38431438D01*
X96355626Y-38574132D01*
X96548500Y-38686838D01*
X96757192Y-38766530D01*
X96762260Y-38767561D01*
X96762263Y-38767562D01*
X96857362Y-38786910D01*
X96976097Y-38811067D01*
X96981272Y-38811257D01*
X96981274Y-38811257D01*
X97194173Y-38819064D01*
X97194177Y-38819064D01*
X97199337Y-38819253D01*
X97204457Y-38818597D01*
X97204459Y-38818597D01*
X97415788Y-38791525D01*
X97415789Y-38791525D01*
X97420916Y-38790868D01*
X97425866Y-38789383D01*
X97629929Y-38728161D01*
X97629934Y-38728159D01*
X97634884Y-38726674D01*
X97835494Y-38628396D01*
X98017360Y-38498673D01*
X98175596Y-38340989D01*
X98208063Y-38295807D01*
X98305953Y-38159577D01*
X98307276Y-38160528D01*
X98354145Y-38117357D01*
X98424080Y-38105125D01*
X98489526Y-38132644D01*
X98517375Y-38164494D01*
X98577487Y-38262588D01*
X98723750Y-38431438D01*
X98895626Y-38574132D01*
X99088500Y-38686838D01*
X99297192Y-38766530D01*
X99302260Y-38767561D01*
X99302263Y-38767562D01*
X99397362Y-38786910D01*
X99516097Y-38811067D01*
X99521272Y-38811257D01*
X99521274Y-38811257D01*
X99734173Y-38819064D01*
X99734177Y-38819064D01*
X99739337Y-38819253D01*
X99744457Y-38818597D01*
X99744459Y-38818597D01*
X99955788Y-38791525D01*
X99955789Y-38791525D01*
X99960916Y-38790868D01*
X99965866Y-38789383D01*
X100169929Y-38728161D01*
X100169934Y-38728159D01*
X100174884Y-38726674D01*
X100375494Y-38628396D01*
X100557360Y-38498673D01*
X100715596Y-38340989D01*
X100748063Y-38295807D01*
X100845953Y-38159577D01*
X100847276Y-38160528D01*
X100894145Y-38117357D01*
X100964080Y-38105125D01*
X101029526Y-38132644D01*
X101057375Y-38164494D01*
X101117487Y-38262588D01*
X101263750Y-38431438D01*
X101435626Y-38574132D01*
X101628500Y-38686838D01*
X101837192Y-38766530D01*
X101842260Y-38767561D01*
X101842263Y-38767562D01*
X101937362Y-38786910D01*
X102056097Y-38811067D01*
X102061272Y-38811257D01*
X102061274Y-38811257D01*
X102274173Y-38819064D01*
X102274177Y-38819064D01*
X102279337Y-38819253D01*
X102284457Y-38818597D01*
X102284459Y-38818597D01*
X102495788Y-38791525D01*
X102495789Y-38791525D01*
X102500916Y-38790868D01*
X102505866Y-38789383D01*
X102709929Y-38728161D01*
X102709934Y-38728159D01*
X102714884Y-38726674D01*
X102915494Y-38628396D01*
X103097360Y-38498673D01*
X103255596Y-38340989D01*
X103288063Y-38295807D01*
X103385953Y-38159577D01*
X103387276Y-38160528D01*
X103434145Y-38117357D01*
X103504080Y-38105125D01*
X103569526Y-38132644D01*
X103597375Y-38164494D01*
X103657487Y-38262588D01*
X103803750Y-38431438D01*
X103975626Y-38574132D01*
X104168500Y-38686838D01*
X104377192Y-38766530D01*
X104382260Y-38767561D01*
X104382263Y-38767562D01*
X104477362Y-38786910D01*
X104596097Y-38811067D01*
X104601272Y-38811257D01*
X104601274Y-38811257D01*
X104814173Y-38819064D01*
X104814177Y-38819064D01*
X104819337Y-38819253D01*
X104824457Y-38818597D01*
X104824459Y-38818597D01*
X105035788Y-38791525D01*
X105035789Y-38791525D01*
X105040916Y-38790868D01*
X105045866Y-38789383D01*
X105249929Y-38728161D01*
X105249934Y-38728159D01*
X105254884Y-38726674D01*
X105455494Y-38628396D01*
X105637360Y-38498673D01*
X105795596Y-38340989D01*
X105828063Y-38295807D01*
X105925953Y-38159577D01*
X105927276Y-38160528D01*
X105974145Y-38117357D01*
X106044080Y-38105125D01*
X106109526Y-38132644D01*
X106137375Y-38164494D01*
X106197487Y-38262588D01*
X106343750Y-38431438D01*
X106515626Y-38574132D01*
X106708500Y-38686838D01*
X106917192Y-38766530D01*
X106922260Y-38767561D01*
X106922263Y-38767562D01*
X107017362Y-38786910D01*
X107136097Y-38811067D01*
X107141272Y-38811257D01*
X107141274Y-38811257D01*
X107354173Y-38819064D01*
X107354177Y-38819064D01*
X107359337Y-38819253D01*
X107364457Y-38818597D01*
X107364459Y-38818597D01*
X107575788Y-38791525D01*
X107575789Y-38791525D01*
X107580916Y-38790868D01*
X107585866Y-38789383D01*
X107789929Y-38728161D01*
X107789934Y-38728159D01*
X107794884Y-38726674D01*
X107995494Y-38628396D01*
X108177360Y-38498673D01*
X108335596Y-38340989D01*
X108368063Y-38295807D01*
X108465953Y-38159577D01*
X108467276Y-38160528D01*
X108514145Y-38117357D01*
X108584080Y-38105125D01*
X108649526Y-38132644D01*
X108677375Y-38164494D01*
X108737487Y-38262588D01*
X108883750Y-38431438D01*
X109055626Y-38574132D01*
X109248500Y-38686838D01*
X109457192Y-38766530D01*
X109462260Y-38767561D01*
X109462263Y-38767562D01*
X109557362Y-38786910D01*
X109676097Y-38811067D01*
X109681272Y-38811257D01*
X109681274Y-38811257D01*
X109894173Y-38819064D01*
X109894177Y-38819064D01*
X109899337Y-38819253D01*
X109904457Y-38818597D01*
X109904459Y-38818597D01*
X110115788Y-38791525D01*
X110115789Y-38791525D01*
X110120916Y-38790868D01*
X110125866Y-38789383D01*
X110329929Y-38728161D01*
X110329934Y-38728159D01*
X110334884Y-38726674D01*
X110535494Y-38628396D01*
X110717360Y-38498673D01*
X110875596Y-38340989D01*
X110908063Y-38295807D01*
X111005953Y-38159577D01*
X111007276Y-38160528D01*
X111054145Y-38117357D01*
X111124080Y-38105125D01*
X111189526Y-38132644D01*
X111217375Y-38164494D01*
X111277487Y-38262588D01*
X111423750Y-38431438D01*
X111595626Y-38574132D01*
X111788500Y-38686838D01*
X111997192Y-38766530D01*
X112002260Y-38767561D01*
X112002263Y-38767562D01*
X112097362Y-38786910D01*
X112216097Y-38811067D01*
X112221272Y-38811257D01*
X112221274Y-38811257D01*
X112434173Y-38819064D01*
X112434177Y-38819064D01*
X112439337Y-38819253D01*
X112444457Y-38818597D01*
X112444459Y-38818597D01*
X112655788Y-38791525D01*
X112655789Y-38791525D01*
X112660916Y-38790868D01*
X112665866Y-38789383D01*
X112869929Y-38728161D01*
X112869934Y-38728159D01*
X112874884Y-38726674D01*
X113075494Y-38628396D01*
X113257360Y-38498673D01*
X113415596Y-38340989D01*
X113448063Y-38295807D01*
X113545953Y-38159577D01*
X113547276Y-38160528D01*
X113594145Y-38117357D01*
X113664080Y-38105125D01*
X113729526Y-38132644D01*
X113757375Y-38164494D01*
X113817487Y-38262588D01*
X113963750Y-38431438D01*
X114135626Y-38574132D01*
X114328500Y-38686838D01*
X114537192Y-38766530D01*
X114542260Y-38767561D01*
X114542263Y-38767562D01*
X114637362Y-38786910D01*
X114756097Y-38811067D01*
X114761272Y-38811257D01*
X114761274Y-38811257D01*
X114974173Y-38819064D01*
X114974177Y-38819064D01*
X114979337Y-38819253D01*
X114984457Y-38818597D01*
X114984459Y-38818597D01*
X115195788Y-38791525D01*
X115195789Y-38791525D01*
X115200916Y-38790868D01*
X115205866Y-38789383D01*
X115409929Y-38728161D01*
X115409934Y-38728159D01*
X115414884Y-38726674D01*
X115615494Y-38628396D01*
X115797360Y-38498673D01*
X115955596Y-38340989D01*
X115988063Y-38295807D01*
X116085953Y-38159577D01*
X116087276Y-38160528D01*
X116134145Y-38117357D01*
X116204080Y-38105125D01*
X116269526Y-38132644D01*
X116297375Y-38164494D01*
X116357487Y-38262588D01*
X116503750Y-38431438D01*
X116675626Y-38574132D01*
X116868500Y-38686838D01*
X117077192Y-38766530D01*
X117082260Y-38767561D01*
X117082263Y-38767562D01*
X117177362Y-38786910D01*
X117296097Y-38811067D01*
X117301272Y-38811257D01*
X117301274Y-38811257D01*
X117514173Y-38819064D01*
X117514177Y-38819064D01*
X117519337Y-38819253D01*
X117524457Y-38818597D01*
X117524459Y-38818597D01*
X117735788Y-38791525D01*
X117735789Y-38791525D01*
X117740916Y-38790868D01*
X117745866Y-38789383D01*
X117949929Y-38728161D01*
X117949934Y-38728159D01*
X117954884Y-38726674D01*
X118155494Y-38628396D01*
X118337360Y-38498673D01*
X118495596Y-38340989D01*
X118528063Y-38295807D01*
X118625953Y-38159577D01*
X118627276Y-38160528D01*
X118674145Y-38117357D01*
X118744080Y-38105125D01*
X118809526Y-38132644D01*
X118837375Y-38164494D01*
X118897487Y-38262588D01*
X119043750Y-38431438D01*
X119215626Y-38574132D01*
X119408500Y-38686838D01*
X119617192Y-38766530D01*
X119622260Y-38767561D01*
X119622263Y-38767562D01*
X119717362Y-38786910D01*
X119836097Y-38811067D01*
X119841272Y-38811257D01*
X119841274Y-38811257D01*
X120054173Y-38819064D01*
X120054177Y-38819064D01*
X120059337Y-38819253D01*
X120064457Y-38818597D01*
X120064459Y-38818597D01*
X120275788Y-38791525D01*
X120275789Y-38791525D01*
X120280916Y-38790868D01*
X120285866Y-38789383D01*
X120489929Y-38728161D01*
X120489934Y-38728159D01*
X120494884Y-38726674D01*
X120695494Y-38628396D01*
X120877360Y-38498673D01*
X121035596Y-38340989D01*
X121068063Y-38295807D01*
X121165953Y-38159577D01*
X121167276Y-38160528D01*
X121214145Y-38117357D01*
X121284080Y-38105125D01*
X121349526Y-38132644D01*
X121377375Y-38164494D01*
X121437487Y-38262588D01*
X121583750Y-38431438D01*
X121755626Y-38574132D01*
X121948500Y-38686838D01*
X122157192Y-38766530D01*
X122162260Y-38767561D01*
X122162263Y-38767562D01*
X122257362Y-38786910D01*
X122376097Y-38811067D01*
X122381272Y-38811257D01*
X122381274Y-38811257D01*
X122594173Y-38819064D01*
X122594177Y-38819064D01*
X122599337Y-38819253D01*
X122604457Y-38818597D01*
X122604459Y-38818597D01*
X122815788Y-38791525D01*
X122815789Y-38791525D01*
X122820916Y-38790868D01*
X122825866Y-38789383D01*
X123029929Y-38728161D01*
X123029934Y-38728159D01*
X123034884Y-38726674D01*
X123235494Y-38628396D01*
X123417360Y-38498673D01*
X123575596Y-38340989D01*
X123608063Y-38295807D01*
X123705953Y-38159577D01*
X123707276Y-38160528D01*
X123754145Y-38117357D01*
X123824080Y-38105125D01*
X123889526Y-38132644D01*
X123917375Y-38164494D01*
X123977487Y-38262588D01*
X124123750Y-38431438D01*
X124295626Y-38574132D01*
X124488500Y-38686838D01*
X124697192Y-38766530D01*
X124702260Y-38767561D01*
X124702263Y-38767562D01*
X124797362Y-38786910D01*
X124916097Y-38811067D01*
X124921272Y-38811257D01*
X124921274Y-38811257D01*
X125134173Y-38819064D01*
X125134177Y-38819064D01*
X125139337Y-38819253D01*
X125144457Y-38818597D01*
X125144459Y-38818597D01*
X125355788Y-38791525D01*
X125355789Y-38791525D01*
X125360916Y-38790868D01*
X125365866Y-38789383D01*
X125569929Y-38728161D01*
X125569934Y-38728159D01*
X125574884Y-38726674D01*
X125775494Y-38628396D01*
X125957360Y-38498673D01*
X126115596Y-38340989D01*
X126148063Y-38295807D01*
X126245953Y-38159577D01*
X126247276Y-38160528D01*
X126294145Y-38117357D01*
X126364080Y-38105125D01*
X126429526Y-38132644D01*
X126457375Y-38164494D01*
X126517487Y-38262588D01*
X126663750Y-38431438D01*
X126835626Y-38574132D01*
X127028500Y-38686838D01*
X127237192Y-38766530D01*
X127242260Y-38767561D01*
X127242263Y-38767562D01*
X127337362Y-38786910D01*
X127456097Y-38811067D01*
X127461272Y-38811257D01*
X127461274Y-38811257D01*
X127674173Y-38819064D01*
X127674177Y-38819064D01*
X127679337Y-38819253D01*
X127684457Y-38818597D01*
X127684459Y-38818597D01*
X127895788Y-38791525D01*
X127895789Y-38791525D01*
X127900916Y-38790868D01*
X127905866Y-38789383D01*
X128109929Y-38728161D01*
X128109934Y-38728159D01*
X128114884Y-38726674D01*
X128315494Y-38628396D01*
X128497360Y-38498673D01*
X128655596Y-38340989D01*
X128688063Y-38295807D01*
X128785953Y-38159577D01*
X128787276Y-38160528D01*
X128834145Y-38117357D01*
X128904080Y-38105125D01*
X128969526Y-38132644D01*
X128997375Y-38164494D01*
X129057487Y-38262588D01*
X129203750Y-38431438D01*
X129375626Y-38574132D01*
X129568500Y-38686838D01*
X129777192Y-38766530D01*
X129782260Y-38767561D01*
X129782263Y-38767562D01*
X129877362Y-38786910D01*
X129996097Y-38811067D01*
X130001272Y-38811257D01*
X130001274Y-38811257D01*
X130214173Y-38819064D01*
X130214177Y-38819064D01*
X130219337Y-38819253D01*
X130224457Y-38818597D01*
X130224459Y-38818597D01*
X130435788Y-38791525D01*
X130435789Y-38791525D01*
X130440916Y-38790868D01*
X130445866Y-38789383D01*
X130649929Y-38728161D01*
X130649934Y-38728159D01*
X130654884Y-38726674D01*
X130855494Y-38628396D01*
X131037360Y-38498673D01*
X131195596Y-38340989D01*
X131228063Y-38295807D01*
X131325953Y-38159577D01*
X131327140Y-38160430D01*
X131374460Y-38116862D01*
X131444397Y-38104645D01*
X131509838Y-38132178D01*
X131537666Y-38164011D01*
X131595194Y-38257888D01*
X131601277Y-38266199D01*
X131740713Y-38427167D01*
X131748080Y-38434383D01*
X131911934Y-38570416D01*
X131920381Y-38576331D01*
X132104256Y-38683779D01*
X132113542Y-38688229D01*
X132312501Y-38764203D01*
X132322399Y-38767079D01*
X132425750Y-38788106D01*
X132439799Y-38786910D01*
X132443500Y-38776565D01*
X132443500Y-38776017D01*
X132951500Y-38776017D01*
X132955564Y-38789859D01*
X132968978Y-38791893D01*
X132975684Y-38791034D01*
X132985762Y-38788892D01*
X133189755Y-38727691D01*
X133199342Y-38723933D01*
X133390595Y-38630239D01*
X133399445Y-38624964D01*
X133572828Y-38501292D01*
X133580700Y-38494639D01*
X133731552Y-38344312D01*
X133738230Y-38336465D01*
X133862503Y-38163520D01*
X133867813Y-38154683D01*
X133962170Y-37963767D01*
X133965969Y-37954172D01*
X134027877Y-37750410D01*
X134030055Y-37740337D01*
X134031486Y-37729462D01*
X134029275Y-37715278D01*
X134016117Y-37711500D01*
X132969615Y-37711500D01*
X132954376Y-37715975D01*
X132953171Y-37717365D01*
X132951500Y-37725048D01*
X132951500Y-38776017D01*
X132443500Y-38776017D01*
X132443500Y-37329500D01*
X132463502Y-37261379D01*
X132517158Y-37214886D01*
X132569500Y-37203500D01*
X134015844Y-37203500D01*
X134029375Y-37199527D01*
X134030680Y-37190447D01*
X133988714Y-37023375D01*
X133985394Y-37013624D01*
X133900472Y-36818314D01*
X133895605Y-36809239D01*
X133779926Y-36630426D01*
X133773636Y-36622257D01*
X133630306Y-36464740D01*
X133622773Y-36457715D01*
X133455639Y-36325722D01*
X133447056Y-36320020D01*
X133410102Y-36299620D01*
X133360131Y-36249187D01*
X133345359Y-36179745D01*
X133370475Y-36113339D01*
X133397827Y-36086732D01*
X133421297Y-36069991D01*
X133577360Y-35958673D01*
X133630798Y-35905422D01*
X133731935Y-35804637D01*
X133735596Y-35800989D01*
X133865953Y-35619577D01*
X133879495Y-35592178D01*
X133962636Y-35423953D01*
X133962637Y-35423951D01*
X133964930Y-35419311D01*
X134024168Y-35224337D01*
X134028365Y-35210523D01*
X134028365Y-35210521D01*
X134029870Y-35205569D01*
X134059029Y-34984090D01*
X134059178Y-34977992D01*
X134060574Y-34920865D01*
X134060574Y-34920861D01*
X134060656Y-34917500D01*
X134042352Y-34694861D01*
X133987931Y-34478202D01*
X133898854Y-34273340D01*
X133862482Y-34217118D01*
X133806202Y-34130121D01*
X133785995Y-34062061D01*
X133805791Y-33993880D01*
X133859307Y-33947226D01*
X133929550Y-33936910D01*
X133943460Y-33939674D01*
X134164117Y-33996593D01*
X134170893Y-33998545D01*
X134815740Y-34204076D01*
X134822410Y-34206411D01*
X135454688Y-34447765D01*
X135461182Y-34450453D01*
X136078979Y-34726900D01*
X136085332Y-34729959D01*
X136686641Y-35040603D01*
X136692784Y-35043999D01*
X137275734Y-35387872D01*
X137281701Y-35391621D01*
X137844434Y-35767628D01*
X137850198Y-35771718D01*
X138194495Y-36030827D01*
X138358398Y-36154176D01*
X138390942Y-36178668D01*
X138396464Y-36183071D01*
X138400731Y-36186674D01*
X138913567Y-36619727D01*
X138918837Y-36624437D01*
X139410623Y-37089380D01*
X139415620Y-37094377D01*
X139880563Y-37586163D01*
X139885273Y-37591433D01*
X140001829Y-37729462D01*
X140216503Y-37983686D01*
X140321926Y-38108532D01*
X140326328Y-38114054D01*
X140361230Y-38160430D01*
X140733282Y-38654802D01*
X140737372Y-38660566D01*
X141113379Y-39223299D01*
X141117128Y-39229266D01*
X141461001Y-39812216D01*
X141464397Y-39818359D01*
X141734732Y-40341642D01*
X141775037Y-40419660D01*
X141778100Y-40426021D01*
X142054547Y-41043818D01*
X142057235Y-41050312D01*
X142217765Y-41470854D01*
X142298589Y-41682589D01*
X142300924Y-41689259D01*
X142462267Y-42195466D01*
X142506453Y-42334099D01*
X142508407Y-42340883D01*
X142571858Y-42586862D01*
X142677450Y-42996210D01*
X142679023Y-43003101D01*
X142811057Y-43666879D01*
X142812241Y-43673847D01*
X142906848Y-44343988D01*
X142907639Y-44351010D01*
X142964524Y-45025400D01*
X142964920Y-45032457D01*
X142977874Y-45494137D01*
X142982735Y-45667406D01*
X142981286Y-45690318D01*
X142978809Y-45706224D01*
X142979973Y-45715126D01*
X142979973Y-45715128D01*
X142982936Y-45737783D01*
X142984000Y-45754121D01*
X142984000Y-74873133D01*
X142982500Y-74892518D01*
X142980190Y-74907351D01*
X142980190Y-74907355D01*
X142978809Y-74916224D01*
X142979973Y-74925126D01*
X142979973Y-74925130D01*
X142981934Y-74940123D01*
X142982948Y-74959994D01*
X142964920Y-75602543D01*
X142964524Y-75609600D01*
X142907639Y-76283990D01*
X142906848Y-76291012D01*
X142812241Y-76961153D01*
X142811057Y-76968121D01*
X142679023Y-77631899D01*
X142677450Y-77638790D01*
X142508409Y-78294110D01*
X142506455Y-78300893D01*
X142379970Y-78697736D01*
X142300924Y-78945740D01*
X142298589Y-78952410D01*
X142057235Y-79584688D01*
X142054547Y-79591182D01*
X141828330Y-80096727D01*
X141778104Y-80208972D01*
X141775041Y-80215332D01*
X141528475Y-80692607D01*
X141464404Y-80816628D01*
X141461001Y-80822784D01*
X141117128Y-81405734D01*
X141113379Y-81411701D01*
X140737372Y-81974434D01*
X140733282Y-81980198D01*
X140454658Y-82350426D01*
X140335227Y-82509123D01*
X140326332Y-82520942D01*
X140321929Y-82526464D01*
X140184759Y-82688906D01*
X139885273Y-83043567D01*
X139880563Y-83048837D01*
X139415620Y-83540623D01*
X139410623Y-83545620D01*
X138918837Y-84010563D01*
X138913567Y-84015273D01*
X138587734Y-84290416D01*
X138402688Y-84446674D01*
X138396468Y-84451926D01*
X138390946Y-84456328D01*
X138300802Y-84524169D01*
X137850198Y-84863282D01*
X137844434Y-84867372D01*
X137281701Y-85243379D01*
X137275734Y-85247128D01*
X136692784Y-85591001D01*
X136686641Y-85594397D01*
X136085332Y-85905041D01*
X136078979Y-85908100D01*
X135461182Y-86184547D01*
X135454688Y-86187235D01*
X134835709Y-86423513D01*
X134822411Y-86428589D01*
X134815741Y-86430924D01*
X134170893Y-86636455D01*
X134164117Y-86638407D01*
X134106556Y-86653255D01*
X133941040Y-86695950D01*
X133870082Y-86693597D01*
X133811661Y-86653255D01*
X133784325Y-86587732D01*
X133796752Y-86517831D01*
X133807246Y-86500417D01*
X133862507Y-86423513D01*
X133867813Y-86414683D01*
X133962170Y-86223767D01*
X133965969Y-86214172D01*
X134027877Y-86010410D01*
X134030055Y-86000337D01*
X134031486Y-85989462D01*
X134029275Y-85975278D01*
X134016117Y-85971500D01*
X130029500Y-85971500D01*
X129961379Y-85951498D01*
X129914886Y-85897842D01*
X129903500Y-85845500D01*
X129903500Y-85445385D01*
X130411500Y-85445385D01*
X130415975Y-85460624D01*
X130417365Y-85461829D01*
X130425048Y-85463500D01*
X132425385Y-85463500D01*
X132440624Y-85459025D01*
X132441829Y-85457635D01*
X132443500Y-85449952D01*
X132443500Y-85445385D01*
X132951500Y-85445385D01*
X132955975Y-85460624D01*
X132957365Y-85461829D01*
X132965048Y-85463500D01*
X134015844Y-85463500D01*
X134029375Y-85459527D01*
X134030680Y-85450447D01*
X133988714Y-85283375D01*
X133985394Y-85273624D01*
X133900472Y-85078314D01*
X133895605Y-85069239D01*
X133779926Y-84890426D01*
X133773636Y-84882257D01*
X133630306Y-84724740D01*
X133622773Y-84717715D01*
X133455639Y-84585722D01*
X133447052Y-84580017D01*
X133409616Y-84559351D01*
X133359646Y-84508919D01*
X133344874Y-84439476D01*
X133369990Y-84373071D01*
X133397342Y-84346464D01*
X133572827Y-84221292D01*
X133580700Y-84214639D01*
X133731552Y-84064312D01*
X133738230Y-84056465D01*
X133862503Y-83883520D01*
X133867813Y-83874683D01*
X133962170Y-83683767D01*
X133965969Y-83674172D01*
X134027877Y-83470410D01*
X134030055Y-83460337D01*
X134031486Y-83449462D01*
X134029275Y-83435278D01*
X134016117Y-83431500D01*
X132969615Y-83431500D01*
X132954376Y-83435975D01*
X132953171Y-83437365D01*
X132951500Y-83445048D01*
X132951500Y-85445385D01*
X132443500Y-85445385D01*
X132443500Y-83449615D01*
X132439025Y-83434376D01*
X132437635Y-83433171D01*
X132429952Y-83431500D01*
X130429615Y-83431500D01*
X130414376Y-83435975D01*
X130413171Y-83437365D01*
X130411500Y-83445048D01*
X130411500Y-85445385D01*
X129903500Y-85445385D01*
X129903500Y-82905385D01*
X130411500Y-82905385D01*
X130415975Y-82920624D01*
X130417365Y-82921829D01*
X130425048Y-82923500D01*
X132425385Y-82923500D01*
X132440624Y-82919025D01*
X132441829Y-82917635D01*
X132443500Y-82909952D01*
X132443500Y-82905385D01*
X132951500Y-82905385D01*
X132955975Y-82920624D01*
X132957365Y-82921829D01*
X132965048Y-82923500D01*
X134015844Y-82923500D01*
X134029375Y-82919527D01*
X134030680Y-82910447D01*
X133988714Y-82743375D01*
X133985394Y-82733624D01*
X133900472Y-82538314D01*
X133895605Y-82529239D01*
X133779926Y-82350426D01*
X133773636Y-82342257D01*
X133630306Y-82184740D01*
X133622773Y-82177715D01*
X133455639Y-82045722D01*
X133447052Y-82040017D01*
X133260617Y-81937099D01*
X133251205Y-81932869D01*
X133050459Y-81861780D01*
X133040488Y-81859146D01*
X132969337Y-81846472D01*
X132956040Y-81847932D01*
X132951500Y-81862489D01*
X132951500Y-82905385D01*
X132443500Y-82905385D01*
X132443500Y-81860602D01*
X132439582Y-81847258D01*
X132425306Y-81845271D01*
X132386824Y-81851160D01*
X132376788Y-81853551D01*
X132174368Y-81919712D01*
X132164859Y-81923709D01*
X131975963Y-82022042D01*
X131967238Y-82027536D01*
X131796933Y-82155405D01*
X131789226Y-82162248D01*
X131642090Y-82316217D01*
X131635604Y-82324227D01*
X131530693Y-82478021D01*
X131475782Y-82523024D01*
X131405257Y-82531195D01*
X131341510Y-82499941D01*
X131320813Y-82475457D01*
X131239927Y-82350426D01*
X131233636Y-82342257D01*
X131090306Y-82184740D01*
X131082773Y-82177715D01*
X130915639Y-82045722D01*
X130907052Y-82040017D01*
X130720617Y-81937099D01*
X130711205Y-81932869D01*
X130510459Y-81861780D01*
X130500488Y-81859146D01*
X130429337Y-81846472D01*
X130416040Y-81847932D01*
X130411500Y-81862489D01*
X130411500Y-82905385D01*
X129903500Y-82905385D01*
X129903500Y-81860602D01*
X129899582Y-81847258D01*
X129885306Y-81845271D01*
X129846824Y-81851160D01*
X129836788Y-81853551D01*
X129634368Y-81919712D01*
X129624859Y-81923709D01*
X129435963Y-82022042D01*
X129427238Y-82027536D01*
X129256933Y-82155405D01*
X129249226Y-82162248D01*
X129102090Y-82316217D01*
X129095609Y-82324222D01*
X128990998Y-82477574D01*
X128936087Y-82522576D01*
X128865562Y-82530747D01*
X128801815Y-82499493D01*
X128781118Y-82475009D01*
X128700322Y-82350117D01*
X128700320Y-82350114D01*
X128697514Y-82345777D01*
X128547170Y-82180551D01*
X128543119Y-82177352D01*
X128543115Y-82177348D01*
X128375914Y-82045300D01*
X128375910Y-82045298D01*
X128371859Y-82042098D01*
X128364974Y-82038297D01*
X128267103Y-81984270D01*
X128176289Y-81934138D01*
X128171420Y-81932414D01*
X128171416Y-81932412D01*
X127970587Y-81861295D01*
X127970583Y-81861294D01*
X127965712Y-81859569D01*
X127960619Y-81858662D01*
X127960616Y-81858661D01*
X127750873Y-81821300D01*
X127750867Y-81821299D01*
X127745784Y-81820394D01*
X127671952Y-81819492D01*
X127527581Y-81817728D01*
X127527579Y-81817728D01*
X127522411Y-81817665D01*
X127301591Y-81851455D01*
X127089256Y-81920857D01*
X126891107Y-82024007D01*
X126886974Y-82027110D01*
X126886971Y-82027112D01*
X126764813Y-82118831D01*
X126712465Y-82158135D01*
X126558129Y-82319638D01*
X126450701Y-82477121D01*
X126395793Y-82522121D01*
X126325268Y-82530292D01*
X126261521Y-82499038D01*
X126240824Y-82474554D01*
X126160322Y-82350117D01*
X126160320Y-82350114D01*
X126157514Y-82345777D01*
X126007170Y-82180551D01*
X126003119Y-82177352D01*
X126003115Y-82177348D01*
X125835914Y-82045300D01*
X125835910Y-82045298D01*
X125831859Y-82042098D01*
X125824974Y-82038297D01*
X125727103Y-81984270D01*
X125636289Y-81934138D01*
X125631420Y-81932414D01*
X125631416Y-81932412D01*
X125430587Y-81861295D01*
X125430583Y-81861294D01*
X125425712Y-81859569D01*
X125420619Y-81858662D01*
X125420616Y-81858661D01*
X125210873Y-81821300D01*
X125210867Y-81821299D01*
X125205784Y-81820394D01*
X125131952Y-81819492D01*
X124987581Y-81817728D01*
X124987579Y-81817728D01*
X124982411Y-81817665D01*
X124761591Y-81851455D01*
X124549256Y-81920857D01*
X124351107Y-82024007D01*
X124346974Y-82027110D01*
X124346971Y-82027112D01*
X124224813Y-82118831D01*
X124172465Y-82158135D01*
X124018129Y-82319638D01*
X123910701Y-82477121D01*
X123855793Y-82522121D01*
X123785268Y-82530292D01*
X123721521Y-82499038D01*
X123700824Y-82474554D01*
X123620322Y-82350117D01*
X123620320Y-82350114D01*
X123617514Y-82345777D01*
X123467170Y-82180551D01*
X123463119Y-82177352D01*
X123463115Y-82177348D01*
X123295914Y-82045300D01*
X123295910Y-82045298D01*
X123291859Y-82042098D01*
X123284974Y-82038297D01*
X123187103Y-81984270D01*
X123096289Y-81934138D01*
X123091420Y-81932414D01*
X123091416Y-81932412D01*
X122890587Y-81861295D01*
X122890583Y-81861294D01*
X122885712Y-81859569D01*
X122880619Y-81858662D01*
X122880616Y-81858661D01*
X122670873Y-81821300D01*
X122670867Y-81821299D01*
X122665784Y-81820394D01*
X122591952Y-81819492D01*
X122447581Y-81817728D01*
X122447579Y-81817728D01*
X122442411Y-81817665D01*
X122221591Y-81851455D01*
X122009256Y-81920857D01*
X121811107Y-82024007D01*
X121806974Y-82027110D01*
X121806971Y-82027112D01*
X121684813Y-82118831D01*
X121632465Y-82158135D01*
X121478129Y-82319638D01*
X121370701Y-82477121D01*
X121315793Y-82522121D01*
X121245268Y-82530292D01*
X121181521Y-82499038D01*
X121160824Y-82474554D01*
X121080322Y-82350117D01*
X121080320Y-82350114D01*
X121077514Y-82345777D01*
X120927170Y-82180551D01*
X120923119Y-82177352D01*
X120923115Y-82177348D01*
X120755914Y-82045300D01*
X120755910Y-82045298D01*
X120751859Y-82042098D01*
X120744974Y-82038297D01*
X120647103Y-81984270D01*
X120556289Y-81934138D01*
X120551420Y-81932414D01*
X120551416Y-81932412D01*
X120350587Y-81861295D01*
X120350583Y-81861294D01*
X120345712Y-81859569D01*
X120340619Y-81858662D01*
X120340616Y-81858661D01*
X120130873Y-81821300D01*
X120130867Y-81821299D01*
X120125784Y-81820394D01*
X120051952Y-81819492D01*
X119907581Y-81817728D01*
X119907579Y-81817728D01*
X119902411Y-81817665D01*
X119681591Y-81851455D01*
X119469256Y-81920857D01*
X119271107Y-82024007D01*
X119266974Y-82027110D01*
X119266971Y-82027112D01*
X119144813Y-82118831D01*
X119092465Y-82158135D01*
X118938129Y-82319638D01*
X118830701Y-82477121D01*
X118775793Y-82522121D01*
X118705268Y-82530292D01*
X118641521Y-82499038D01*
X118620824Y-82474554D01*
X118540322Y-82350117D01*
X118540320Y-82350114D01*
X118537514Y-82345777D01*
X118387170Y-82180551D01*
X118383119Y-82177352D01*
X118383115Y-82177348D01*
X118215914Y-82045300D01*
X118215910Y-82045298D01*
X118211859Y-82042098D01*
X118204974Y-82038297D01*
X118107103Y-81984270D01*
X118016289Y-81934138D01*
X118011420Y-81932414D01*
X118011416Y-81932412D01*
X117810587Y-81861295D01*
X117810583Y-81861294D01*
X117805712Y-81859569D01*
X117800619Y-81858662D01*
X117800616Y-81858661D01*
X117590873Y-81821300D01*
X117590867Y-81821299D01*
X117585784Y-81820394D01*
X117511952Y-81819492D01*
X117367581Y-81817728D01*
X117367579Y-81817728D01*
X117362411Y-81817665D01*
X117141591Y-81851455D01*
X116929256Y-81920857D01*
X116731107Y-82024007D01*
X116726974Y-82027110D01*
X116726971Y-82027112D01*
X116604813Y-82118831D01*
X116552465Y-82158135D01*
X116398129Y-82319638D01*
X116290701Y-82477121D01*
X116235793Y-82522121D01*
X116165268Y-82530292D01*
X116101521Y-82499038D01*
X116080824Y-82474554D01*
X116000322Y-82350117D01*
X116000320Y-82350114D01*
X115997514Y-82345777D01*
X115847170Y-82180551D01*
X115843119Y-82177352D01*
X115843115Y-82177348D01*
X115675914Y-82045300D01*
X115675910Y-82045298D01*
X115671859Y-82042098D01*
X115664974Y-82038297D01*
X115567103Y-81984270D01*
X115476289Y-81934138D01*
X115471420Y-81932414D01*
X115471416Y-81932412D01*
X115270587Y-81861295D01*
X115270583Y-81861294D01*
X115265712Y-81859569D01*
X115260619Y-81858662D01*
X115260616Y-81858661D01*
X115050873Y-81821300D01*
X115050867Y-81821299D01*
X115045784Y-81820394D01*
X114971952Y-81819492D01*
X114827581Y-81817728D01*
X114827579Y-81817728D01*
X114822411Y-81817665D01*
X114601591Y-81851455D01*
X114389256Y-81920857D01*
X114191107Y-82024007D01*
X114186974Y-82027110D01*
X114186971Y-82027112D01*
X114064813Y-82118831D01*
X114012465Y-82158135D01*
X113858129Y-82319638D01*
X113750701Y-82477121D01*
X113695793Y-82522121D01*
X113625268Y-82530292D01*
X113561521Y-82499038D01*
X113540824Y-82474554D01*
X113460322Y-82350117D01*
X113460320Y-82350114D01*
X113457514Y-82345777D01*
X113307170Y-82180551D01*
X113303119Y-82177352D01*
X113303115Y-82177348D01*
X113135914Y-82045300D01*
X113135910Y-82045298D01*
X113131859Y-82042098D01*
X113124974Y-82038297D01*
X113027103Y-81984270D01*
X112936289Y-81934138D01*
X112931420Y-81932414D01*
X112931416Y-81932412D01*
X112730587Y-81861295D01*
X112730583Y-81861294D01*
X112725712Y-81859569D01*
X112720619Y-81858662D01*
X112720616Y-81858661D01*
X112510873Y-81821300D01*
X112510867Y-81821299D01*
X112505784Y-81820394D01*
X112431952Y-81819492D01*
X112287581Y-81817728D01*
X112287579Y-81817728D01*
X112282411Y-81817665D01*
X112061591Y-81851455D01*
X111849256Y-81920857D01*
X111651107Y-82024007D01*
X111646974Y-82027110D01*
X111646971Y-82027112D01*
X111524813Y-82118831D01*
X111472465Y-82158135D01*
X111318129Y-82319638D01*
X111210701Y-82477121D01*
X111155793Y-82522121D01*
X111085268Y-82530292D01*
X111021521Y-82499038D01*
X111000824Y-82474554D01*
X110920322Y-82350117D01*
X110920320Y-82350114D01*
X110917514Y-82345777D01*
X110767170Y-82180551D01*
X110763119Y-82177352D01*
X110763115Y-82177348D01*
X110595914Y-82045300D01*
X110595910Y-82045298D01*
X110591859Y-82042098D01*
X110584974Y-82038297D01*
X110487103Y-81984270D01*
X110396289Y-81934138D01*
X110391420Y-81932414D01*
X110391416Y-81932412D01*
X110190587Y-81861295D01*
X110190583Y-81861294D01*
X110185712Y-81859569D01*
X110180619Y-81858662D01*
X110180616Y-81858661D01*
X109970873Y-81821300D01*
X109970867Y-81821299D01*
X109965784Y-81820394D01*
X109891952Y-81819492D01*
X109747581Y-81817728D01*
X109747579Y-81817728D01*
X109742411Y-81817665D01*
X109521591Y-81851455D01*
X109309256Y-81920857D01*
X109111107Y-82024007D01*
X109106974Y-82027110D01*
X109106971Y-82027112D01*
X108984813Y-82118831D01*
X108932465Y-82158135D01*
X108778129Y-82319638D01*
X108670701Y-82477121D01*
X108615793Y-82522121D01*
X108545268Y-82530292D01*
X108481521Y-82499038D01*
X108460824Y-82474554D01*
X108380322Y-82350117D01*
X108380320Y-82350114D01*
X108377514Y-82345777D01*
X108227170Y-82180551D01*
X108223119Y-82177352D01*
X108223115Y-82177348D01*
X108055914Y-82045300D01*
X108055910Y-82045298D01*
X108051859Y-82042098D01*
X108044974Y-82038297D01*
X107947103Y-81984270D01*
X107856289Y-81934138D01*
X107851420Y-81932414D01*
X107851416Y-81932412D01*
X107650587Y-81861295D01*
X107650583Y-81861294D01*
X107645712Y-81859569D01*
X107640619Y-81858662D01*
X107640616Y-81858661D01*
X107430873Y-81821300D01*
X107430867Y-81821299D01*
X107425784Y-81820394D01*
X107351952Y-81819492D01*
X107207581Y-81817728D01*
X107207579Y-81817728D01*
X107202411Y-81817665D01*
X106981591Y-81851455D01*
X106769256Y-81920857D01*
X106571107Y-82024007D01*
X106566974Y-82027110D01*
X106566971Y-82027112D01*
X106444813Y-82118831D01*
X106392465Y-82158135D01*
X106238129Y-82319638D01*
X106130701Y-82477121D01*
X106075793Y-82522121D01*
X106005268Y-82530292D01*
X105941521Y-82499038D01*
X105920824Y-82474554D01*
X105840322Y-82350117D01*
X105840320Y-82350114D01*
X105837514Y-82345777D01*
X105687170Y-82180551D01*
X105683119Y-82177352D01*
X105683115Y-82177348D01*
X105515914Y-82045300D01*
X105515910Y-82045298D01*
X105511859Y-82042098D01*
X105504974Y-82038297D01*
X105407103Y-81984270D01*
X105316289Y-81934138D01*
X105311420Y-81932414D01*
X105311416Y-81932412D01*
X105110587Y-81861295D01*
X105110583Y-81861294D01*
X105105712Y-81859569D01*
X105100619Y-81858662D01*
X105100616Y-81858661D01*
X104890873Y-81821300D01*
X104890867Y-81821299D01*
X104885784Y-81820394D01*
X104811952Y-81819492D01*
X104667581Y-81817728D01*
X104667579Y-81817728D01*
X104662411Y-81817665D01*
X104441591Y-81851455D01*
X104229256Y-81920857D01*
X104031107Y-82024007D01*
X104026974Y-82027110D01*
X104026971Y-82027112D01*
X103904813Y-82118831D01*
X103852465Y-82158135D01*
X103698129Y-82319638D01*
X103590701Y-82477121D01*
X103535793Y-82522121D01*
X103465268Y-82530292D01*
X103401521Y-82499038D01*
X103380824Y-82474554D01*
X103300322Y-82350117D01*
X103300320Y-82350114D01*
X103297514Y-82345777D01*
X103147170Y-82180551D01*
X103143119Y-82177352D01*
X103143115Y-82177348D01*
X102975914Y-82045300D01*
X102975910Y-82045298D01*
X102971859Y-82042098D01*
X102964974Y-82038297D01*
X102867103Y-81984270D01*
X102776289Y-81934138D01*
X102771420Y-81932414D01*
X102771416Y-81932412D01*
X102570587Y-81861295D01*
X102570583Y-81861294D01*
X102565712Y-81859569D01*
X102560619Y-81858662D01*
X102560616Y-81858661D01*
X102350873Y-81821300D01*
X102350867Y-81821299D01*
X102345784Y-81820394D01*
X102271952Y-81819492D01*
X102127581Y-81817728D01*
X102127579Y-81817728D01*
X102122411Y-81817665D01*
X101901591Y-81851455D01*
X101689256Y-81920857D01*
X101491107Y-82024007D01*
X101486974Y-82027110D01*
X101486971Y-82027112D01*
X101364813Y-82118831D01*
X101312465Y-82158135D01*
X101158129Y-82319638D01*
X101050701Y-82477121D01*
X100995793Y-82522121D01*
X100925268Y-82530292D01*
X100861521Y-82499038D01*
X100840824Y-82474554D01*
X100760322Y-82350117D01*
X100760320Y-82350114D01*
X100757514Y-82345777D01*
X100607170Y-82180551D01*
X100603119Y-82177352D01*
X100603115Y-82177348D01*
X100435914Y-82045300D01*
X100435910Y-82045298D01*
X100431859Y-82042098D01*
X100424974Y-82038297D01*
X100327103Y-81984270D01*
X100236289Y-81934138D01*
X100231420Y-81932414D01*
X100231416Y-81932412D01*
X100030587Y-81861295D01*
X100030583Y-81861294D01*
X100025712Y-81859569D01*
X100020619Y-81858662D01*
X100020616Y-81858661D01*
X99810873Y-81821300D01*
X99810867Y-81821299D01*
X99805784Y-81820394D01*
X99731952Y-81819492D01*
X99587581Y-81817728D01*
X99587579Y-81817728D01*
X99582411Y-81817665D01*
X99361591Y-81851455D01*
X99149256Y-81920857D01*
X98951107Y-82024007D01*
X98946974Y-82027110D01*
X98946971Y-82027112D01*
X98824813Y-82118831D01*
X98772465Y-82158135D01*
X98618129Y-82319638D01*
X98510701Y-82477121D01*
X98455793Y-82522121D01*
X98385268Y-82530292D01*
X98321521Y-82499038D01*
X98300824Y-82474554D01*
X98220322Y-82350117D01*
X98220320Y-82350114D01*
X98217514Y-82345777D01*
X98067170Y-82180551D01*
X98063119Y-82177352D01*
X98063115Y-82177348D01*
X97895914Y-82045300D01*
X97895910Y-82045298D01*
X97891859Y-82042098D01*
X97884974Y-82038297D01*
X97787103Y-81984270D01*
X97696289Y-81934138D01*
X97691420Y-81932414D01*
X97691416Y-81932412D01*
X97490587Y-81861295D01*
X97490583Y-81861294D01*
X97485712Y-81859569D01*
X97480619Y-81858662D01*
X97480616Y-81858661D01*
X97270873Y-81821300D01*
X97270867Y-81821299D01*
X97265784Y-81820394D01*
X97191952Y-81819492D01*
X97047581Y-81817728D01*
X97047579Y-81817728D01*
X97042411Y-81817665D01*
X96821591Y-81851455D01*
X96609256Y-81920857D01*
X96411107Y-82024007D01*
X96406974Y-82027110D01*
X96406971Y-82027112D01*
X96284813Y-82118831D01*
X96232465Y-82158135D01*
X96078129Y-82319638D01*
X95970701Y-82477121D01*
X95915793Y-82522121D01*
X95845268Y-82530292D01*
X95781521Y-82499038D01*
X95760824Y-82474554D01*
X95680322Y-82350117D01*
X95680320Y-82350114D01*
X95677514Y-82345777D01*
X95527170Y-82180551D01*
X95523119Y-82177352D01*
X95523115Y-82177348D01*
X95355914Y-82045300D01*
X95355910Y-82045298D01*
X95351859Y-82042098D01*
X95344974Y-82038297D01*
X95247103Y-81984270D01*
X95156289Y-81934138D01*
X95151420Y-81932414D01*
X95151416Y-81932412D01*
X94950587Y-81861295D01*
X94950583Y-81861294D01*
X94945712Y-81859569D01*
X94940619Y-81858662D01*
X94940616Y-81858661D01*
X94730873Y-81821300D01*
X94730867Y-81821299D01*
X94725784Y-81820394D01*
X94651952Y-81819492D01*
X94507581Y-81817728D01*
X94507579Y-81817728D01*
X94502411Y-81817665D01*
X94281591Y-81851455D01*
X94069256Y-81920857D01*
X93871107Y-82024007D01*
X93866974Y-82027110D01*
X93866971Y-82027112D01*
X93744813Y-82118831D01*
X93692465Y-82158135D01*
X93538129Y-82319638D01*
X93430701Y-82477121D01*
X93375793Y-82522121D01*
X93305268Y-82530292D01*
X93241521Y-82499038D01*
X93220824Y-82474554D01*
X93140322Y-82350117D01*
X93140320Y-82350114D01*
X93137514Y-82345777D01*
X92987170Y-82180551D01*
X92983119Y-82177352D01*
X92983115Y-82177348D01*
X92815914Y-82045300D01*
X92815910Y-82045298D01*
X92811859Y-82042098D01*
X92804974Y-82038297D01*
X92707103Y-81984270D01*
X92616289Y-81934138D01*
X92611420Y-81932414D01*
X92611416Y-81932412D01*
X92410587Y-81861295D01*
X92410583Y-81861294D01*
X92405712Y-81859569D01*
X92400619Y-81858662D01*
X92400616Y-81858661D01*
X92190873Y-81821300D01*
X92190867Y-81821299D01*
X92185784Y-81820394D01*
X92111952Y-81819492D01*
X91967581Y-81817728D01*
X91967579Y-81817728D01*
X91962411Y-81817665D01*
X91741591Y-81851455D01*
X91529256Y-81920857D01*
X91331107Y-82024007D01*
X91326974Y-82027110D01*
X91326971Y-82027112D01*
X91204813Y-82118831D01*
X91152465Y-82158135D01*
X90998129Y-82319638D01*
X90890701Y-82477121D01*
X90835793Y-82522121D01*
X90765268Y-82530292D01*
X90701521Y-82499038D01*
X90680824Y-82474554D01*
X90600322Y-82350117D01*
X90600320Y-82350114D01*
X90597514Y-82345777D01*
X90447170Y-82180551D01*
X90443119Y-82177352D01*
X90443115Y-82177348D01*
X90275914Y-82045300D01*
X90275910Y-82045298D01*
X90271859Y-82042098D01*
X90264974Y-82038297D01*
X90167103Y-81984270D01*
X90076289Y-81934138D01*
X90071420Y-81932414D01*
X90071416Y-81932412D01*
X89870587Y-81861295D01*
X89870583Y-81861294D01*
X89865712Y-81859569D01*
X89860619Y-81858662D01*
X89860616Y-81858661D01*
X89650873Y-81821300D01*
X89650867Y-81821299D01*
X89645784Y-81820394D01*
X89571952Y-81819492D01*
X89427581Y-81817728D01*
X89427579Y-81817728D01*
X89422411Y-81817665D01*
X89201591Y-81851455D01*
X88989256Y-81920857D01*
X88791107Y-82024007D01*
X88786974Y-82027110D01*
X88786971Y-82027112D01*
X88664813Y-82118831D01*
X88612465Y-82158135D01*
X88458129Y-82319638D01*
X88350701Y-82477121D01*
X88295793Y-82522121D01*
X88225268Y-82530292D01*
X88161521Y-82499038D01*
X88140824Y-82474554D01*
X88060322Y-82350117D01*
X88060320Y-82350114D01*
X88057514Y-82345777D01*
X87907170Y-82180551D01*
X87903119Y-82177352D01*
X87903115Y-82177348D01*
X87735914Y-82045300D01*
X87735910Y-82045298D01*
X87731859Y-82042098D01*
X87724974Y-82038297D01*
X87627103Y-81984270D01*
X87536289Y-81934138D01*
X87531420Y-81932414D01*
X87531416Y-81932412D01*
X87330587Y-81861295D01*
X87330583Y-81861294D01*
X87325712Y-81859569D01*
X87320619Y-81858662D01*
X87320616Y-81858661D01*
X87110873Y-81821300D01*
X87110867Y-81821299D01*
X87105784Y-81820394D01*
X87031952Y-81819492D01*
X86887581Y-81817728D01*
X86887579Y-81817728D01*
X86882411Y-81817665D01*
X86661591Y-81851455D01*
X86449256Y-81920857D01*
X86251107Y-82024007D01*
X86246974Y-82027110D01*
X86246971Y-82027112D01*
X86124813Y-82118831D01*
X86072465Y-82158135D01*
X85918129Y-82319638D01*
X85810701Y-82477121D01*
X85755793Y-82522121D01*
X85685268Y-82530292D01*
X85621521Y-82499038D01*
X85600824Y-82474554D01*
X85520322Y-82350117D01*
X85520320Y-82350114D01*
X85517514Y-82345777D01*
X85367170Y-82180551D01*
X85363119Y-82177352D01*
X85363115Y-82177348D01*
X85195914Y-82045300D01*
X85195910Y-82045298D01*
X85191859Y-82042098D01*
X85184974Y-82038297D01*
X85087103Y-81984270D01*
X84996289Y-81934138D01*
X84991420Y-81932414D01*
X84991416Y-81932412D01*
X84790587Y-81861295D01*
X84790583Y-81861294D01*
X84785712Y-81859569D01*
X84780619Y-81858662D01*
X84780616Y-81858661D01*
X84570873Y-81821300D01*
X84570867Y-81821299D01*
X84565784Y-81820394D01*
X84491952Y-81819492D01*
X84347581Y-81817728D01*
X84347579Y-81817728D01*
X84342411Y-81817665D01*
X84121591Y-81851455D01*
X83909256Y-81920857D01*
X83711107Y-82024007D01*
X83706974Y-82027110D01*
X83706971Y-82027112D01*
X83584813Y-82118831D01*
X83532465Y-82158135D01*
X83378129Y-82319638D01*
X83270701Y-82477121D01*
X83215793Y-82522121D01*
X83145268Y-82530292D01*
X83081521Y-82499038D01*
X83060824Y-82474554D01*
X82980322Y-82350117D01*
X82980320Y-82350114D01*
X82977514Y-82345777D01*
X82827170Y-82180551D01*
X82823119Y-82177352D01*
X82823115Y-82177348D01*
X82655914Y-82045300D01*
X82655910Y-82045298D01*
X82651859Y-82042098D01*
X82644974Y-82038297D01*
X82547103Y-81984270D01*
X82456289Y-81934138D01*
X82451420Y-81932414D01*
X82451416Y-81932412D01*
X82250587Y-81861295D01*
X82250583Y-81861294D01*
X82245712Y-81859569D01*
X82240619Y-81858662D01*
X82240616Y-81858661D01*
X82030873Y-81821300D01*
X82030867Y-81821299D01*
X82025784Y-81820394D01*
X81951952Y-81819492D01*
X81807581Y-81817728D01*
X81807579Y-81817728D01*
X81802411Y-81817665D01*
X81581591Y-81851455D01*
X81369256Y-81920857D01*
X81171107Y-82024007D01*
X81166974Y-82027110D01*
X81166971Y-82027112D01*
X81044813Y-82118831D01*
X80992465Y-82158135D01*
X80838129Y-82319638D01*
X80730701Y-82477121D01*
X80675793Y-82522121D01*
X80605268Y-82530292D01*
X80541521Y-82499038D01*
X80520824Y-82474554D01*
X80440322Y-82350117D01*
X80440320Y-82350114D01*
X80437514Y-82345777D01*
X80287170Y-82180551D01*
X80283119Y-82177352D01*
X80283115Y-82177348D01*
X80115914Y-82045300D01*
X80115910Y-82045298D01*
X80111859Y-82042098D01*
X80104974Y-82038297D01*
X80007103Y-81984270D01*
X79916289Y-81934138D01*
X79911420Y-81932414D01*
X79911416Y-81932412D01*
X79710587Y-81861295D01*
X79710583Y-81861294D01*
X79705712Y-81859569D01*
X79700619Y-81858662D01*
X79700616Y-81858661D01*
X79490873Y-81821300D01*
X79490867Y-81821299D01*
X79485784Y-81820394D01*
X79411952Y-81819492D01*
X79267581Y-81817728D01*
X79267579Y-81817728D01*
X79262411Y-81817665D01*
X79041591Y-81851455D01*
X78829256Y-81920857D01*
X78631107Y-82024007D01*
X78626974Y-82027110D01*
X78626971Y-82027112D01*
X78504813Y-82118831D01*
X78452465Y-82158135D01*
X78298129Y-82319638D01*
X78295220Y-82323903D01*
X78295214Y-82323911D01*
X78243653Y-82399497D01*
X78190704Y-82477118D01*
X78190398Y-82477566D01*
X78135487Y-82522569D01*
X78064962Y-82530740D01*
X78001215Y-82499486D01*
X77980518Y-82475002D01*
X77899926Y-82350426D01*
X77893636Y-82342257D01*
X77750306Y-82184740D01*
X77742773Y-82177715D01*
X77575639Y-82045722D01*
X77567052Y-82040017D01*
X77380617Y-81937099D01*
X77371205Y-81932869D01*
X77170459Y-81861780D01*
X77160488Y-81859146D01*
X77089337Y-81846472D01*
X77076040Y-81847932D01*
X77071500Y-81862489D01*
X77071500Y-85845500D01*
X77051498Y-85913621D01*
X76997842Y-85960114D01*
X76945500Y-85971500D01*
X75477616Y-85971500D01*
X75462377Y-85975975D01*
X75461172Y-85977365D01*
X75459501Y-85985048D01*
X75459501Y-86612169D01*
X75459871Y-86618990D01*
X75465395Y-86669852D01*
X75469021Y-86685104D01*
X75514176Y-86805554D01*
X75522714Y-86821149D01*
X75591129Y-86912435D01*
X75615977Y-86978942D01*
X75600924Y-87048324D01*
X75550750Y-87098554D01*
X75490303Y-87114000D01*
X63531867Y-87114000D01*
X63512482Y-87112500D01*
X63497648Y-87110190D01*
X63497645Y-87110190D01*
X63488776Y-87108809D01*
X63479874Y-87109973D01*
X63479873Y-87109973D01*
X63467396Y-87111604D01*
X63446115Y-87112570D01*
X63029131Y-87096187D01*
X63019268Y-87095411D01*
X62573599Y-87042662D01*
X62563828Y-87041114D01*
X62322955Y-86993202D01*
X62123672Y-86953562D01*
X62114066Y-86951256D01*
X61682138Y-86829440D01*
X61672748Y-86826389D01*
X61251696Y-86671054D01*
X61242558Y-86667269D01*
X61179956Y-86638409D01*
X60835002Y-86479384D01*
X60826189Y-86474893D01*
X60743508Y-86428589D01*
X60434650Y-86255620D01*
X60426214Y-86250451D01*
X60185993Y-86089941D01*
X60053062Y-86001119D01*
X60045074Y-85995316D01*
X59855034Y-85845500D01*
X59692639Y-85717477D01*
X59685116Y-85711052D01*
X59415768Y-85462070D01*
X59355560Y-85406414D01*
X59348586Y-85399440D01*
X59114756Y-85146484D01*
X59043948Y-85069884D01*
X59037523Y-85062361D01*
X58809953Y-84773692D01*
X58759684Y-84709926D01*
X58753875Y-84701930D01*
X58751340Y-84698135D01*
X58672540Y-84580203D01*
X69628243Y-84580203D01*
X69628802Y-84584447D01*
X69628802Y-84584451D01*
X69644811Y-84706048D01*
X69665768Y-84865234D01*
X69741629Y-85142536D01*
X69854423Y-85406976D01*
X69880144Y-85449952D01*
X69977166Y-85612064D01*
X70002061Y-85653661D01*
X70181813Y-85878028D01*
X70390351Y-86075923D01*
X70623817Y-86243686D01*
X70627612Y-86245695D01*
X70627613Y-86245696D01*
X70646356Y-86255620D01*
X70877892Y-86378212D01*
X71147873Y-86477011D01*
X71428764Y-86538255D01*
X71457341Y-86540504D01*
X71651782Y-86555807D01*
X71651791Y-86555807D01*
X71654239Y-86556000D01*
X71809771Y-86556000D01*
X71811907Y-86555854D01*
X71811918Y-86555854D01*
X72020048Y-86541665D01*
X72020054Y-86541664D01*
X72024325Y-86541373D01*
X72028520Y-86540504D01*
X72028522Y-86540504D01*
X72222095Y-86500417D01*
X72305842Y-86483074D01*
X72576843Y-86387107D01*
X72832312Y-86255250D01*
X72835813Y-86252789D01*
X72835817Y-86252787D01*
X73017441Y-86125139D01*
X73067523Y-86089941D01*
X73190915Y-85975278D01*
X73274979Y-85897161D01*
X73274981Y-85897158D01*
X73278122Y-85894240D01*
X73460213Y-85671768D01*
X73598941Y-85445385D01*
X75459500Y-85445385D01*
X75463975Y-85460624D01*
X75465365Y-85461829D01*
X75473048Y-85463500D01*
X76545385Y-85463500D01*
X76560624Y-85459025D01*
X76561829Y-85457635D01*
X76563500Y-85449952D01*
X76563500Y-83449615D01*
X76559025Y-83434376D01*
X76557635Y-83433171D01*
X76549952Y-83431500D01*
X75500725Y-83431500D01*
X75487194Y-83435473D01*
X75485757Y-83445466D01*
X75516065Y-83579946D01*
X75519145Y-83589775D01*
X75599270Y-83787103D01*
X75603913Y-83796294D01*
X75715194Y-83977888D01*
X75721277Y-83986199D01*
X75860713Y-84147167D01*
X75868078Y-84154381D01*
X75873466Y-84158854D01*
X75913099Y-84217758D01*
X75914595Y-84288739D01*
X75877478Y-84349261D01*
X75837207Y-84373778D01*
X75729448Y-84414175D01*
X75713851Y-84422714D01*
X75611776Y-84499215D01*
X75599215Y-84511776D01*
X75522714Y-84613851D01*
X75514176Y-84629446D01*
X75469022Y-84749894D01*
X75465395Y-84765149D01*
X75459869Y-84816014D01*
X75459500Y-84822828D01*
X75459500Y-85445385D01*
X73598941Y-85445385D01*
X73610427Y-85426642D01*
X73725983Y-85163398D01*
X73804744Y-84886906D01*
X73845251Y-84602284D01*
X73845345Y-84584451D01*
X73846735Y-84319083D01*
X73846735Y-84319076D01*
X73846757Y-84314797D01*
X73844037Y-84294132D01*
X73813779Y-84064305D01*
X73809232Y-84029766D01*
X73797314Y-83986199D01*
X73768378Y-83880430D01*
X73733371Y-83752464D01*
X73663978Y-83589775D01*
X73622263Y-83491976D01*
X73622261Y-83491972D01*
X73620577Y-83488024D01*
X73512023Y-83306644D01*
X73475143Y-83245021D01*
X73475140Y-83245017D01*
X73472939Y-83241339D01*
X73293187Y-83016972D01*
X73182235Y-82911683D01*
X75481889Y-82911683D01*
X75483412Y-82920107D01*
X75495792Y-82923500D01*
X76545385Y-82923500D01*
X76560624Y-82919025D01*
X76561829Y-82917635D01*
X76563500Y-82909952D01*
X76563500Y-81860602D01*
X76559582Y-81847258D01*
X76545306Y-81845271D01*
X76506824Y-81851160D01*
X76496788Y-81853551D01*
X76294368Y-81919712D01*
X76284859Y-81923709D01*
X76095963Y-82022042D01*
X76087238Y-82027536D01*
X75916933Y-82155405D01*
X75909226Y-82162248D01*
X75762090Y-82316217D01*
X75755604Y-82324227D01*
X75635598Y-82500149D01*
X75630500Y-82509123D01*
X75540838Y-82702283D01*
X75537275Y-82711970D01*
X75481889Y-82911683D01*
X73182235Y-82911683D01*
X73084649Y-82819077D01*
X72851183Y-82651314D01*
X72829343Y-82639750D01*
X72637763Y-82538314D01*
X72597108Y-82516788D01*
X72327127Y-82417989D01*
X72046236Y-82356745D01*
X72015185Y-82354301D01*
X71823218Y-82339193D01*
X71823209Y-82339193D01*
X71820761Y-82339000D01*
X71665229Y-82339000D01*
X71663093Y-82339146D01*
X71663082Y-82339146D01*
X71454952Y-82353335D01*
X71454946Y-82353336D01*
X71450675Y-82353627D01*
X71446480Y-82354496D01*
X71446478Y-82354496D01*
X71309916Y-82382777D01*
X71169158Y-82411926D01*
X70898157Y-82507893D01*
X70642688Y-82639750D01*
X70639187Y-82642211D01*
X70639183Y-82642213D01*
X70552652Y-82703028D01*
X70407477Y-82805059D01*
X70392392Y-82819077D01*
X70280020Y-82923500D01*
X70196878Y-83000760D01*
X70014787Y-83223232D01*
X69864573Y-83468358D01*
X69862847Y-83472291D01*
X69862846Y-83472292D01*
X69845221Y-83512442D01*
X69749017Y-83731602D01*
X69670256Y-84008094D01*
X69629749Y-84292716D01*
X69629727Y-84297005D01*
X69629726Y-84297012D01*
X69628309Y-84567536D01*
X69628243Y-84580203D01*
X58672540Y-84580203D01*
X58557908Y-84408644D01*
X58504549Y-84328786D01*
X58499380Y-84320350D01*
X58326886Y-84012341D01*
X58280106Y-83928809D01*
X58275615Y-83919996D01*
X58087730Y-83512439D01*
X58083945Y-83503302D01*
X58078309Y-83488024D01*
X57928611Y-83082252D01*
X57925557Y-83072852D01*
X57924383Y-83068686D01*
X57803744Y-82640934D01*
X57801436Y-82631321D01*
X57781430Y-82530740D01*
X57740289Y-82323911D01*
X57713886Y-82191172D01*
X57712338Y-82181401D01*
X57659589Y-81735732D01*
X57658813Y-81725869D01*
X57642872Y-81320145D01*
X57644521Y-81294294D01*
X57645269Y-81289847D01*
X57646076Y-81285052D01*
X57646229Y-81272500D01*
X57642273Y-81244876D01*
X57641000Y-81227014D01*
X57641000Y-81217966D01*
X61838257Y-81217966D01*
X61868565Y-81352446D01*
X61871645Y-81362275D01*
X61951770Y-81559603D01*
X61956413Y-81568794D01*
X62067694Y-81750388D01*
X62073777Y-81758699D01*
X62213213Y-81919667D01*
X62220580Y-81926883D01*
X62384434Y-82062916D01*
X62392881Y-82068831D01*
X62576756Y-82176279D01*
X62586042Y-82180729D01*
X62785001Y-82256703D01*
X62794899Y-82259579D01*
X62898250Y-82280606D01*
X62912299Y-82279410D01*
X62916000Y-82269065D01*
X62916000Y-82268517D01*
X63424000Y-82268517D01*
X63428064Y-82282359D01*
X63441478Y-82284393D01*
X63448184Y-82283534D01*
X63458262Y-82281392D01*
X63662255Y-82220191D01*
X63671842Y-82216433D01*
X63863095Y-82122739D01*
X63871945Y-82117464D01*
X64045328Y-81993792D01*
X64053193Y-81987145D01*
X64157897Y-81882805D01*
X64220268Y-81848889D01*
X64291075Y-81854077D01*
X64347837Y-81896723D01*
X64364819Y-81927826D01*
X64378154Y-81963397D01*
X64409385Y-82046705D01*
X64496739Y-82163261D01*
X64613295Y-82250615D01*
X64749684Y-82301745D01*
X64811866Y-82308500D01*
X66608134Y-82308500D01*
X66670316Y-82301745D01*
X66806705Y-82250615D01*
X66923261Y-82163261D01*
X67010615Y-82046705D01*
X67061745Y-81910316D01*
X67068500Y-81848134D01*
X67068500Y-81405203D01*
X135668243Y-81405203D01*
X135705768Y-81690234D01*
X135781629Y-81967536D01*
X135783313Y-81971484D01*
X135874946Y-82186312D01*
X135894423Y-82231976D01*
X135940001Y-82308131D01*
X136005750Y-82417989D01*
X136042061Y-82478661D01*
X136221813Y-82703028D01*
X136430351Y-82900923D01*
X136663817Y-83068686D01*
X136667612Y-83070695D01*
X136667613Y-83070696D01*
X136708846Y-83092528D01*
X136917892Y-83203212D01*
X137187873Y-83302011D01*
X137468764Y-83363255D01*
X137497341Y-83365504D01*
X137691782Y-83380807D01*
X137691791Y-83380807D01*
X137694239Y-83381000D01*
X137849771Y-83381000D01*
X137851907Y-83380854D01*
X137851918Y-83380854D01*
X138060048Y-83366665D01*
X138060054Y-83366664D01*
X138064325Y-83366373D01*
X138068520Y-83365504D01*
X138068522Y-83365504D01*
X138205083Y-83337224D01*
X138345842Y-83308074D01*
X138616843Y-83212107D01*
X138704863Y-83166677D01*
X138868505Y-83082215D01*
X138868506Y-83082215D01*
X138872312Y-83080250D01*
X138875813Y-83077789D01*
X138875817Y-83077787D01*
X138989918Y-82997595D01*
X139107523Y-82914941D01*
X139225770Y-82805059D01*
X139314979Y-82722161D01*
X139314981Y-82722158D01*
X139318122Y-82719240D01*
X139500213Y-82496768D01*
X139650427Y-82251642D01*
X139676972Y-82191172D01*
X139764257Y-81992330D01*
X139765983Y-81988398D01*
X139844744Y-81711906D01*
X139885251Y-81427284D01*
X139885345Y-81409451D01*
X139886735Y-81144083D01*
X139886735Y-81144076D01*
X139886757Y-81139797D01*
X139849232Y-80854766D01*
X139773371Y-80577464D01*
X139762795Y-80552670D01*
X139662263Y-80316976D01*
X139662261Y-80316972D01*
X139660577Y-80313024D01*
X139512939Y-80066339D01*
X139333187Y-79841972D01*
X139135918Y-79654771D01*
X139127758Y-79647027D01*
X139127755Y-79647025D01*
X139124649Y-79644077D01*
X138891183Y-79476314D01*
X138869343Y-79464750D01*
X138846154Y-79452472D01*
X138637108Y-79341788D01*
X138367127Y-79242989D01*
X138086236Y-79181745D01*
X138055185Y-79179301D01*
X137863218Y-79164193D01*
X137863209Y-79164193D01*
X137860761Y-79164000D01*
X137705229Y-79164000D01*
X137703093Y-79164146D01*
X137703082Y-79164146D01*
X137494952Y-79178335D01*
X137494946Y-79178336D01*
X137490675Y-79178627D01*
X137486480Y-79179496D01*
X137486478Y-79179496D01*
X137349917Y-79207776D01*
X137209158Y-79236926D01*
X136938157Y-79332893D01*
X136682688Y-79464750D01*
X136679187Y-79467211D01*
X136679183Y-79467213D01*
X136669094Y-79474304D01*
X136447477Y-79630059D01*
X136380593Y-79692212D01*
X136244990Y-79818222D01*
X136236878Y-79825760D01*
X136054787Y-80048232D01*
X135904573Y-80293358D01*
X135789017Y-80556602D01*
X135710256Y-80833094D01*
X135669749Y-81117716D01*
X135669727Y-81122005D01*
X135669726Y-81122012D01*
X135668265Y-81400917D01*
X135668243Y-81405203D01*
X67068500Y-81405203D01*
X67068500Y-80051866D01*
X67061745Y-79989684D01*
X67010615Y-79853295D01*
X66923261Y-79736739D01*
X66806705Y-79649385D01*
X66670316Y-79598255D01*
X66608134Y-79591500D01*
X64811866Y-79591500D01*
X64749684Y-79598255D01*
X64613295Y-79649385D01*
X64496739Y-79736739D01*
X64409385Y-79853295D01*
X64406233Y-79861703D01*
X64406232Y-79861705D01*
X64364722Y-79972433D01*
X64322081Y-80029198D01*
X64255519Y-80053898D01*
X64186170Y-80038691D01*
X64153546Y-80013004D01*
X64102799Y-79957234D01*
X64095273Y-79950215D01*
X63928139Y-79818222D01*
X63919552Y-79812517D01*
X63733117Y-79709599D01*
X63723705Y-79705369D01*
X63522959Y-79634280D01*
X63512988Y-79631646D01*
X63441837Y-79618972D01*
X63428540Y-79620432D01*
X63424000Y-79634989D01*
X63424000Y-82268517D01*
X62916000Y-82268517D01*
X62916000Y-81222115D01*
X62911525Y-81206876D01*
X62910135Y-81205671D01*
X62902452Y-81204000D01*
X61853225Y-81204000D01*
X61839694Y-81207973D01*
X61838257Y-81217966D01*
X57641000Y-81217966D01*
X57641000Y-80684183D01*
X61834389Y-80684183D01*
X61835912Y-80692607D01*
X61848292Y-80696000D01*
X62897885Y-80696000D01*
X62913124Y-80691525D01*
X62914329Y-80690135D01*
X62916000Y-80682452D01*
X62916000Y-79633102D01*
X62912082Y-79619758D01*
X62897806Y-79617771D01*
X62859324Y-79623660D01*
X62849288Y-79626051D01*
X62646868Y-79692212D01*
X62637359Y-79696209D01*
X62448463Y-79794542D01*
X62439738Y-79800036D01*
X62269433Y-79927905D01*
X62261726Y-79934748D01*
X62114590Y-80088717D01*
X62108104Y-80096727D01*
X61988098Y-80272649D01*
X61983000Y-80281623D01*
X61893338Y-80474783D01*
X61889775Y-80484470D01*
X61834389Y-80684183D01*
X57641000Y-80684183D01*
X57641000Y-72958134D01*
X69431500Y-72958134D01*
X69438255Y-73020316D01*
X69489385Y-73156705D01*
X69576739Y-73273261D01*
X69693295Y-73360615D01*
X69829684Y-73411745D01*
X69891866Y-73418500D01*
X71688134Y-73418500D01*
X71750316Y-73411745D01*
X71886705Y-73360615D01*
X72003261Y-73273261D01*
X72090615Y-73156705D01*
X72126595Y-73060729D01*
X72134598Y-73039382D01*
X72177240Y-72982618D01*
X72243802Y-72957918D01*
X72313150Y-72973126D01*
X72347817Y-73001114D01*
X72376250Y-73033938D01*
X72548126Y-73176632D01*
X72741000Y-73289338D01*
X72949692Y-73369030D01*
X72954760Y-73370061D01*
X72954763Y-73370062D01*
X73062017Y-73391883D01*
X73168597Y-73413567D01*
X73173772Y-73413757D01*
X73173774Y-73413757D01*
X73386673Y-73421564D01*
X73386677Y-73421564D01*
X73391837Y-73421753D01*
X73396957Y-73421097D01*
X73396959Y-73421097D01*
X73608288Y-73394025D01*
X73608289Y-73394025D01*
X73613416Y-73393368D01*
X73618366Y-73391883D01*
X73822429Y-73330661D01*
X73822434Y-73330659D01*
X73827384Y-73329174D01*
X74027994Y-73230896D01*
X74209860Y-73101173D01*
X74262727Y-73048491D01*
X74310647Y-73000738D01*
X74368096Y-72943489D01*
X74380157Y-72926705D01*
X74498453Y-72762077D01*
X74499776Y-72763028D01*
X74546645Y-72719857D01*
X74616580Y-72707625D01*
X74682026Y-72735144D01*
X74709875Y-72766994D01*
X74769987Y-72865088D01*
X74916250Y-73033938D01*
X75088126Y-73176632D01*
X75281000Y-73289338D01*
X75489692Y-73369030D01*
X75494760Y-73370061D01*
X75494763Y-73370062D01*
X75602017Y-73391883D01*
X75708597Y-73413567D01*
X75713772Y-73413757D01*
X75713774Y-73413757D01*
X75926673Y-73421564D01*
X75926677Y-73421564D01*
X75931837Y-73421753D01*
X75936957Y-73421097D01*
X75936959Y-73421097D01*
X76148288Y-73394025D01*
X76148289Y-73394025D01*
X76153416Y-73393368D01*
X76158366Y-73391883D01*
X76362429Y-73330661D01*
X76362434Y-73330659D01*
X76367384Y-73329174D01*
X76567994Y-73230896D01*
X76749860Y-73101173D01*
X76802727Y-73048491D01*
X76850647Y-73000738D01*
X76908096Y-72943489D01*
X76920157Y-72926705D01*
X77035435Y-72766277D01*
X77038453Y-72762077D01*
X77055229Y-72728134D01*
X81174000Y-72728134D01*
X81180755Y-72790316D01*
X81231885Y-72926705D01*
X81319239Y-73043261D01*
X81435795Y-73130615D01*
X81572184Y-73181745D01*
X81634366Y-73188500D01*
X83430634Y-73188500D01*
X83492816Y-73181745D01*
X83629205Y-73130615D01*
X83745761Y-73043261D01*
X83833115Y-72926705D01*
X83853933Y-72871173D01*
X83877298Y-72808848D01*
X83919940Y-72752084D01*
X83986501Y-72727384D01*
X84055850Y-72742592D01*
X84090517Y-72770580D01*
X84115718Y-72799673D01*
X84123080Y-72806883D01*
X84286934Y-72942916D01*
X84295381Y-72948831D01*
X84479256Y-73056279D01*
X84488542Y-73060729D01*
X84687501Y-73136703D01*
X84697399Y-73139579D01*
X84800750Y-73160606D01*
X84814799Y-73159410D01*
X84818500Y-73149065D01*
X84818500Y-73148517D01*
X85326500Y-73148517D01*
X85330564Y-73162359D01*
X85343978Y-73164393D01*
X85350684Y-73163534D01*
X85360762Y-73161392D01*
X85564755Y-73100191D01*
X85574342Y-73096433D01*
X85765595Y-73002739D01*
X85774445Y-72997464D01*
X85947828Y-72873792D01*
X85955700Y-72867139D01*
X86106552Y-72716812D01*
X86113230Y-72708965D01*
X86240522Y-72531819D01*
X86241779Y-72532722D01*
X86288873Y-72489362D01*
X86358811Y-72477145D01*
X86424251Y-72504678D01*
X86452079Y-72536511D01*
X86512487Y-72635088D01*
X86658750Y-72803938D01*
X86830626Y-72946632D01*
X86914684Y-72995751D01*
X86916570Y-72996853D01*
X86965294Y-73048491D01*
X86979000Y-73105641D01*
X86979000Y-76271115D01*
X86958998Y-76339236D01*
X86925272Y-76374327D01*
X86808200Y-76456302D01*
X86646302Y-76618200D01*
X86514977Y-76805751D01*
X86512654Y-76810733D01*
X86512651Y-76810738D01*
X86420539Y-77008275D01*
X86418216Y-77013257D01*
X86416794Y-77018565D01*
X86416793Y-77018567D01*
X86395519Y-77097961D01*
X86358957Y-77234413D01*
X86339002Y-77462500D01*
X86358957Y-77690587D01*
X86360381Y-77695900D01*
X86360381Y-77695902D01*
X86397525Y-77834522D01*
X86418216Y-77911743D01*
X86420539Y-77916724D01*
X86420539Y-77916725D01*
X86512651Y-78114262D01*
X86512654Y-78114267D01*
X86514977Y-78119249D01*
X86646302Y-78306800D01*
X86808200Y-78468698D01*
X86812708Y-78471855D01*
X86812711Y-78471857D01*
X86890889Y-78526598D01*
X86995751Y-78600023D01*
X87000733Y-78602346D01*
X87000738Y-78602349D01*
X87197265Y-78693990D01*
X87203257Y-78696784D01*
X87208565Y-78698206D01*
X87208567Y-78698207D01*
X87419098Y-78754619D01*
X87419100Y-78754619D01*
X87424413Y-78756043D01*
X87652500Y-78775998D01*
X87880587Y-78756043D01*
X87885900Y-78754619D01*
X87885902Y-78754619D01*
X88096433Y-78698207D01*
X88096435Y-78698206D01*
X88101743Y-78696784D01*
X88107735Y-78693990D01*
X88304262Y-78602349D01*
X88304267Y-78602346D01*
X88309249Y-78600023D01*
X88382743Y-78548562D01*
X91930993Y-78548562D01*
X91940289Y-78560577D01*
X91991494Y-78596431D01*
X92000989Y-78601914D01*
X92198447Y-78693990D01*
X92208739Y-78697736D01*
X92419188Y-78754125D01*
X92429981Y-78756028D01*
X92647025Y-78775017D01*
X92657975Y-78775017D01*
X92875019Y-78756028D01*
X92885812Y-78754125D01*
X93096261Y-78697736D01*
X93106553Y-78693990D01*
X93304011Y-78601914D01*
X93313506Y-78596431D01*
X93365548Y-78559991D01*
X93373924Y-78549512D01*
X93366856Y-78536066D01*
X92665312Y-77834522D01*
X92651368Y-77826908D01*
X92649535Y-77827039D01*
X92642920Y-77831290D01*
X91937423Y-78536787D01*
X91930993Y-78548562D01*
X88382743Y-78548562D01*
X88414111Y-78526598D01*
X88492289Y-78471857D01*
X88492292Y-78471855D01*
X88496800Y-78468698D01*
X88658698Y-78306800D01*
X88790023Y-78119249D01*
X88792346Y-78114267D01*
X88792349Y-78114262D01*
X88884461Y-77916725D01*
X88884461Y-77916724D01*
X88886784Y-77911743D01*
X88907476Y-77834522D01*
X88944619Y-77695902D01*
X88944619Y-77695900D01*
X88946043Y-77690587D01*
X88965519Y-77467975D01*
X91339983Y-77467975D01*
X91358972Y-77685019D01*
X91360875Y-77695812D01*
X91417264Y-77906261D01*
X91421010Y-77916553D01*
X91513086Y-78114011D01*
X91518569Y-78123506D01*
X91555009Y-78175548D01*
X91565488Y-78183924D01*
X91578934Y-78176856D01*
X92280478Y-77475312D01*
X92286856Y-77463632D01*
X93016908Y-77463632D01*
X93017039Y-77465465D01*
X93021290Y-77472080D01*
X93726787Y-78177577D01*
X93738562Y-78184007D01*
X93750577Y-78174711D01*
X93786431Y-78123506D01*
X93791914Y-78114011D01*
X93883990Y-77916553D01*
X93887736Y-77906261D01*
X93944125Y-77695812D01*
X93946028Y-77685019D01*
X93965017Y-77467975D01*
X93965017Y-77457025D01*
X93946028Y-77239981D01*
X93944125Y-77229188D01*
X93887736Y-77018739D01*
X93883990Y-77008447D01*
X93791914Y-76810989D01*
X93786431Y-76801494D01*
X93749991Y-76749452D01*
X93739512Y-76741076D01*
X93726066Y-76748144D01*
X93024522Y-77449688D01*
X93016908Y-77463632D01*
X92286856Y-77463632D01*
X92288092Y-77461368D01*
X92287961Y-77459535D01*
X92283710Y-77452920D01*
X91578213Y-76747423D01*
X91566438Y-76740993D01*
X91554423Y-76750289D01*
X91518569Y-76801494D01*
X91513086Y-76810989D01*
X91421010Y-77008447D01*
X91417264Y-77018739D01*
X91360875Y-77229188D01*
X91358972Y-77239981D01*
X91339983Y-77457025D01*
X91339983Y-77467975D01*
X88965519Y-77467975D01*
X88965998Y-77462500D01*
X88946043Y-77234413D01*
X88909481Y-77097961D01*
X88888207Y-77018567D01*
X88888206Y-77018565D01*
X88886784Y-77013257D01*
X88884461Y-77008275D01*
X88792349Y-76810738D01*
X88792346Y-76810733D01*
X88790023Y-76805751D01*
X88658698Y-76618200D01*
X88496800Y-76456302D01*
X88492292Y-76453145D01*
X88492289Y-76453143D01*
X88381387Y-76375488D01*
X91931076Y-76375488D01*
X91938144Y-76388934D01*
X92639688Y-77090478D01*
X92653632Y-77098092D01*
X92655465Y-77097961D01*
X92662080Y-77093710D01*
X93367577Y-76388213D01*
X93374007Y-76376438D01*
X93364711Y-76364423D01*
X93313506Y-76328569D01*
X93304011Y-76323086D01*
X93106553Y-76231010D01*
X93096261Y-76227264D01*
X92885812Y-76170875D01*
X92875019Y-76168972D01*
X92657975Y-76149983D01*
X92647025Y-76149983D01*
X92429981Y-76168972D01*
X92419188Y-76170875D01*
X92208739Y-76227264D01*
X92198447Y-76231010D01*
X92000989Y-76323086D01*
X91991494Y-76328569D01*
X91939452Y-76365009D01*
X91931076Y-76375488D01*
X88381387Y-76375488D01*
X88313757Y-76328133D01*
X88313753Y-76328130D01*
X88309249Y-76324977D01*
X88308099Y-76324441D01*
X88260008Y-76274008D01*
X88246000Y-76216268D01*
X88246000Y-74549200D01*
X99590102Y-74549200D01*
X99610057Y-74777287D01*
X99611481Y-74782600D01*
X99611481Y-74782602D01*
X99659014Y-74959994D01*
X99669316Y-74998443D01*
X99671639Y-75003424D01*
X99671639Y-75003425D01*
X99763751Y-75200962D01*
X99763754Y-75200967D01*
X99766077Y-75205949D01*
X99897402Y-75393500D01*
X100059300Y-75555398D01*
X100063808Y-75558555D01*
X100063811Y-75558557D01*
X100126630Y-75602543D01*
X100246851Y-75686723D01*
X100251833Y-75689046D01*
X100251838Y-75689049D01*
X100448365Y-75780690D01*
X100454357Y-75783484D01*
X100459665Y-75784906D01*
X100459667Y-75784907D01*
X100670198Y-75841319D01*
X100670200Y-75841319D01*
X100675513Y-75842743D01*
X100903600Y-75862698D01*
X101131687Y-75842743D01*
X101137000Y-75841319D01*
X101137002Y-75841319D01*
X101347533Y-75784907D01*
X101347535Y-75784906D01*
X101352843Y-75783484D01*
X101358835Y-75780690D01*
X101555362Y-75689049D01*
X101555367Y-75689046D01*
X101560349Y-75686723D01*
X101633843Y-75635262D01*
X105182093Y-75635262D01*
X105191389Y-75647277D01*
X105242594Y-75683131D01*
X105252089Y-75688614D01*
X105449547Y-75780690D01*
X105459839Y-75784436D01*
X105670288Y-75840825D01*
X105681081Y-75842728D01*
X105898125Y-75861717D01*
X105909075Y-75861717D01*
X106126119Y-75842728D01*
X106136912Y-75840825D01*
X106347361Y-75784436D01*
X106357653Y-75780690D01*
X106555111Y-75688614D01*
X106564606Y-75683131D01*
X106616648Y-75646691D01*
X106625024Y-75636212D01*
X106617956Y-75622766D01*
X105916412Y-74921222D01*
X105902468Y-74913608D01*
X105900635Y-74913739D01*
X105894020Y-74917990D01*
X105188523Y-75623487D01*
X105182093Y-75635262D01*
X101633843Y-75635262D01*
X101680570Y-75602543D01*
X101743389Y-75558557D01*
X101743392Y-75558555D01*
X101747900Y-75555398D01*
X101909798Y-75393500D01*
X102041123Y-75205949D01*
X102043446Y-75200967D01*
X102043449Y-75200962D01*
X102135561Y-75003425D01*
X102135561Y-75003424D01*
X102137884Y-74998443D01*
X102148187Y-74959994D01*
X102195719Y-74782602D01*
X102195719Y-74782600D01*
X102197143Y-74777287D01*
X102216619Y-74554675D01*
X104591083Y-74554675D01*
X104610072Y-74771719D01*
X104611975Y-74782512D01*
X104668364Y-74992961D01*
X104672110Y-75003253D01*
X104764186Y-75200711D01*
X104769669Y-75210206D01*
X104806109Y-75262248D01*
X104816588Y-75270624D01*
X104830034Y-75263556D01*
X105531578Y-74562012D01*
X105537956Y-74550332D01*
X106268008Y-74550332D01*
X106268139Y-74552165D01*
X106272390Y-74558780D01*
X106977887Y-75264277D01*
X106989662Y-75270707D01*
X107001677Y-75261411D01*
X107037531Y-75210206D01*
X107043014Y-75200711D01*
X107135090Y-75003253D01*
X107138836Y-74992961D01*
X107195225Y-74782512D01*
X107197128Y-74771719D01*
X107216117Y-74554675D01*
X107216117Y-74543725D01*
X107197128Y-74326681D01*
X107195225Y-74315888D01*
X107138836Y-74105439D01*
X107135090Y-74095147D01*
X107043014Y-73897689D01*
X107037531Y-73888194D01*
X107001091Y-73836152D01*
X106990612Y-73827776D01*
X106977166Y-73834844D01*
X106275622Y-74536388D01*
X106268008Y-74550332D01*
X105537956Y-74550332D01*
X105539192Y-74548068D01*
X105539061Y-74546235D01*
X105534810Y-74539620D01*
X104829313Y-73834123D01*
X104817538Y-73827693D01*
X104805523Y-73836989D01*
X104769669Y-73888194D01*
X104764186Y-73897689D01*
X104672110Y-74095147D01*
X104668364Y-74105439D01*
X104611975Y-74315888D01*
X104610072Y-74326681D01*
X104591083Y-74543725D01*
X104591083Y-74554675D01*
X102216619Y-74554675D01*
X102217098Y-74549200D01*
X102197143Y-74321113D01*
X102160581Y-74184661D01*
X102139307Y-74105267D01*
X102139306Y-74105265D01*
X102137884Y-74099957D01*
X102043566Y-73897689D01*
X102043449Y-73897438D01*
X102043446Y-73897433D01*
X102041123Y-73892451D01*
X101909798Y-73704900D01*
X101747900Y-73543002D01*
X101743392Y-73539845D01*
X101743389Y-73539843D01*
X101632486Y-73462188D01*
X105182176Y-73462188D01*
X105189244Y-73475634D01*
X105890788Y-74177178D01*
X105904732Y-74184792D01*
X105906565Y-74184661D01*
X105913180Y-74180410D01*
X106441090Y-73652500D01*
X120589002Y-73652500D01*
X120608957Y-73880587D01*
X120610381Y-73885900D01*
X120610381Y-73885902D01*
X120666449Y-74095147D01*
X120668216Y-74101743D01*
X120670539Y-74106724D01*
X120670539Y-74106725D01*
X120762651Y-74304262D01*
X120762654Y-74304267D01*
X120764977Y-74309249D01*
X120896302Y-74496800D01*
X121058200Y-74658698D01*
X121062708Y-74661855D01*
X121062711Y-74661857D01*
X121140889Y-74716598D01*
X121245751Y-74790023D01*
X121250733Y-74792346D01*
X121250738Y-74792349D01*
X121448275Y-74884461D01*
X121453257Y-74886784D01*
X121458565Y-74888206D01*
X121458567Y-74888207D01*
X121669098Y-74944619D01*
X121669100Y-74944619D01*
X121674413Y-74946043D01*
X121902500Y-74965998D01*
X122130587Y-74946043D01*
X122135900Y-74944619D01*
X122135902Y-74944619D01*
X122346433Y-74888207D01*
X122346435Y-74888206D01*
X122351743Y-74886784D01*
X122356725Y-74884461D01*
X122554262Y-74792349D01*
X122554267Y-74792346D01*
X122559249Y-74790023D01*
X122664111Y-74716598D01*
X122742289Y-74661857D01*
X122742292Y-74661855D01*
X122746800Y-74658698D01*
X122908698Y-74496800D01*
X123040023Y-74309249D01*
X123042346Y-74304267D01*
X123042349Y-74304262D01*
X123134461Y-74106725D01*
X123134461Y-74106724D01*
X123136784Y-74101743D01*
X123138552Y-74095147D01*
X123194619Y-73885902D01*
X123194619Y-73885900D01*
X123196043Y-73880587D01*
X123215998Y-73652500D01*
X130749002Y-73652500D01*
X130768957Y-73880587D01*
X130770381Y-73885900D01*
X130770381Y-73885902D01*
X130826449Y-74095147D01*
X130828216Y-74101743D01*
X130830539Y-74106724D01*
X130830539Y-74106725D01*
X130922651Y-74304262D01*
X130922654Y-74304267D01*
X130924977Y-74309249D01*
X131056302Y-74496800D01*
X131218200Y-74658698D01*
X131222708Y-74661855D01*
X131222711Y-74661857D01*
X131300889Y-74716598D01*
X131405751Y-74790023D01*
X131410733Y-74792346D01*
X131410738Y-74792349D01*
X131608275Y-74884461D01*
X131613257Y-74886784D01*
X131618565Y-74888206D01*
X131618567Y-74888207D01*
X131829098Y-74944619D01*
X131829100Y-74944619D01*
X131834413Y-74946043D01*
X132062500Y-74965998D01*
X132290587Y-74946043D01*
X132295900Y-74944619D01*
X132295902Y-74944619D01*
X132506433Y-74888207D01*
X132506435Y-74888206D01*
X132511743Y-74886784D01*
X132516725Y-74884461D01*
X132714262Y-74792349D01*
X132714267Y-74792346D01*
X132719249Y-74790023D01*
X132824111Y-74716598D01*
X132902289Y-74661857D01*
X132902292Y-74661855D01*
X132906800Y-74658698D01*
X133068698Y-74496800D01*
X133200023Y-74309249D01*
X133202346Y-74304267D01*
X133202349Y-74304262D01*
X133294461Y-74106725D01*
X133294461Y-74106724D01*
X133296784Y-74101743D01*
X133298552Y-74095147D01*
X133354619Y-73885902D01*
X133354619Y-73885900D01*
X133356043Y-73880587D01*
X133375998Y-73652500D01*
X133356043Y-73424413D01*
X133352649Y-73411745D01*
X133298207Y-73208567D01*
X133298206Y-73208565D01*
X133296784Y-73203257D01*
X133278662Y-73164393D01*
X133202349Y-73000738D01*
X133202346Y-73000733D01*
X133200023Y-72995751D01*
X133068698Y-72808200D01*
X132906800Y-72646302D01*
X132902292Y-72643145D01*
X132902289Y-72643143D01*
X132792764Y-72566453D01*
X132719249Y-72514977D01*
X132714267Y-72512654D01*
X132714262Y-72512651D01*
X132516725Y-72420539D01*
X132516724Y-72420539D01*
X132511743Y-72418216D01*
X132506435Y-72416794D01*
X132506433Y-72416793D01*
X132295902Y-72360381D01*
X132295900Y-72360381D01*
X132290587Y-72358957D01*
X132062500Y-72339002D01*
X131834413Y-72358957D01*
X131829100Y-72360381D01*
X131829098Y-72360381D01*
X131618567Y-72416793D01*
X131618565Y-72416794D01*
X131613257Y-72418216D01*
X131608276Y-72420539D01*
X131608275Y-72420539D01*
X131410738Y-72512651D01*
X131410733Y-72512654D01*
X131405751Y-72514977D01*
X131332236Y-72566453D01*
X131222711Y-72643143D01*
X131222708Y-72643145D01*
X131218200Y-72646302D01*
X131056302Y-72808200D01*
X130924977Y-72995751D01*
X130922654Y-73000733D01*
X130922651Y-73000738D01*
X130846338Y-73164393D01*
X130828216Y-73203257D01*
X130826794Y-73208565D01*
X130826793Y-73208567D01*
X130772351Y-73411745D01*
X130768957Y-73424413D01*
X130749002Y-73652500D01*
X123215998Y-73652500D01*
X123196043Y-73424413D01*
X123192649Y-73411745D01*
X123138207Y-73208567D01*
X123138206Y-73208565D01*
X123136784Y-73203257D01*
X123118662Y-73164393D01*
X123042349Y-73000738D01*
X123042346Y-73000733D01*
X123040023Y-72995751D01*
X122908698Y-72808200D01*
X122746800Y-72646302D01*
X122742292Y-72643145D01*
X122742289Y-72643143D01*
X122632764Y-72566453D01*
X122559249Y-72514977D01*
X122554267Y-72512654D01*
X122554262Y-72512651D01*
X122356725Y-72420539D01*
X122356724Y-72420539D01*
X122351743Y-72418216D01*
X122346435Y-72416794D01*
X122346433Y-72416793D01*
X122135902Y-72360381D01*
X122135900Y-72360381D01*
X122130587Y-72358957D01*
X121902500Y-72339002D01*
X121674413Y-72358957D01*
X121669100Y-72360381D01*
X121669098Y-72360381D01*
X121458567Y-72416793D01*
X121458565Y-72416794D01*
X121453257Y-72418216D01*
X121448276Y-72420539D01*
X121448275Y-72420539D01*
X121250738Y-72512651D01*
X121250733Y-72512654D01*
X121245751Y-72514977D01*
X121172236Y-72566453D01*
X121062711Y-72643143D01*
X121062708Y-72643145D01*
X121058200Y-72646302D01*
X120896302Y-72808200D01*
X120764977Y-72995751D01*
X120762654Y-73000733D01*
X120762651Y-73000738D01*
X120686338Y-73164393D01*
X120668216Y-73203257D01*
X120666794Y-73208565D01*
X120666793Y-73208567D01*
X120612351Y-73411745D01*
X120608957Y-73424413D01*
X120589002Y-73652500D01*
X106441090Y-73652500D01*
X106618677Y-73474913D01*
X106625107Y-73463138D01*
X106615811Y-73451123D01*
X106564606Y-73415269D01*
X106555111Y-73409786D01*
X106357653Y-73317710D01*
X106347361Y-73313964D01*
X106136912Y-73257575D01*
X106126119Y-73255672D01*
X105909075Y-73236683D01*
X105898125Y-73236683D01*
X105681081Y-73255672D01*
X105670288Y-73257575D01*
X105459839Y-73313964D01*
X105449547Y-73317710D01*
X105252089Y-73409786D01*
X105242594Y-73415269D01*
X105190552Y-73451709D01*
X105182176Y-73462188D01*
X101632486Y-73462188D01*
X101617520Y-73451709D01*
X101560349Y-73411677D01*
X101555367Y-73409354D01*
X101555362Y-73409351D01*
X101357825Y-73317239D01*
X101357824Y-73317239D01*
X101352843Y-73314916D01*
X101347535Y-73313494D01*
X101347533Y-73313493D01*
X101137002Y-73257081D01*
X101137000Y-73257081D01*
X101131687Y-73255657D01*
X100903600Y-73235702D01*
X100675513Y-73255657D01*
X100670200Y-73257081D01*
X100670198Y-73257081D01*
X100459667Y-73313493D01*
X100459665Y-73313494D01*
X100454357Y-73314916D01*
X100449376Y-73317239D01*
X100449375Y-73317239D01*
X100251838Y-73409351D01*
X100251833Y-73409354D01*
X100246851Y-73411677D01*
X100189680Y-73451709D01*
X100063811Y-73539843D01*
X100063808Y-73539845D01*
X100059300Y-73543002D01*
X99897402Y-73704900D01*
X99766077Y-73892451D01*
X99763754Y-73897433D01*
X99763751Y-73897438D01*
X99763634Y-73897689D01*
X99669316Y-74099957D01*
X99667894Y-74105265D01*
X99667893Y-74105267D01*
X99646619Y-74184661D01*
X99610057Y-74321113D01*
X99590102Y-74549200D01*
X88246000Y-74549200D01*
X88246000Y-73110427D01*
X88266002Y-73042306D01*
X88307118Y-73002550D01*
X88310494Y-73000896D01*
X88492360Y-72871173D01*
X88498467Y-72865088D01*
X88597623Y-72766277D01*
X88650596Y-72713489D01*
X88698875Y-72646302D01*
X88777935Y-72536277D01*
X88780953Y-72532077D01*
X88789405Y-72514977D01*
X88877636Y-72336453D01*
X88877637Y-72336451D01*
X88879930Y-72331811D01*
X88944870Y-72118069D01*
X88974029Y-71896590D01*
X88975656Y-71830000D01*
X88957352Y-71607361D01*
X88902931Y-71390702D01*
X88813854Y-71185840D01*
X88744223Y-71078207D01*
X88695322Y-71002617D01*
X88695320Y-71002614D01*
X88692514Y-70998277D01*
X88542170Y-70833051D01*
X88538119Y-70829852D01*
X88538115Y-70829848D01*
X88370914Y-70697800D01*
X88370910Y-70697798D01*
X88366859Y-70694598D01*
X88359793Y-70690697D01*
X88314636Y-70665769D01*
X88171289Y-70586638D01*
X88166420Y-70584914D01*
X88166416Y-70584912D01*
X87965587Y-70513795D01*
X87965583Y-70513794D01*
X87960712Y-70512069D01*
X87955619Y-70511162D01*
X87955616Y-70511161D01*
X87745873Y-70473800D01*
X87745867Y-70473799D01*
X87740784Y-70472894D01*
X87666952Y-70471992D01*
X87522581Y-70470228D01*
X87522579Y-70470228D01*
X87517411Y-70470165D01*
X87296591Y-70503955D01*
X87084256Y-70573357D01*
X86886107Y-70676507D01*
X86881974Y-70679610D01*
X86881971Y-70679612D01*
X86717158Y-70803357D01*
X86707465Y-70810635D01*
X86699340Y-70819137D01*
X86561580Y-70963295D01*
X86553129Y-70972138D01*
X86550215Y-70976410D01*
X86550214Y-70976411D01*
X86503854Y-71044373D01*
X86478021Y-71082243D01*
X86445398Y-71130066D01*
X86390487Y-71175069D01*
X86319962Y-71183240D01*
X86256215Y-71151986D01*
X86235518Y-71127502D01*
X86154926Y-71002926D01*
X86148636Y-70994757D01*
X86005306Y-70837240D01*
X85997773Y-70830215D01*
X85830639Y-70698222D01*
X85822052Y-70692517D01*
X85635617Y-70589599D01*
X85626205Y-70585369D01*
X85425459Y-70514280D01*
X85415488Y-70511646D01*
X85344337Y-70498972D01*
X85331040Y-70500432D01*
X85326500Y-70514989D01*
X85326500Y-73148517D01*
X84818500Y-73148517D01*
X84818500Y-70513102D01*
X84814582Y-70499758D01*
X84800306Y-70497771D01*
X84761824Y-70503660D01*
X84751788Y-70506051D01*
X84549368Y-70572212D01*
X84539859Y-70576209D01*
X84350963Y-70674542D01*
X84342238Y-70680036D01*
X84171933Y-70807905D01*
X84164226Y-70814748D01*
X84086978Y-70895584D01*
X84025454Y-70931014D01*
X83954542Y-70927557D01*
X83896755Y-70886311D01*
X83877902Y-70852763D01*
X83836267Y-70741703D01*
X83833115Y-70733295D01*
X83745761Y-70616739D01*
X83629205Y-70529385D01*
X83492816Y-70478255D01*
X83430634Y-70471500D01*
X81634366Y-70471500D01*
X81572184Y-70478255D01*
X81435795Y-70529385D01*
X81319239Y-70616739D01*
X81231885Y-70733295D01*
X81180755Y-70869684D01*
X81174000Y-70931866D01*
X81174000Y-72728134D01*
X77055229Y-72728134D01*
X77055600Y-72727384D01*
X77135136Y-72566453D01*
X77135137Y-72566451D01*
X77137430Y-72561811D01*
X77199062Y-72358957D01*
X77200865Y-72353023D01*
X77200865Y-72353021D01*
X77202370Y-72348069D01*
X77231529Y-72126590D01*
X77233156Y-72060000D01*
X77214852Y-71837361D01*
X77160431Y-71620702D01*
X77071354Y-71415840D01*
X76950014Y-71228277D01*
X76799670Y-71063051D01*
X76795619Y-71059852D01*
X76795615Y-71059848D01*
X76628414Y-70927800D01*
X76628410Y-70927798D01*
X76624359Y-70924598D01*
X76428789Y-70816638D01*
X76423920Y-70814914D01*
X76423916Y-70814912D01*
X76223087Y-70743795D01*
X76223083Y-70743794D01*
X76218212Y-70742069D01*
X76213119Y-70741162D01*
X76213116Y-70741161D01*
X76003373Y-70703800D01*
X76003367Y-70703799D01*
X75998284Y-70702894D01*
X75924452Y-70701992D01*
X75780081Y-70700228D01*
X75780079Y-70700228D01*
X75774911Y-70700165D01*
X75554091Y-70733955D01*
X75341756Y-70803357D01*
X75311443Y-70819137D01*
X75228557Y-70862285D01*
X75143607Y-70906507D01*
X75139474Y-70909610D01*
X75139471Y-70909612D01*
X74969100Y-71037530D01*
X74964965Y-71040635D01*
X74961393Y-71044373D01*
X74821665Y-71190590D01*
X74810629Y-71202138D01*
X74703201Y-71359621D01*
X74648293Y-71404621D01*
X74577768Y-71412792D01*
X74514021Y-71381538D01*
X74493324Y-71357054D01*
X74412822Y-71232617D01*
X74412820Y-71232614D01*
X74410014Y-71228277D01*
X74259670Y-71063051D01*
X74255619Y-71059852D01*
X74255615Y-71059848D01*
X74088414Y-70927800D01*
X74088410Y-70927798D01*
X74084359Y-70924598D01*
X73888789Y-70816638D01*
X73883920Y-70814914D01*
X73883916Y-70814912D01*
X73683087Y-70743795D01*
X73683083Y-70743794D01*
X73678212Y-70742069D01*
X73673119Y-70741162D01*
X73673116Y-70741161D01*
X73463373Y-70703800D01*
X73463367Y-70703799D01*
X73458284Y-70702894D01*
X73384452Y-70701992D01*
X73240081Y-70700228D01*
X73240079Y-70700228D01*
X73234911Y-70700165D01*
X73014091Y-70733955D01*
X72801756Y-70803357D01*
X72771443Y-70819137D01*
X72688557Y-70862285D01*
X72603607Y-70906507D01*
X72599474Y-70909610D01*
X72599471Y-70909612D01*
X72429100Y-71037530D01*
X72424965Y-71040635D01*
X72368537Y-71099684D01*
X72344283Y-71125064D01*
X72282759Y-71160494D01*
X72211846Y-71157037D01*
X72154060Y-71115791D01*
X72135207Y-71082243D01*
X72093767Y-70971703D01*
X72090615Y-70963295D01*
X72003261Y-70846739D01*
X71886705Y-70759385D01*
X71750316Y-70708255D01*
X71688134Y-70701500D01*
X69891866Y-70701500D01*
X69829684Y-70708255D01*
X69693295Y-70759385D01*
X69576739Y-70846739D01*
X69489385Y-70963295D01*
X69438255Y-71099684D01*
X69431500Y-71161866D01*
X69431500Y-72958134D01*
X57641000Y-72958134D01*
X57641000Y-69842500D01*
X120589002Y-69842500D01*
X120608957Y-70070587D01*
X120668216Y-70291743D01*
X120670539Y-70296724D01*
X120670539Y-70296725D01*
X120762651Y-70494262D01*
X120762654Y-70494267D01*
X120764977Y-70499249D01*
X120828241Y-70589599D01*
X120891566Y-70680036D01*
X120896302Y-70686800D01*
X121058200Y-70848698D01*
X121062708Y-70851855D01*
X121062711Y-70851857D01*
X121111917Y-70886311D01*
X121245751Y-70980023D01*
X121250733Y-70982346D01*
X121250738Y-70982349D01*
X121416937Y-71059848D01*
X121453257Y-71076784D01*
X121458565Y-71078206D01*
X121458567Y-71078207D01*
X121669098Y-71134619D01*
X121669100Y-71134619D01*
X121674413Y-71136043D01*
X121902500Y-71155998D01*
X122130587Y-71136043D01*
X122135900Y-71134619D01*
X122135902Y-71134619D01*
X122346433Y-71078207D01*
X122346435Y-71078206D01*
X122351743Y-71076784D01*
X122388063Y-71059848D01*
X122554262Y-70982349D01*
X122554267Y-70982346D01*
X122559249Y-70980023D01*
X122693083Y-70886311D01*
X122742289Y-70851857D01*
X122742292Y-70851855D01*
X122746800Y-70848698D01*
X122908698Y-70686800D01*
X122913435Y-70680036D01*
X122976759Y-70589599D01*
X123040023Y-70499249D01*
X123042346Y-70494267D01*
X123042349Y-70494262D01*
X123134461Y-70296725D01*
X123134461Y-70296724D01*
X123136784Y-70291743D01*
X123196043Y-70070587D01*
X123215998Y-69842500D01*
X130749002Y-69842500D01*
X130768957Y-70070587D01*
X130828216Y-70291743D01*
X130830539Y-70296724D01*
X130830539Y-70296725D01*
X130922651Y-70494262D01*
X130922654Y-70494267D01*
X130924977Y-70499249D01*
X130988241Y-70589599D01*
X131051566Y-70680036D01*
X131056302Y-70686800D01*
X131218200Y-70848698D01*
X131222708Y-70851855D01*
X131222711Y-70851857D01*
X131271917Y-70886311D01*
X131405751Y-70980023D01*
X131410733Y-70982346D01*
X131410738Y-70982349D01*
X131576937Y-71059848D01*
X131613257Y-71076784D01*
X131618565Y-71078206D01*
X131618567Y-71078207D01*
X131829098Y-71134619D01*
X131829100Y-71134619D01*
X131834413Y-71136043D01*
X132062500Y-71155998D01*
X132290587Y-71136043D01*
X132295900Y-71134619D01*
X132295902Y-71134619D01*
X132506433Y-71078207D01*
X132506435Y-71078206D01*
X132511743Y-71076784D01*
X132548063Y-71059848D01*
X132714262Y-70982349D01*
X132714267Y-70982346D01*
X132719249Y-70980023D01*
X132853083Y-70886311D01*
X132902289Y-70851857D01*
X132902292Y-70851855D01*
X132906800Y-70848698D01*
X133068698Y-70686800D01*
X133073435Y-70680036D01*
X133136759Y-70589599D01*
X133200023Y-70499249D01*
X133202346Y-70494267D01*
X133202349Y-70494262D01*
X133294461Y-70296725D01*
X133294461Y-70296724D01*
X133296784Y-70291743D01*
X133356043Y-70070587D01*
X133375998Y-69842500D01*
X133356043Y-69614413D01*
X133296784Y-69393257D01*
X133294461Y-69388275D01*
X133202349Y-69190738D01*
X133202346Y-69190733D01*
X133200023Y-69185751D01*
X133068698Y-68998200D01*
X132906800Y-68836302D01*
X132902292Y-68833145D01*
X132902289Y-68833143D01*
X132824111Y-68778402D01*
X132719249Y-68704977D01*
X132714267Y-68702654D01*
X132714262Y-68702651D01*
X132516725Y-68610539D01*
X132516724Y-68610539D01*
X132511743Y-68608216D01*
X132506435Y-68606794D01*
X132506433Y-68606793D01*
X132295902Y-68550381D01*
X132295900Y-68550381D01*
X132290587Y-68548957D01*
X132062500Y-68529002D01*
X131834413Y-68548957D01*
X131829100Y-68550381D01*
X131829098Y-68550381D01*
X131618567Y-68606793D01*
X131618565Y-68606794D01*
X131613257Y-68608216D01*
X131608276Y-68610539D01*
X131608275Y-68610539D01*
X131410738Y-68702651D01*
X131410733Y-68702654D01*
X131405751Y-68704977D01*
X131300889Y-68778402D01*
X131222711Y-68833143D01*
X131222708Y-68833145D01*
X131218200Y-68836302D01*
X131056302Y-68998200D01*
X130924977Y-69185751D01*
X130922654Y-69190733D01*
X130922651Y-69190738D01*
X130830539Y-69388275D01*
X130828216Y-69393257D01*
X130768957Y-69614413D01*
X130749002Y-69842500D01*
X123215998Y-69842500D01*
X123196043Y-69614413D01*
X123136784Y-69393257D01*
X123134461Y-69388275D01*
X123042349Y-69190738D01*
X123042346Y-69190733D01*
X123040023Y-69185751D01*
X122908698Y-68998200D01*
X122746800Y-68836302D01*
X122742292Y-68833145D01*
X122742289Y-68833143D01*
X122664111Y-68778402D01*
X122559249Y-68704977D01*
X122554267Y-68702654D01*
X122554262Y-68702651D01*
X122356725Y-68610539D01*
X122356724Y-68610539D01*
X122351743Y-68608216D01*
X122346435Y-68606794D01*
X122346433Y-68606793D01*
X122135902Y-68550381D01*
X122135900Y-68550381D01*
X122130587Y-68548957D01*
X121902500Y-68529002D01*
X121674413Y-68548957D01*
X121669100Y-68550381D01*
X121669098Y-68550381D01*
X121458567Y-68606793D01*
X121458565Y-68606794D01*
X121453257Y-68608216D01*
X121448276Y-68610539D01*
X121448275Y-68610539D01*
X121250738Y-68702651D01*
X121250733Y-68702654D01*
X121245751Y-68704977D01*
X121140889Y-68778402D01*
X121062711Y-68833143D01*
X121062708Y-68833145D01*
X121058200Y-68836302D01*
X120896302Y-68998200D01*
X120764977Y-69185751D01*
X120762654Y-69190733D01*
X120762651Y-69190738D01*
X120670539Y-69388275D01*
X120668216Y-69393257D01*
X120608957Y-69614413D01*
X120589002Y-69842500D01*
X57641000Y-69842500D01*
X57641000Y-67302000D01*
X57661002Y-67233879D01*
X57714658Y-67187386D01*
X57767000Y-67176000D01*
X77443877Y-67176000D01*
X77444648Y-67176002D01*
X77522221Y-67176476D01*
X77550652Y-67168350D01*
X77567415Y-67164772D01*
X77596687Y-67160580D01*
X77620064Y-67149951D01*
X77637587Y-67143504D01*
X77662271Y-67136449D01*
X77669865Y-67131657D01*
X77669868Y-67131656D01*
X77687280Y-67120670D01*
X77702365Y-67112530D01*
X77729282Y-67100292D01*
X77748735Y-67083530D01*
X77763739Y-67072427D01*
X77785458Y-67058724D01*
X77791397Y-67051999D01*
X77791401Y-67051996D01*
X77805032Y-67036562D01*
X77817224Y-67024518D01*
X77832827Y-67011073D01*
X77832829Y-67011070D01*
X77839627Y-67005213D01*
X77853594Y-66983665D01*
X77864885Y-66968791D01*
X77875931Y-66956283D01*
X77875932Y-66956282D01*
X77881878Y-66949549D01*
X77894443Y-66922787D01*
X77902763Y-66907809D01*
X77913971Y-66890517D01*
X77913973Y-66890512D01*
X77918852Y-66882985D01*
X77921422Y-66874392D01*
X77921424Y-66874387D01*
X77926211Y-66858380D01*
X77932872Y-66840936D01*
X77939967Y-66825824D01*
X77939968Y-66825822D01*
X77943781Y-66817700D01*
X77948330Y-66788483D01*
X77952113Y-66771768D01*
X77958015Y-66752034D01*
X77958016Y-66752028D01*
X77960586Y-66743434D01*
X77960796Y-66708994D01*
X77960829Y-66708211D01*
X77961000Y-66707114D01*
X77961000Y-66676123D01*
X77961002Y-66675353D01*
X77961452Y-66601715D01*
X77961452Y-66601714D01*
X77961476Y-66597779D01*
X77961092Y-66596435D01*
X77961000Y-66595090D01*
X77961000Y-64762500D01*
X96469002Y-64762500D01*
X96488957Y-64990587D01*
X96490381Y-64995900D01*
X96490381Y-64995902D01*
X96542429Y-65190144D01*
X96548216Y-65211743D01*
X96550539Y-65216724D01*
X96550539Y-65216725D01*
X96642651Y-65414262D01*
X96642654Y-65414267D01*
X96644977Y-65419249D01*
X96776302Y-65606800D01*
X96938200Y-65768698D01*
X96942708Y-65771855D01*
X96942711Y-65771857D01*
X96997512Y-65810229D01*
X97125751Y-65900023D01*
X97130733Y-65902346D01*
X97130738Y-65902349D01*
X97328275Y-65994461D01*
X97333257Y-65996784D01*
X97338565Y-65998206D01*
X97338567Y-65998207D01*
X97549098Y-66054619D01*
X97549100Y-66054619D01*
X97554413Y-66056043D01*
X97782500Y-66075998D01*
X98010587Y-66056043D01*
X98015900Y-66054619D01*
X98015902Y-66054619D01*
X98226433Y-65998207D01*
X98226435Y-65998206D01*
X98231743Y-65996784D01*
X98236725Y-65994461D01*
X98434262Y-65902349D01*
X98434267Y-65902346D01*
X98439249Y-65900023D01*
X98567488Y-65810229D01*
X98622289Y-65771857D01*
X98622292Y-65771855D01*
X98626800Y-65768698D01*
X98788698Y-65606800D01*
X98920023Y-65419249D01*
X98922346Y-65414267D01*
X98922349Y-65414262D01*
X99014461Y-65216725D01*
X99014461Y-65216724D01*
X99016784Y-65211743D01*
X99022572Y-65190144D01*
X99074619Y-64995902D01*
X99074619Y-64995900D01*
X99076043Y-64990587D01*
X99095998Y-64762500D01*
X109169002Y-64762500D01*
X109188957Y-64990587D01*
X109190381Y-64995900D01*
X109190381Y-64995902D01*
X109242429Y-65190144D01*
X109248216Y-65211743D01*
X109250539Y-65216724D01*
X109250539Y-65216725D01*
X109342651Y-65414262D01*
X109342654Y-65414267D01*
X109344977Y-65419249D01*
X109476302Y-65606800D01*
X109638200Y-65768698D01*
X109642708Y-65771855D01*
X109642711Y-65771857D01*
X109697512Y-65810229D01*
X109825751Y-65900023D01*
X109830733Y-65902346D01*
X109830738Y-65902349D01*
X110028275Y-65994461D01*
X110033257Y-65996784D01*
X110038565Y-65998206D01*
X110038567Y-65998207D01*
X110249098Y-66054619D01*
X110249100Y-66054619D01*
X110254413Y-66056043D01*
X110482500Y-66075998D01*
X110710587Y-66056043D01*
X110715900Y-66054619D01*
X110715902Y-66054619D01*
X110926433Y-65998207D01*
X110926435Y-65998206D01*
X110931743Y-65996784D01*
X110936725Y-65994461D01*
X111134262Y-65902349D01*
X111134267Y-65902346D01*
X111139249Y-65900023D01*
X111267488Y-65810229D01*
X111322289Y-65771857D01*
X111322292Y-65771855D01*
X111326800Y-65768698D01*
X111488698Y-65606800D01*
X111620023Y-65419249D01*
X111622346Y-65414267D01*
X111622349Y-65414262D01*
X111622875Y-65413134D01*
X120544000Y-65413134D01*
X120550755Y-65475316D01*
X120601885Y-65611705D01*
X120689239Y-65728261D01*
X120805795Y-65815615D01*
X120942184Y-65866745D01*
X121004366Y-65873500D01*
X122800634Y-65873500D01*
X122862816Y-65866745D01*
X122999205Y-65815615D01*
X123115761Y-65728261D01*
X123203115Y-65611705D01*
X123225299Y-65552529D01*
X123247098Y-65494382D01*
X123289740Y-65437618D01*
X123356302Y-65412918D01*
X123425650Y-65428126D01*
X123460317Y-65456114D01*
X123488750Y-65488938D01*
X123660626Y-65631632D01*
X123853500Y-65744338D01*
X124062192Y-65824030D01*
X124067260Y-65825061D01*
X124067263Y-65825062D01*
X124162362Y-65844410D01*
X124281097Y-65868567D01*
X124286272Y-65868757D01*
X124286274Y-65868757D01*
X124499173Y-65876564D01*
X124499177Y-65876564D01*
X124504337Y-65876753D01*
X124509457Y-65876097D01*
X124509459Y-65876097D01*
X124720788Y-65849025D01*
X124720789Y-65849025D01*
X124725916Y-65848368D01*
X124730866Y-65846883D01*
X124934929Y-65785661D01*
X124934934Y-65785659D01*
X124939884Y-65784174D01*
X125140494Y-65685896D01*
X125322360Y-65556173D01*
X125480596Y-65398489D01*
X125610953Y-65217077D01*
X125612140Y-65217930D01*
X125659460Y-65174362D01*
X125729397Y-65162145D01*
X125794838Y-65189678D01*
X125822666Y-65221511D01*
X125880194Y-65315388D01*
X125886277Y-65323699D01*
X126025713Y-65484667D01*
X126033080Y-65491883D01*
X126196934Y-65627916D01*
X126205381Y-65633831D01*
X126389256Y-65741279D01*
X126398542Y-65745729D01*
X126597501Y-65821703D01*
X126607399Y-65824579D01*
X126710750Y-65845606D01*
X126724799Y-65844410D01*
X126728500Y-65834065D01*
X126728500Y-65833517D01*
X127236500Y-65833517D01*
X127240564Y-65847359D01*
X127253978Y-65849393D01*
X127260684Y-65848534D01*
X127270762Y-65846392D01*
X127474755Y-65785191D01*
X127484342Y-65781433D01*
X127675595Y-65687739D01*
X127684445Y-65682464D01*
X127857828Y-65558792D01*
X127865700Y-65552139D01*
X128016552Y-65401812D01*
X128023230Y-65393965D01*
X128150522Y-65216819D01*
X128151779Y-65217722D01*
X128198873Y-65174362D01*
X128268811Y-65162145D01*
X128334251Y-65189678D01*
X128362079Y-65221511D01*
X128422487Y-65320088D01*
X128568750Y-65488938D01*
X128740626Y-65631632D01*
X128933500Y-65744338D01*
X129142192Y-65824030D01*
X129147260Y-65825061D01*
X129147263Y-65825062D01*
X129242362Y-65844410D01*
X129361097Y-65868567D01*
X129366272Y-65868757D01*
X129366274Y-65868757D01*
X129579173Y-65876564D01*
X129579177Y-65876564D01*
X129584337Y-65876753D01*
X129589457Y-65876097D01*
X129589459Y-65876097D01*
X129800788Y-65849025D01*
X129800789Y-65849025D01*
X129805916Y-65848368D01*
X129810866Y-65846883D01*
X130014929Y-65785661D01*
X130014934Y-65785659D01*
X130019884Y-65784174D01*
X130220494Y-65685896D01*
X130402360Y-65556173D01*
X130560596Y-65398489D01*
X130690953Y-65217077D01*
X130692276Y-65218028D01*
X130739145Y-65174857D01*
X130809080Y-65162625D01*
X130874526Y-65190144D01*
X130902375Y-65221994D01*
X130962487Y-65320088D01*
X131108750Y-65488938D01*
X131280626Y-65631632D01*
X131473500Y-65744338D01*
X131682192Y-65824030D01*
X131687260Y-65825061D01*
X131687263Y-65825062D01*
X131782362Y-65844410D01*
X131901097Y-65868567D01*
X131906272Y-65868757D01*
X131906274Y-65868757D01*
X132119173Y-65876564D01*
X132119177Y-65876564D01*
X132124337Y-65876753D01*
X132129457Y-65876097D01*
X132129459Y-65876097D01*
X132340788Y-65849025D01*
X132340789Y-65849025D01*
X132345916Y-65848368D01*
X132350866Y-65846883D01*
X132554929Y-65785661D01*
X132554934Y-65785659D01*
X132559884Y-65784174D01*
X132760494Y-65685896D01*
X132942360Y-65556173D01*
X133100596Y-65398489D01*
X133230953Y-65217077D01*
X133232276Y-65218028D01*
X133279145Y-65174857D01*
X133349080Y-65162625D01*
X133414526Y-65190144D01*
X133442375Y-65221994D01*
X133502487Y-65320088D01*
X133648750Y-65488938D01*
X133820626Y-65631632D01*
X134013500Y-65744338D01*
X134222192Y-65824030D01*
X134227260Y-65825061D01*
X134227263Y-65825062D01*
X134322362Y-65844410D01*
X134441097Y-65868567D01*
X134446272Y-65868757D01*
X134446274Y-65868757D01*
X134659173Y-65876564D01*
X134659177Y-65876564D01*
X134664337Y-65876753D01*
X134669457Y-65876097D01*
X134669459Y-65876097D01*
X134880788Y-65849025D01*
X134880789Y-65849025D01*
X134885916Y-65848368D01*
X134890866Y-65846883D01*
X135094929Y-65785661D01*
X135094934Y-65785659D01*
X135099884Y-65784174D01*
X135300494Y-65685896D01*
X135482360Y-65556173D01*
X135640596Y-65398489D01*
X135770953Y-65217077D01*
X135784495Y-65189678D01*
X135867636Y-65021453D01*
X135867637Y-65021451D01*
X135869930Y-65016811D01*
X135934870Y-64803069D01*
X135964029Y-64581590D01*
X135965656Y-64515000D01*
X135947352Y-64292361D01*
X135892931Y-64075702D01*
X135803854Y-63870840D01*
X135729756Y-63756302D01*
X135685322Y-63687617D01*
X135685320Y-63687614D01*
X135682514Y-63683277D01*
X135532170Y-63518051D01*
X135528119Y-63514852D01*
X135528115Y-63514848D01*
X135360914Y-63382800D01*
X135360910Y-63382798D01*
X135356859Y-63379598D01*
X135325613Y-63362349D01*
X135304636Y-63350769D01*
X135161289Y-63271638D01*
X135156420Y-63269914D01*
X135156416Y-63269912D01*
X134955587Y-63198795D01*
X134955583Y-63198794D01*
X134950712Y-63197069D01*
X134945619Y-63196162D01*
X134945616Y-63196161D01*
X134735873Y-63158800D01*
X134735867Y-63158799D01*
X134730784Y-63157894D01*
X134656952Y-63156992D01*
X134512581Y-63155228D01*
X134512579Y-63155228D01*
X134507411Y-63155165D01*
X134286591Y-63188955D01*
X134074256Y-63258357D01*
X133876107Y-63361507D01*
X133871974Y-63364610D01*
X133871971Y-63364612D01*
X133702971Y-63491501D01*
X133697465Y-63495635D01*
X133693893Y-63499373D01*
X133576086Y-63622651D01*
X133543129Y-63657138D01*
X133435701Y-63814621D01*
X133380793Y-63859621D01*
X133310268Y-63867792D01*
X133246521Y-63836538D01*
X133225824Y-63812054D01*
X133145322Y-63687617D01*
X133145320Y-63687614D01*
X133142514Y-63683277D01*
X132992170Y-63518051D01*
X132988119Y-63514852D01*
X132988115Y-63514848D01*
X132820914Y-63382800D01*
X132820910Y-63382798D01*
X132816859Y-63379598D01*
X132785613Y-63362349D01*
X132764636Y-63350769D01*
X132621289Y-63271638D01*
X132616420Y-63269914D01*
X132616416Y-63269912D01*
X132415587Y-63198795D01*
X132415583Y-63198794D01*
X132410712Y-63197069D01*
X132405619Y-63196162D01*
X132405616Y-63196161D01*
X132195873Y-63158800D01*
X132195867Y-63158799D01*
X132190784Y-63157894D01*
X132116952Y-63156992D01*
X131972581Y-63155228D01*
X131972579Y-63155228D01*
X131967411Y-63155165D01*
X131746591Y-63188955D01*
X131534256Y-63258357D01*
X131336107Y-63361507D01*
X131331974Y-63364610D01*
X131331971Y-63364612D01*
X131162971Y-63491501D01*
X131157465Y-63495635D01*
X131153893Y-63499373D01*
X131036086Y-63622651D01*
X131003129Y-63657138D01*
X130895701Y-63814621D01*
X130840793Y-63859621D01*
X130770268Y-63867792D01*
X130706521Y-63836538D01*
X130685824Y-63812054D01*
X130605322Y-63687617D01*
X130605320Y-63687614D01*
X130602514Y-63683277D01*
X130452170Y-63518051D01*
X130448119Y-63514852D01*
X130448115Y-63514848D01*
X130280914Y-63382800D01*
X130280910Y-63382798D01*
X130276859Y-63379598D01*
X130245613Y-63362349D01*
X130224636Y-63350769D01*
X130081289Y-63271638D01*
X130076420Y-63269914D01*
X130076416Y-63269912D01*
X129875587Y-63198795D01*
X129875583Y-63198794D01*
X129870712Y-63197069D01*
X129865619Y-63196162D01*
X129865616Y-63196161D01*
X129655873Y-63158800D01*
X129655867Y-63158799D01*
X129650784Y-63157894D01*
X129576952Y-63156992D01*
X129432581Y-63155228D01*
X129432579Y-63155228D01*
X129427411Y-63155165D01*
X129206591Y-63188955D01*
X128994256Y-63258357D01*
X128796107Y-63361507D01*
X128791974Y-63364610D01*
X128791971Y-63364612D01*
X128622971Y-63491501D01*
X128617465Y-63495635D01*
X128613893Y-63499373D01*
X128496086Y-63622651D01*
X128463129Y-63657138D01*
X128355704Y-63814618D01*
X128355398Y-63815066D01*
X128300487Y-63860069D01*
X128229962Y-63868240D01*
X128166215Y-63836986D01*
X128145518Y-63812502D01*
X128064926Y-63687926D01*
X128058636Y-63679757D01*
X127915306Y-63522240D01*
X127907773Y-63515215D01*
X127740639Y-63383222D01*
X127732052Y-63377517D01*
X127545617Y-63274599D01*
X127536205Y-63270369D01*
X127335459Y-63199280D01*
X127325488Y-63196646D01*
X127254337Y-63183972D01*
X127241040Y-63185432D01*
X127236500Y-63199989D01*
X127236500Y-65833517D01*
X126728500Y-65833517D01*
X126728500Y-63198102D01*
X126724582Y-63184758D01*
X126710306Y-63182771D01*
X126671824Y-63188660D01*
X126661788Y-63191051D01*
X126459368Y-63257212D01*
X126449859Y-63261209D01*
X126260963Y-63359542D01*
X126252238Y-63365036D01*
X126081933Y-63492905D01*
X126074226Y-63499748D01*
X125927090Y-63653717D01*
X125920609Y-63661722D01*
X125815998Y-63815074D01*
X125761087Y-63860076D01*
X125690562Y-63868247D01*
X125626815Y-63836993D01*
X125606118Y-63812509D01*
X125525322Y-63687617D01*
X125525320Y-63687614D01*
X125522514Y-63683277D01*
X125372170Y-63518051D01*
X125368119Y-63514852D01*
X125368115Y-63514848D01*
X125200914Y-63382800D01*
X125200910Y-63382798D01*
X125196859Y-63379598D01*
X125165613Y-63362349D01*
X125144636Y-63350769D01*
X125001289Y-63271638D01*
X124996420Y-63269914D01*
X124996416Y-63269912D01*
X124795587Y-63198795D01*
X124795583Y-63198794D01*
X124790712Y-63197069D01*
X124785619Y-63196162D01*
X124785616Y-63196161D01*
X124575873Y-63158800D01*
X124575867Y-63158799D01*
X124570784Y-63157894D01*
X124496952Y-63156992D01*
X124352581Y-63155228D01*
X124352579Y-63155228D01*
X124347411Y-63155165D01*
X124126591Y-63188955D01*
X123914256Y-63258357D01*
X123716107Y-63361507D01*
X123711974Y-63364610D01*
X123711971Y-63364612D01*
X123542971Y-63491501D01*
X123537465Y-63495635D01*
X123476169Y-63559778D01*
X123456783Y-63580064D01*
X123395259Y-63615494D01*
X123324346Y-63612037D01*
X123266560Y-63570791D01*
X123247707Y-63537243D01*
X123206267Y-63426703D01*
X123203115Y-63418295D01*
X123115761Y-63301739D01*
X122999205Y-63214385D01*
X122862816Y-63163255D01*
X122800634Y-63156500D01*
X121004366Y-63156500D01*
X120942184Y-63163255D01*
X120805795Y-63214385D01*
X120689239Y-63301739D01*
X120601885Y-63418295D01*
X120550755Y-63554684D01*
X120544000Y-63616866D01*
X120544000Y-65413134D01*
X111622875Y-65413134D01*
X111714461Y-65216725D01*
X111714461Y-65216724D01*
X111716784Y-65211743D01*
X111722572Y-65190144D01*
X111774619Y-64995902D01*
X111774619Y-64995900D01*
X111776043Y-64990587D01*
X111795998Y-64762500D01*
X111776043Y-64534413D01*
X111716784Y-64313257D01*
X111691750Y-64259570D01*
X111622349Y-64110738D01*
X111622346Y-64110733D01*
X111620023Y-64105751D01*
X111488698Y-63918200D01*
X111326800Y-63756302D01*
X111322292Y-63753145D01*
X111322289Y-63753143D01*
X111191282Y-63661411D01*
X111139249Y-63624977D01*
X111134267Y-63622654D01*
X111134262Y-63622651D01*
X111100043Y-63606695D01*
X111046758Y-63559778D01*
X111027297Y-63491501D01*
X111047839Y-63423541D01*
X111100043Y-63378305D01*
X111134262Y-63362349D01*
X111134267Y-63362346D01*
X111139249Y-63360023D01*
X111267288Y-63270369D01*
X111322289Y-63231857D01*
X111322292Y-63231855D01*
X111326800Y-63228698D01*
X111488698Y-63066800D01*
X111620023Y-62879249D01*
X111622346Y-62874267D01*
X111622349Y-62874262D01*
X111714461Y-62676725D01*
X111714461Y-62676724D01*
X111716784Y-62671743D01*
X111776043Y-62450587D01*
X111795998Y-62222500D01*
X111776043Y-61994413D01*
X111716784Y-61773257D01*
X111622466Y-61570989D01*
X111622349Y-61570738D01*
X111622346Y-61570733D01*
X111620023Y-61565751D01*
X111488698Y-61378200D01*
X111326800Y-61216302D01*
X111322292Y-61213145D01*
X111322289Y-61213143D01*
X111244111Y-61158402D01*
X111139249Y-61084977D01*
X111134267Y-61082654D01*
X111134262Y-61082651D01*
X111100043Y-61066695D01*
X111046758Y-61019778D01*
X111027297Y-60951501D01*
X111047839Y-60883541D01*
X111100043Y-60838305D01*
X111134262Y-60822349D01*
X111134267Y-60822346D01*
X111139249Y-60820023D01*
X111291012Y-60713757D01*
X111322289Y-60691857D01*
X111322292Y-60691855D01*
X111326800Y-60688698D01*
X111488698Y-60526800D01*
X111620023Y-60339249D01*
X111622346Y-60334267D01*
X111622349Y-60334262D01*
X111714461Y-60136725D01*
X111714461Y-60136724D01*
X111716784Y-60131743D01*
X111758887Y-59974616D01*
X111774619Y-59915902D01*
X111774619Y-59915900D01*
X111776043Y-59910587D01*
X111795998Y-59682500D01*
X111776043Y-59454413D01*
X111749846Y-59356646D01*
X111718207Y-59238567D01*
X111718206Y-59238565D01*
X111716784Y-59233257D01*
X111674474Y-59142522D01*
X111622349Y-59030738D01*
X111622346Y-59030733D01*
X111620023Y-59025751D01*
X111488698Y-58838200D01*
X111326800Y-58676302D01*
X111322292Y-58673145D01*
X111322289Y-58673143D01*
X111244111Y-58618402D01*
X111139249Y-58544977D01*
X111134267Y-58542654D01*
X111134262Y-58542651D01*
X111100043Y-58526695D01*
X111046758Y-58479778D01*
X111027297Y-58411501D01*
X111047839Y-58343541D01*
X111100043Y-58298305D01*
X111134262Y-58282349D01*
X111134267Y-58282346D01*
X111139249Y-58280023D01*
X111301135Y-58166669D01*
X111322289Y-58151857D01*
X111322292Y-58151855D01*
X111326800Y-58148698D01*
X111488698Y-57986800D01*
X111493827Y-57979476D01*
X111616866Y-57803757D01*
X111620023Y-57799249D01*
X111622346Y-57794267D01*
X111622349Y-57794262D01*
X111714461Y-57596725D01*
X111714461Y-57596724D01*
X111716784Y-57591743D01*
X111758887Y-57434616D01*
X111774619Y-57375902D01*
X111774619Y-57375900D01*
X111776043Y-57370587D01*
X111795998Y-57142500D01*
X111776043Y-56914413D01*
X111749846Y-56816646D01*
X111718207Y-56698567D01*
X111718206Y-56698565D01*
X111716784Y-56693257D01*
X111674474Y-56602522D01*
X111622349Y-56490738D01*
X111622346Y-56490733D01*
X111620023Y-56485751D01*
X111488698Y-56298200D01*
X111326800Y-56136302D01*
X111322292Y-56133145D01*
X111322289Y-56133143D01*
X111244111Y-56078402D01*
X111139249Y-56004977D01*
X111134267Y-56002654D01*
X111134262Y-56002651D01*
X111100043Y-55986695D01*
X111046758Y-55939778D01*
X111027297Y-55871501D01*
X111047839Y-55803541D01*
X111100043Y-55758305D01*
X111134262Y-55742349D01*
X111134267Y-55742346D01*
X111139249Y-55740023D01*
X111301135Y-55626669D01*
X111322289Y-55611857D01*
X111322292Y-55611855D01*
X111326800Y-55608698D01*
X111488698Y-55446800D01*
X111493827Y-55439476D01*
X111616866Y-55263757D01*
X111620023Y-55259249D01*
X111622346Y-55254267D01*
X111622349Y-55254262D01*
X111714461Y-55056725D01*
X111714461Y-55056724D01*
X111716784Y-55051743D01*
X111758887Y-54894616D01*
X111774619Y-54835902D01*
X111774619Y-54835900D01*
X111776043Y-54830587D01*
X111795998Y-54602500D01*
X111776043Y-54374413D01*
X111749846Y-54276646D01*
X111718207Y-54158567D01*
X111718206Y-54158565D01*
X111716784Y-54153257D01*
X111674474Y-54062522D01*
X111622349Y-53950738D01*
X111622346Y-53950733D01*
X111620023Y-53945751D01*
X111521195Y-53804610D01*
X111491857Y-53762711D01*
X111491855Y-53762708D01*
X111488698Y-53758200D01*
X111326800Y-53596302D01*
X111322292Y-53593145D01*
X111322289Y-53593143D01*
X111244111Y-53538402D01*
X111139249Y-53464977D01*
X111134267Y-53462654D01*
X111134262Y-53462651D01*
X111100043Y-53446695D01*
X111046758Y-53399778D01*
X111027297Y-53331501D01*
X111047839Y-53263541D01*
X111100043Y-53218305D01*
X111134262Y-53202349D01*
X111134267Y-53202346D01*
X111139249Y-53200023D01*
X111283256Y-53099188D01*
X111322289Y-53071857D01*
X111322292Y-53071855D01*
X111326800Y-53068698D01*
X111488698Y-52906800D01*
X111501345Y-52888739D01*
X111616866Y-52723757D01*
X111620023Y-52719249D01*
X111622346Y-52714267D01*
X111622349Y-52714262D01*
X111714461Y-52516725D01*
X111714461Y-52516724D01*
X111716784Y-52511743D01*
X111723093Y-52488200D01*
X111774619Y-52295902D01*
X111774619Y-52295900D01*
X111776043Y-52290587D01*
X111795998Y-52062500D01*
X111776043Y-51834413D01*
X111716784Y-51613257D01*
X111714461Y-51608275D01*
X111622349Y-51410738D01*
X111622346Y-51410733D01*
X111620023Y-51405751D01*
X111488698Y-51218200D01*
X111326800Y-51056302D01*
X111322292Y-51053145D01*
X111322289Y-51053143D01*
X111244111Y-50998402D01*
X111139249Y-50924977D01*
X111134267Y-50922654D01*
X111134262Y-50922651D01*
X111100043Y-50906695D01*
X111046758Y-50859778D01*
X111027297Y-50791501D01*
X111047839Y-50723541D01*
X111100043Y-50678305D01*
X111134262Y-50662349D01*
X111134267Y-50662346D01*
X111139249Y-50660023D01*
X111319344Y-50533919D01*
X111322289Y-50531857D01*
X111322292Y-50531855D01*
X111326800Y-50528698D01*
X111488698Y-50366800D01*
X111620023Y-50179249D01*
X111622346Y-50174267D01*
X111622349Y-50174262D01*
X111714461Y-49976725D01*
X111714461Y-49976724D01*
X111716784Y-49971743D01*
X111776043Y-49750587D01*
X111795998Y-49522500D01*
X111776043Y-49294413D01*
X111716784Y-49073257D01*
X111634186Y-48896123D01*
X111622349Y-48870738D01*
X111622346Y-48870733D01*
X111620023Y-48865751D01*
X111528571Y-48735144D01*
X111491857Y-48682711D01*
X111491855Y-48682708D01*
X111488698Y-48678200D01*
X111326800Y-48516302D01*
X111322292Y-48513145D01*
X111322289Y-48513143D01*
X111220552Y-48441906D01*
X111139249Y-48384977D01*
X111134267Y-48382654D01*
X111134262Y-48382651D01*
X111100043Y-48366695D01*
X111046758Y-48319778D01*
X111027297Y-48251501D01*
X111047839Y-48183541D01*
X111100043Y-48138305D01*
X111134262Y-48122349D01*
X111134267Y-48122346D01*
X111139249Y-48120023D01*
X111281305Y-48020554D01*
X111322289Y-47991857D01*
X111322292Y-47991855D01*
X111326800Y-47988698D01*
X111488698Y-47826800D01*
X111620023Y-47639249D01*
X111622346Y-47634267D01*
X111622349Y-47634262D01*
X111714461Y-47436725D01*
X111714461Y-47436724D01*
X111716784Y-47431743D01*
X111722572Y-47410144D01*
X111774619Y-47215902D01*
X111774619Y-47215900D01*
X111776043Y-47210587D01*
X111795998Y-46982500D01*
X111776043Y-46754413D01*
X111767528Y-46722635D01*
X111761917Y-46701695D01*
X123079751Y-46701695D01*
X123080048Y-46706848D01*
X123080048Y-46706851D01*
X123085511Y-46801590D01*
X123092610Y-46924715D01*
X123093747Y-46929761D01*
X123093748Y-46929767D01*
X123106866Y-46987975D01*
X123141722Y-47142639D01*
X123225766Y-47349616D01*
X123272839Y-47426433D01*
X123339791Y-47535688D01*
X123342487Y-47540088D01*
X123488750Y-47708938D01*
X123660626Y-47851632D01*
X123853500Y-47964338D01*
X124062192Y-48044030D01*
X124067260Y-48045061D01*
X124067263Y-48045062D01*
X124174517Y-48066883D01*
X124281097Y-48088567D01*
X124286272Y-48088757D01*
X124286274Y-48088757D01*
X124499173Y-48096564D01*
X124499177Y-48096564D01*
X124504337Y-48096753D01*
X124509457Y-48096097D01*
X124509459Y-48096097D01*
X124720788Y-48069025D01*
X124720789Y-48069025D01*
X124725916Y-48068368D01*
X124730866Y-48066883D01*
X124934929Y-48005661D01*
X124934934Y-48005659D01*
X124939884Y-48004174D01*
X125140494Y-47905896D01*
X125322360Y-47776173D01*
X125480596Y-47618489D01*
X125540094Y-47535689D01*
X125610953Y-47437077D01*
X125612276Y-47438028D01*
X125659145Y-47394857D01*
X125729080Y-47382625D01*
X125794526Y-47410144D01*
X125822375Y-47441994D01*
X125882487Y-47540088D01*
X126028750Y-47708938D01*
X126200626Y-47851632D01*
X126393500Y-47964338D01*
X126602192Y-48044030D01*
X126607260Y-48045061D01*
X126607263Y-48045062D01*
X126714517Y-48066883D01*
X126821097Y-48088567D01*
X126826272Y-48088757D01*
X126826274Y-48088757D01*
X127039173Y-48096564D01*
X127039177Y-48096564D01*
X127044337Y-48096753D01*
X127049457Y-48096097D01*
X127049459Y-48096097D01*
X127260788Y-48069025D01*
X127260789Y-48069025D01*
X127265916Y-48068368D01*
X127270866Y-48066883D01*
X127474929Y-48005661D01*
X127474934Y-48005659D01*
X127479884Y-48004174D01*
X127680494Y-47905896D01*
X127862360Y-47776173D01*
X128020596Y-47618489D01*
X128080094Y-47535689D01*
X128150953Y-47437077D01*
X128152276Y-47438028D01*
X128199145Y-47394857D01*
X128269080Y-47382625D01*
X128334526Y-47410144D01*
X128362375Y-47441994D01*
X128422487Y-47540088D01*
X128568750Y-47708938D01*
X128740626Y-47851632D01*
X128933500Y-47964338D01*
X129142192Y-48044030D01*
X129147260Y-48045061D01*
X129147263Y-48045062D01*
X129254517Y-48066883D01*
X129361097Y-48088567D01*
X129366272Y-48088757D01*
X129366274Y-48088757D01*
X129579173Y-48096564D01*
X129579177Y-48096564D01*
X129584337Y-48096753D01*
X129589457Y-48096097D01*
X129589459Y-48096097D01*
X129800788Y-48069025D01*
X129800789Y-48069025D01*
X129805916Y-48068368D01*
X129810866Y-48066883D01*
X130014929Y-48005661D01*
X130014934Y-48005659D01*
X130019884Y-48004174D01*
X130220494Y-47905896D01*
X130402360Y-47776173D01*
X130560596Y-47618489D01*
X130620094Y-47535689D01*
X130690953Y-47437077D01*
X130692276Y-47438028D01*
X130739145Y-47394857D01*
X130809080Y-47382625D01*
X130874526Y-47410144D01*
X130902375Y-47441994D01*
X130962487Y-47540088D01*
X131108750Y-47708938D01*
X131280626Y-47851632D01*
X131473500Y-47964338D01*
X131682192Y-48044030D01*
X131687260Y-48045061D01*
X131687263Y-48045062D01*
X131794517Y-48066883D01*
X131901097Y-48088567D01*
X131906272Y-48088757D01*
X131906274Y-48088757D01*
X132119173Y-48096564D01*
X132119177Y-48096564D01*
X132124337Y-48096753D01*
X132129457Y-48096097D01*
X132129459Y-48096097D01*
X132340788Y-48069025D01*
X132340789Y-48069025D01*
X132345916Y-48068368D01*
X132350866Y-48066883D01*
X132554929Y-48005661D01*
X132554934Y-48005659D01*
X132559884Y-48004174D01*
X132760494Y-47905896D01*
X132942360Y-47776173D01*
X133100596Y-47618489D01*
X133160094Y-47535689D01*
X133227935Y-47441277D01*
X133230953Y-47437077D01*
X133251820Y-47394857D01*
X133327636Y-47241453D01*
X133327637Y-47241451D01*
X133329930Y-47236811D01*
X133394870Y-47023069D01*
X133424029Y-46801590D01*
X133425656Y-46735000D01*
X133407352Y-46512361D01*
X133352931Y-46295702D01*
X133263854Y-46090840D01*
X133189756Y-45976302D01*
X133145322Y-45907617D01*
X133145320Y-45907614D01*
X133142514Y-45903277D01*
X132992170Y-45738051D01*
X132988119Y-45734852D01*
X132988115Y-45734848D01*
X132820914Y-45602800D01*
X132820910Y-45602798D01*
X132816859Y-45599598D01*
X132621289Y-45491638D01*
X132616420Y-45489914D01*
X132616416Y-45489912D01*
X132415587Y-45418795D01*
X132415583Y-45418794D01*
X132410712Y-45417069D01*
X132405619Y-45416162D01*
X132405616Y-45416161D01*
X132195873Y-45378800D01*
X132195867Y-45378799D01*
X132190784Y-45377894D01*
X132116952Y-45376992D01*
X131972581Y-45375228D01*
X131972579Y-45375228D01*
X131967411Y-45375165D01*
X131746591Y-45408955D01*
X131534256Y-45478357D01*
X131336107Y-45581507D01*
X131331974Y-45584610D01*
X131331971Y-45584612D01*
X131191172Y-45690327D01*
X131157465Y-45715635D01*
X131153893Y-45719373D01*
X131036086Y-45842651D01*
X131003129Y-45877138D01*
X130895701Y-46034621D01*
X130840793Y-46079621D01*
X130770268Y-46087792D01*
X130706521Y-46056538D01*
X130685824Y-46032054D01*
X130605322Y-45907617D01*
X130605320Y-45907614D01*
X130602514Y-45903277D01*
X130452170Y-45738051D01*
X130448119Y-45734852D01*
X130448115Y-45734848D01*
X130280914Y-45602800D01*
X130280910Y-45602798D01*
X130276859Y-45599598D01*
X130081289Y-45491638D01*
X130076420Y-45489914D01*
X130076416Y-45489912D01*
X129875587Y-45418795D01*
X129875583Y-45418794D01*
X129870712Y-45417069D01*
X129865619Y-45416162D01*
X129865616Y-45416161D01*
X129655873Y-45378800D01*
X129655867Y-45378799D01*
X129650784Y-45377894D01*
X129576952Y-45376992D01*
X129432581Y-45375228D01*
X129432579Y-45375228D01*
X129427411Y-45375165D01*
X129206591Y-45408955D01*
X128994256Y-45478357D01*
X128796107Y-45581507D01*
X128791974Y-45584610D01*
X128791971Y-45584612D01*
X128651172Y-45690327D01*
X128617465Y-45715635D01*
X128613893Y-45719373D01*
X128496086Y-45842651D01*
X128463129Y-45877138D01*
X128355701Y-46034621D01*
X128300793Y-46079621D01*
X128230268Y-46087792D01*
X128166521Y-46056538D01*
X128145824Y-46032054D01*
X128065322Y-45907617D01*
X128065320Y-45907614D01*
X128062514Y-45903277D01*
X127912170Y-45738051D01*
X127908119Y-45734852D01*
X127908115Y-45734848D01*
X127740914Y-45602800D01*
X127740910Y-45602798D01*
X127736859Y-45599598D01*
X127541289Y-45491638D01*
X127536420Y-45489914D01*
X127536416Y-45489912D01*
X127335587Y-45418795D01*
X127335583Y-45418794D01*
X127330712Y-45417069D01*
X127325619Y-45416162D01*
X127325616Y-45416161D01*
X127115873Y-45378800D01*
X127115867Y-45378799D01*
X127110784Y-45377894D01*
X127036952Y-45376992D01*
X126892581Y-45375228D01*
X126892579Y-45375228D01*
X126887411Y-45375165D01*
X126666591Y-45408955D01*
X126454256Y-45478357D01*
X126256107Y-45581507D01*
X126251974Y-45584610D01*
X126251971Y-45584612D01*
X126111172Y-45690327D01*
X126077465Y-45715635D01*
X126073893Y-45719373D01*
X125956086Y-45842651D01*
X125923129Y-45877138D01*
X125815701Y-46034621D01*
X125760793Y-46079621D01*
X125690268Y-46087792D01*
X125626521Y-46056538D01*
X125605824Y-46032054D01*
X125525322Y-45907617D01*
X125525320Y-45907614D01*
X125522514Y-45903277D01*
X125372170Y-45738051D01*
X125368119Y-45734852D01*
X125368115Y-45734848D01*
X125200914Y-45602800D01*
X125200910Y-45602798D01*
X125196859Y-45599598D01*
X125001289Y-45491638D01*
X124996420Y-45489914D01*
X124996416Y-45489912D01*
X124795587Y-45418795D01*
X124795583Y-45418794D01*
X124790712Y-45417069D01*
X124785619Y-45416162D01*
X124785616Y-45416161D01*
X124575873Y-45378800D01*
X124575867Y-45378799D01*
X124570784Y-45377894D01*
X124496952Y-45376992D01*
X124352581Y-45375228D01*
X124352579Y-45375228D01*
X124347411Y-45375165D01*
X124126591Y-45408955D01*
X123914256Y-45478357D01*
X123716107Y-45581507D01*
X123711974Y-45584610D01*
X123711971Y-45584612D01*
X123571172Y-45690327D01*
X123537465Y-45715635D01*
X123533893Y-45719373D01*
X123416086Y-45842651D01*
X123383129Y-45877138D01*
X123257243Y-46061680D01*
X123163188Y-46264305D01*
X123103489Y-46479570D01*
X123079751Y-46701695D01*
X111761917Y-46701695D01*
X111718207Y-46538567D01*
X111718206Y-46538565D01*
X111716784Y-46533257D01*
X111691750Y-46479570D01*
X111622349Y-46330738D01*
X111622346Y-46330733D01*
X111620023Y-46325751D01*
X111488698Y-46138200D01*
X111326800Y-45976302D01*
X111322292Y-45973145D01*
X111322289Y-45973143D01*
X111191282Y-45881411D01*
X111139249Y-45844977D01*
X111134267Y-45842654D01*
X111134262Y-45842651D01*
X110936725Y-45750539D01*
X110936724Y-45750539D01*
X110931743Y-45748216D01*
X110926435Y-45746794D01*
X110926433Y-45746793D01*
X110715902Y-45690381D01*
X110715900Y-45690381D01*
X110710587Y-45688957D01*
X110482500Y-45669002D01*
X110254413Y-45688957D01*
X110249100Y-45690381D01*
X110249098Y-45690381D01*
X110038567Y-45746793D01*
X110038565Y-45746794D01*
X110033257Y-45748216D01*
X110028276Y-45750539D01*
X110028275Y-45750539D01*
X109830738Y-45842651D01*
X109830733Y-45842654D01*
X109825751Y-45844977D01*
X109773718Y-45881411D01*
X109642711Y-45973143D01*
X109642708Y-45973145D01*
X109638200Y-45976302D01*
X109476302Y-46138200D01*
X109344977Y-46325751D01*
X109342654Y-46330733D01*
X109342651Y-46330738D01*
X109273250Y-46479570D01*
X109248216Y-46533257D01*
X109246794Y-46538565D01*
X109246793Y-46538567D01*
X109197472Y-46722635D01*
X109188957Y-46754413D01*
X109169002Y-46982500D01*
X109188957Y-47210587D01*
X109190381Y-47215900D01*
X109190381Y-47215902D01*
X109242429Y-47410144D01*
X109248216Y-47431743D01*
X109250539Y-47436724D01*
X109250539Y-47436725D01*
X109342651Y-47634262D01*
X109342654Y-47634267D01*
X109344977Y-47639249D01*
X109476302Y-47826800D01*
X109638200Y-47988698D01*
X109642708Y-47991855D01*
X109642711Y-47991857D01*
X109683695Y-48020554D01*
X109825751Y-48120023D01*
X109830733Y-48122346D01*
X109830738Y-48122349D01*
X109864957Y-48138305D01*
X109918242Y-48185222D01*
X109937703Y-48253499D01*
X109917161Y-48321459D01*
X109864957Y-48366695D01*
X109830738Y-48382651D01*
X109830733Y-48382654D01*
X109825751Y-48384977D01*
X109744448Y-48441906D01*
X109642711Y-48513143D01*
X109642708Y-48513145D01*
X109638200Y-48516302D01*
X109476302Y-48678200D01*
X109473145Y-48682708D01*
X109473143Y-48682711D01*
X109436429Y-48735144D01*
X109344977Y-48865751D01*
X109342654Y-48870733D01*
X109342651Y-48870738D01*
X109330814Y-48896123D01*
X109248216Y-49073257D01*
X109188957Y-49294413D01*
X109169002Y-49522500D01*
X109188957Y-49750587D01*
X109248216Y-49971743D01*
X109250539Y-49976724D01*
X109250539Y-49976725D01*
X109342651Y-50174262D01*
X109342654Y-50174267D01*
X109344977Y-50179249D01*
X109476302Y-50366800D01*
X109638200Y-50528698D01*
X109642708Y-50531855D01*
X109642711Y-50531857D01*
X109645656Y-50533919D01*
X109825751Y-50660023D01*
X109830733Y-50662346D01*
X109830738Y-50662349D01*
X109864957Y-50678305D01*
X109918242Y-50725222D01*
X109937703Y-50793499D01*
X109917161Y-50861459D01*
X109864957Y-50906695D01*
X109830738Y-50922651D01*
X109830733Y-50922654D01*
X109825751Y-50924977D01*
X109720889Y-50998402D01*
X109642711Y-51053143D01*
X109642708Y-51053145D01*
X109638200Y-51056302D01*
X109476302Y-51218200D01*
X109344977Y-51405751D01*
X109342654Y-51410733D01*
X109342651Y-51410738D01*
X109250539Y-51608275D01*
X109248216Y-51613257D01*
X109188957Y-51834413D01*
X109169002Y-52062500D01*
X109188957Y-52290587D01*
X109190381Y-52295900D01*
X109190381Y-52295902D01*
X109241908Y-52488200D01*
X109248216Y-52511743D01*
X109250539Y-52516724D01*
X109250539Y-52516725D01*
X109342651Y-52714262D01*
X109342654Y-52714267D01*
X109344977Y-52719249D01*
X109348134Y-52723757D01*
X109463656Y-52888739D01*
X109476302Y-52906800D01*
X109638200Y-53068698D01*
X109642708Y-53071855D01*
X109642711Y-53071857D01*
X109681744Y-53099188D01*
X109825751Y-53200023D01*
X109830733Y-53202346D01*
X109830738Y-53202349D01*
X109864957Y-53218305D01*
X109918242Y-53265222D01*
X109937703Y-53333499D01*
X109917161Y-53401459D01*
X109864957Y-53446695D01*
X109830738Y-53462651D01*
X109830733Y-53462654D01*
X109825751Y-53464977D01*
X109720889Y-53538402D01*
X109642711Y-53593143D01*
X109642708Y-53593145D01*
X109638200Y-53596302D01*
X109476302Y-53758200D01*
X109473145Y-53762708D01*
X109473143Y-53762711D01*
X109443805Y-53804610D01*
X109344977Y-53945751D01*
X109342654Y-53950733D01*
X109342651Y-53950738D01*
X109290526Y-54062522D01*
X109248216Y-54153257D01*
X109246794Y-54158565D01*
X109246793Y-54158567D01*
X109215154Y-54276646D01*
X109188957Y-54374413D01*
X109169002Y-54602500D01*
X109188957Y-54830587D01*
X109190381Y-54835900D01*
X109190381Y-54835902D01*
X109206114Y-54894616D01*
X109248216Y-55051743D01*
X109250539Y-55056724D01*
X109250539Y-55056725D01*
X109342651Y-55254262D01*
X109342654Y-55254267D01*
X109344977Y-55259249D01*
X109348134Y-55263757D01*
X109471174Y-55439476D01*
X109476302Y-55446800D01*
X109638200Y-55608698D01*
X109642708Y-55611855D01*
X109642711Y-55611857D01*
X109663865Y-55626669D01*
X109825751Y-55740023D01*
X109830733Y-55742346D01*
X109830738Y-55742349D01*
X109864957Y-55758305D01*
X109918242Y-55805222D01*
X109937703Y-55873499D01*
X109917161Y-55941459D01*
X109864957Y-55986695D01*
X109830738Y-56002651D01*
X109830733Y-56002654D01*
X109825751Y-56004977D01*
X109720889Y-56078402D01*
X109642711Y-56133143D01*
X109642708Y-56133145D01*
X109638200Y-56136302D01*
X109476302Y-56298200D01*
X109344977Y-56485751D01*
X109342654Y-56490733D01*
X109342651Y-56490738D01*
X109290526Y-56602522D01*
X109248216Y-56693257D01*
X109246794Y-56698565D01*
X109246793Y-56698567D01*
X109215154Y-56816646D01*
X109188957Y-56914413D01*
X109169002Y-57142500D01*
X109188957Y-57370587D01*
X109190381Y-57375900D01*
X109190381Y-57375902D01*
X109206114Y-57434616D01*
X109248216Y-57591743D01*
X109250539Y-57596724D01*
X109250539Y-57596725D01*
X109342651Y-57794262D01*
X109342654Y-57794267D01*
X109344977Y-57799249D01*
X109348134Y-57803757D01*
X109471174Y-57979476D01*
X109476302Y-57986800D01*
X109638200Y-58148698D01*
X109642708Y-58151855D01*
X109642711Y-58151857D01*
X109663865Y-58166669D01*
X109825751Y-58280023D01*
X109830733Y-58282346D01*
X109830738Y-58282349D01*
X109864957Y-58298305D01*
X109918242Y-58345222D01*
X109937703Y-58413499D01*
X109917161Y-58481459D01*
X109864957Y-58526695D01*
X109830738Y-58542651D01*
X109830733Y-58542654D01*
X109825751Y-58544977D01*
X109720889Y-58618402D01*
X109642711Y-58673143D01*
X109642708Y-58673145D01*
X109638200Y-58676302D01*
X109476302Y-58838200D01*
X109344977Y-59025751D01*
X109342654Y-59030733D01*
X109342651Y-59030738D01*
X109290526Y-59142522D01*
X109248216Y-59233257D01*
X109246794Y-59238565D01*
X109246793Y-59238567D01*
X109215154Y-59356646D01*
X109188957Y-59454413D01*
X109169002Y-59682500D01*
X109188957Y-59910587D01*
X109190381Y-59915900D01*
X109190381Y-59915902D01*
X109206114Y-59974616D01*
X109248216Y-60131743D01*
X109250539Y-60136724D01*
X109250539Y-60136725D01*
X109342651Y-60334262D01*
X109342654Y-60334267D01*
X109344977Y-60339249D01*
X109476302Y-60526800D01*
X109638200Y-60688698D01*
X109642708Y-60691855D01*
X109642711Y-60691857D01*
X109673988Y-60713757D01*
X109825751Y-60820023D01*
X109830733Y-60822346D01*
X109830738Y-60822349D01*
X109864957Y-60838305D01*
X109918242Y-60885222D01*
X109937703Y-60953499D01*
X109917161Y-61021459D01*
X109864957Y-61066695D01*
X109830738Y-61082651D01*
X109830733Y-61082654D01*
X109825751Y-61084977D01*
X109720889Y-61158402D01*
X109642711Y-61213143D01*
X109642708Y-61213145D01*
X109638200Y-61216302D01*
X109476302Y-61378200D01*
X109344977Y-61565751D01*
X109342654Y-61570733D01*
X109342651Y-61570738D01*
X109342534Y-61570989D01*
X109248216Y-61773257D01*
X109188957Y-61994413D01*
X109169002Y-62222500D01*
X109188957Y-62450587D01*
X109248216Y-62671743D01*
X109250539Y-62676724D01*
X109250539Y-62676725D01*
X109342651Y-62874262D01*
X109342654Y-62874267D01*
X109344977Y-62879249D01*
X109476302Y-63066800D01*
X109638200Y-63228698D01*
X109642708Y-63231855D01*
X109642711Y-63231857D01*
X109697712Y-63270369D01*
X109825751Y-63360023D01*
X109830733Y-63362346D01*
X109830738Y-63362349D01*
X109864957Y-63378305D01*
X109918242Y-63425222D01*
X109937703Y-63493499D01*
X109917161Y-63561459D01*
X109864957Y-63606695D01*
X109830738Y-63622651D01*
X109830733Y-63622654D01*
X109825751Y-63624977D01*
X109773718Y-63661411D01*
X109642711Y-63753143D01*
X109642708Y-63753145D01*
X109638200Y-63756302D01*
X109476302Y-63918200D01*
X109344977Y-64105751D01*
X109342654Y-64110733D01*
X109342651Y-64110738D01*
X109273250Y-64259570D01*
X109248216Y-64313257D01*
X109188957Y-64534413D01*
X109169002Y-64762500D01*
X99095998Y-64762500D01*
X99076043Y-64534413D01*
X99016784Y-64313257D01*
X98991750Y-64259570D01*
X98922349Y-64110738D01*
X98922346Y-64110733D01*
X98920023Y-64105751D01*
X98788698Y-63918200D01*
X98626800Y-63756302D01*
X98622292Y-63753145D01*
X98622289Y-63753143D01*
X98491282Y-63661411D01*
X98439249Y-63624977D01*
X98434267Y-63622654D01*
X98434262Y-63622651D01*
X98399451Y-63606419D01*
X98346166Y-63559502D01*
X98326705Y-63491225D01*
X98347247Y-63423265D01*
X98399451Y-63378029D01*
X98434011Y-63361914D01*
X98443507Y-63356431D01*
X98621967Y-63231472D01*
X98630375Y-63224416D01*
X98784416Y-63070375D01*
X98791472Y-63061967D01*
X98916431Y-62883507D01*
X98921914Y-62874011D01*
X99013990Y-62676553D01*
X99017736Y-62666261D01*
X99063894Y-62493997D01*
X99063558Y-62479901D01*
X99055616Y-62476500D01*
X96514533Y-62476500D01*
X96501002Y-62480473D01*
X96499773Y-62489022D01*
X96547264Y-62666261D01*
X96551010Y-62676553D01*
X96643086Y-62874011D01*
X96648569Y-62883507D01*
X96773528Y-63061967D01*
X96780584Y-63070375D01*
X96934625Y-63224416D01*
X96943033Y-63231472D01*
X97121493Y-63356431D01*
X97130989Y-63361914D01*
X97165549Y-63378029D01*
X97218834Y-63424946D01*
X97238295Y-63493223D01*
X97217753Y-63561183D01*
X97165549Y-63606419D01*
X97130738Y-63622651D01*
X97130733Y-63622654D01*
X97125751Y-63624977D01*
X97073718Y-63661411D01*
X96942711Y-63753143D01*
X96942708Y-63753145D01*
X96938200Y-63756302D01*
X96776302Y-63918200D01*
X96644977Y-64105751D01*
X96642654Y-64110733D01*
X96642651Y-64110738D01*
X96573250Y-64259570D01*
X96548216Y-64313257D01*
X96488957Y-64534413D01*
X96469002Y-64762500D01*
X77961000Y-64762500D01*
X77961000Y-59326695D01*
X91042251Y-59326695D01*
X91042548Y-59331848D01*
X91042548Y-59331851D01*
X91049615Y-59454413D01*
X91055110Y-59549715D01*
X91056247Y-59554761D01*
X91056248Y-59554767D01*
X91076119Y-59642939D01*
X91104222Y-59767639D01*
X91188266Y-59974616D01*
X91304987Y-60165088D01*
X91451250Y-60333938D01*
X91623126Y-60476632D01*
X91816000Y-60589338D01*
X92024692Y-60669030D01*
X92029760Y-60670061D01*
X92029763Y-60670062D01*
X92102208Y-60684801D01*
X92243597Y-60713567D01*
X92248772Y-60713757D01*
X92248774Y-60713757D01*
X92461673Y-60721564D01*
X92461677Y-60721564D01*
X92466837Y-60721753D01*
X92471957Y-60721097D01*
X92471959Y-60721097D01*
X92683288Y-60694025D01*
X92683289Y-60694025D01*
X92688416Y-60693368D01*
X92693366Y-60691883D01*
X92897429Y-60630661D01*
X92897434Y-60630659D01*
X92902384Y-60629174D01*
X93102994Y-60530896D01*
X93284860Y-60401173D01*
X93443096Y-60243489D01*
X93502594Y-60160689D01*
X93570435Y-60066277D01*
X93573453Y-60062077D01*
X93672430Y-59861811D01*
X93726909Y-59682500D01*
X96469002Y-59682500D01*
X96488957Y-59910587D01*
X96490381Y-59915900D01*
X96490381Y-59915902D01*
X96506114Y-59974616D01*
X96548216Y-60131743D01*
X96550539Y-60136724D01*
X96550539Y-60136725D01*
X96642651Y-60334262D01*
X96642654Y-60334267D01*
X96644977Y-60339249D01*
X96776302Y-60526800D01*
X96938200Y-60688698D01*
X96942708Y-60691855D01*
X96942711Y-60691857D01*
X96973988Y-60713757D01*
X97125751Y-60820023D01*
X97130733Y-60822346D01*
X97130738Y-60822349D01*
X97165549Y-60838581D01*
X97218834Y-60885498D01*
X97238295Y-60953775D01*
X97217753Y-61021735D01*
X97165549Y-61066971D01*
X97130989Y-61083086D01*
X97121493Y-61088569D01*
X96943033Y-61213528D01*
X96934625Y-61220584D01*
X96780584Y-61374625D01*
X96773528Y-61383033D01*
X96648569Y-61561493D01*
X96643086Y-61570989D01*
X96551010Y-61768447D01*
X96547264Y-61778739D01*
X96501106Y-61951003D01*
X96501442Y-61965099D01*
X96509384Y-61968500D01*
X99050467Y-61968500D01*
X99063998Y-61964527D01*
X99065227Y-61955978D01*
X99017736Y-61778739D01*
X99013990Y-61768447D01*
X98921914Y-61570989D01*
X98916431Y-61561493D01*
X98791472Y-61383033D01*
X98784416Y-61374625D01*
X98630375Y-61220584D01*
X98621967Y-61213528D01*
X98443507Y-61088569D01*
X98434011Y-61083086D01*
X98399451Y-61066971D01*
X98346166Y-61020054D01*
X98326705Y-60951777D01*
X98347247Y-60883817D01*
X98399451Y-60838581D01*
X98434262Y-60822349D01*
X98434267Y-60822346D01*
X98439249Y-60820023D01*
X98591012Y-60713757D01*
X98622289Y-60691857D01*
X98622292Y-60691855D01*
X98626800Y-60688698D01*
X98788698Y-60526800D01*
X98920023Y-60339249D01*
X98922346Y-60334267D01*
X98922349Y-60334262D01*
X99014461Y-60136725D01*
X99014461Y-60136724D01*
X99016784Y-60131743D01*
X99058887Y-59974616D01*
X99074619Y-59915902D01*
X99074619Y-59915900D01*
X99076043Y-59910587D01*
X99095998Y-59682500D01*
X99076043Y-59454413D01*
X99049846Y-59356646D01*
X99018207Y-59238567D01*
X99018206Y-59238565D01*
X99016784Y-59233257D01*
X98974474Y-59142522D01*
X98922349Y-59030738D01*
X98922346Y-59030733D01*
X98920023Y-59025751D01*
X98788698Y-58838200D01*
X98626800Y-58676302D01*
X98622292Y-58673145D01*
X98622289Y-58673143D01*
X98544111Y-58618402D01*
X98439249Y-58544977D01*
X98434267Y-58542654D01*
X98434262Y-58542651D01*
X98400043Y-58526695D01*
X98346758Y-58479778D01*
X98327297Y-58411501D01*
X98347839Y-58343541D01*
X98400043Y-58298305D01*
X98434262Y-58282349D01*
X98434267Y-58282346D01*
X98439249Y-58280023D01*
X98601135Y-58166669D01*
X98622289Y-58151857D01*
X98622292Y-58151855D01*
X98626800Y-58148698D01*
X98788698Y-57986800D01*
X98793827Y-57979476D01*
X98916866Y-57803757D01*
X98920023Y-57799249D01*
X98922346Y-57794267D01*
X98922349Y-57794262D01*
X99014461Y-57596725D01*
X99014461Y-57596724D01*
X99016784Y-57591743D01*
X99058887Y-57434616D01*
X99074619Y-57375902D01*
X99074619Y-57375900D01*
X99076043Y-57370587D01*
X99095998Y-57142500D01*
X99076043Y-56914413D01*
X99049846Y-56816646D01*
X99018207Y-56698567D01*
X99018206Y-56698565D01*
X99016784Y-56693257D01*
X98974474Y-56602522D01*
X98922349Y-56490738D01*
X98922346Y-56490733D01*
X98920023Y-56485751D01*
X98788698Y-56298200D01*
X98626800Y-56136302D01*
X98622292Y-56133145D01*
X98622289Y-56133143D01*
X98544111Y-56078402D01*
X98439249Y-56004977D01*
X98434267Y-56002654D01*
X98434262Y-56002651D01*
X98400043Y-55986695D01*
X98346758Y-55939778D01*
X98327297Y-55871501D01*
X98347839Y-55803541D01*
X98400043Y-55758305D01*
X98434262Y-55742349D01*
X98434267Y-55742346D01*
X98439249Y-55740023D01*
X98601135Y-55626669D01*
X98622289Y-55611857D01*
X98622292Y-55611855D01*
X98626800Y-55608698D01*
X98788698Y-55446800D01*
X98793827Y-55439476D01*
X98916866Y-55263757D01*
X98920023Y-55259249D01*
X98922346Y-55254267D01*
X98922349Y-55254262D01*
X99014461Y-55056725D01*
X99014461Y-55056724D01*
X99016784Y-55051743D01*
X99058887Y-54894616D01*
X99074619Y-54835902D01*
X99074619Y-54835900D01*
X99076043Y-54830587D01*
X99095998Y-54602500D01*
X99076043Y-54374413D01*
X99049846Y-54276646D01*
X99018207Y-54158567D01*
X99018206Y-54158565D01*
X99016784Y-54153257D01*
X98974474Y-54062522D01*
X98922349Y-53950738D01*
X98922346Y-53950733D01*
X98920023Y-53945751D01*
X98821195Y-53804610D01*
X98791857Y-53762711D01*
X98791855Y-53762708D01*
X98788698Y-53758200D01*
X98626800Y-53596302D01*
X98622292Y-53593145D01*
X98622289Y-53593143D01*
X98544111Y-53538402D01*
X98439249Y-53464977D01*
X98434267Y-53462654D01*
X98434262Y-53462651D01*
X98400043Y-53446695D01*
X98346758Y-53399778D01*
X98327297Y-53331501D01*
X98347839Y-53263541D01*
X98400043Y-53218305D01*
X98434262Y-53202349D01*
X98434267Y-53202346D01*
X98439249Y-53200023D01*
X98583256Y-53099188D01*
X98622289Y-53071857D01*
X98622292Y-53071855D01*
X98626800Y-53068698D01*
X98788698Y-52906800D01*
X98801345Y-52888739D01*
X98916866Y-52723757D01*
X98920023Y-52719249D01*
X98922346Y-52714267D01*
X98922349Y-52714262D01*
X99014461Y-52516725D01*
X99014461Y-52516724D01*
X99016784Y-52511743D01*
X99023093Y-52488200D01*
X99074619Y-52295902D01*
X99074619Y-52295900D01*
X99076043Y-52290587D01*
X99095998Y-52062500D01*
X99076043Y-51834413D01*
X99016784Y-51613257D01*
X99014461Y-51608275D01*
X98922349Y-51410738D01*
X98922346Y-51410733D01*
X98920023Y-51405751D01*
X98788698Y-51218200D01*
X98626800Y-51056302D01*
X98622292Y-51053145D01*
X98622289Y-51053143D01*
X98544111Y-50998402D01*
X98439249Y-50924977D01*
X98434267Y-50922654D01*
X98434262Y-50922651D01*
X98400043Y-50906695D01*
X98346758Y-50859778D01*
X98327297Y-50791501D01*
X98347839Y-50723541D01*
X98400043Y-50678305D01*
X98434262Y-50662349D01*
X98434267Y-50662346D01*
X98439249Y-50660023D01*
X98619344Y-50533919D01*
X98622289Y-50531857D01*
X98622292Y-50531855D01*
X98626800Y-50528698D01*
X98788698Y-50366800D01*
X98920023Y-50179249D01*
X98922346Y-50174267D01*
X98922349Y-50174262D01*
X99014461Y-49976725D01*
X99014461Y-49976724D01*
X99016784Y-49971743D01*
X99076043Y-49750587D01*
X99095998Y-49522500D01*
X99076043Y-49294413D01*
X99016784Y-49073257D01*
X98934186Y-48896123D01*
X98922349Y-48870738D01*
X98922346Y-48870733D01*
X98920023Y-48865751D01*
X98828571Y-48735144D01*
X98791857Y-48682711D01*
X98791855Y-48682708D01*
X98788698Y-48678200D01*
X98626800Y-48516302D01*
X98622289Y-48513143D01*
X98618076Y-48509608D01*
X98618888Y-48508640D01*
X98578410Y-48458006D01*
X98571096Y-48387387D01*
X98603124Y-48324024D01*
X98664323Y-48288036D01*
X98681401Y-48284980D01*
X98684852Y-48284605D01*
X98700104Y-48280979D01*
X98820554Y-48235824D01*
X98836149Y-48227286D01*
X98938224Y-48150785D01*
X98950785Y-48138224D01*
X99027286Y-48036149D01*
X99035824Y-48020554D01*
X99080978Y-47900106D01*
X99084605Y-47884851D01*
X99090131Y-47833986D01*
X99090500Y-47827172D01*
X99090500Y-47254615D01*
X99086025Y-47239376D01*
X99084635Y-47238171D01*
X99076952Y-47236500D01*
X96492616Y-47236500D01*
X96477377Y-47240975D01*
X96476172Y-47242365D01*
X96474501Y-47250048D01*
X96474501Y-47827169D01*
X96474871Y-47833990D01*
X96480395Y-47884852D01*
X96484021Y-47900104D01*
X96529176Y-48020554D01*
X96537714Y-48036149D01*
X96614215Y-48138224D01*
X96626776Y-48150785D01*
X96728851Y-48227286D01*
X96744446Y-48235824D01*
X96864894Y-48280978D01*
X96880143Y-48284604D01*
X96883596Y-48284979D01*
X96886106Y-48286022D01*
X96887831Y-48286432D01*
X96887765Y-48286711D01*
X96949159Y-48312219D01*
X96989588Y-48370580D01*
X96992046Y-48441534D01*
X96955753Y-48502554D01*
X96944260Y-48511844D01*
X96942714Y-48513141D01*
X96938200Y-48516302D01*
X96776302Y-48678200D01*
X96773145Y-48682708D01*
X96773143Y-48682711D01*
X96736429Y-48735144D01*
X96644977Y-48865751D01*
X96642654Y-48870733D01*
X96642651Y-48870738D01*
X96630814Y-48896123D01*
X96548216Y-49073257D01*
X96488957Y-49294413D01*
X96469002Y-49522500D01*
X96488957Y-49750587D01*
X96548216Y-49971743D01*
X96550539Y-49976724D01*
X96550539Y-49976725D01*
X96642651Y-50174262D01*
X96642654Y-50174267D01*
X96644977Y-50179249D01*
X96776302Y-50366800D01*
X96938200Y-50528698D01*
X96942708Y-50531855D01*
X96942711Y-50531857D01*
X96945656Y-50533919D01*
X97125751Y-50660023D01*
X97130733Y-50662346D01*
X97130738Y-50662349D01*
X97164957Y-50678305D01*
X97218242Y-50725222D01*
X97237703Y-50793499D01*
X97217161Y-50861459D01*
X97164957Y-50906695D01*
X97130738Y-50922651D01*
X97130733Y-50922654D01*
X97125751Y-50924977D01*
X97020889Y-50998402D01*
X96942711Y-51053143D01*
X96942708Y-51053145D01*
X96938200Y-51056302D01*
X96776302Y-51218200D01*
X96644977Y-51405751D01*
X96642654Y-51410733D01*
X96642651Y-51410738D01*
X96550539Y-51608275D01*
X96548216Y-51613257D01*
X96488957Y-51834413D01*
X96469002Y-52062500D01*
X96488957Y-52290587D01*
X96490381Y-52295900D01*
X96490381Y-52295902D01*
X96541908Y-52488200D01*
X96548216Y-52511743D01*
X96550539Y-52516724D01*
X96550539Y-52516725D01*
X96642651Y-52714262D01*
X96642654Y-52714267D01*
X96644977Y-52719249D01*
X96648134Y-52723757D01*
X96763656Y-52888739D01*
X96776302Y-52906800D01*
X96938200Y-53068698D01*
X96942708Y-53071855D01*
X96942711Y-53071857D01*
X96981744Y-53099188D01*
X97125751Y-53200023D01*
X97130733Y-53202346D01*
X97130738Y-53202349D01*
X97164957Y-53218305D01*
X97218242Y-53265222D01*
X97237703Y-53333499D01*
X97217161Y-53401459D01*
X97164957Y-53446695D01*
X97130738Y-53462651D01*
X97130733Y-53462654D01*
X97125751Y-53464977D01*
X97020889Y-53538402D01*
X96942711Y-53593143D01*
X96942708Y-53593145D01*
X96938200Y-53596302D01*
X96776302Y-53758200D01*
X96773145Y-53762708D01*
X96773143Y-53762711D01*
X96743805Y-53804610D01*
X96644977Y-53945751D01*
X96642654Y-53950733D01*
X96642651Y-53950738D01*
X96590526Y-54062522D01*
X96548216Y-54153257D01*
X96546794Y-54158565D01*
X96546793Y-54158567D01*
X96515154Y-54276646D01*
X96488957Y-54374413D01*
X96469002Y-54602500D01*
X96488957Y-54830587D01*
X96490381Y-54835900D01*
X96490381Y-54835902D01*
X96506114Y-54894616D01*
X96548216Y-55051743D01*
X96550539Y-55056724D01*
X96550539Y-55056725D01*
X96642651Y-55254262D01*
X96642654Y-55254267D01*
X96644977Y-55259249D01*
X96648134Y-55263757D01*
X96771174Y-55439476D01*
X96776302Y-55446800D01*
X96938200Y-55608698D01*
X96942708Y-55611855D01*
X96942711Y-55611857D01*
X96963865Y-55626669D01*
X97125751Y-55740023D01*
X97130733Y-55742346D01*
X97130738Y-55742349D01*
X97164957Y-55758305D01*
X97218242Y-55805222D01*
X97237703Y-55873499D01*
X97217161Y-55941459D01*
X97164957Y-55986695D01*
X97130738Y-56002651D01*
X97130733Y-56002654D01*
X97125751Y-56004977D01*
X97020889Y-56078402D01*
X96942711Y-56133143D01*
X96942708Y-56133145D01*
X96938200Y-56136302D01*
X96776302Y-56298200D01*
X96644977Y-56485751D01*
X96642654Y-56490733D01*
X96642651Y-56490738D01*
X96590526Y-56602522D01*
X96548216Y-56693257D01*
X96546794Y-56698565D01*
X96546793Y-56698567D01*
X96515154Y-56816646D01*
X96488957Y-56914413D01*
X96469002Y-57142500D01*
X96488957Y-57370587D01*
X96490381Y-57375900D01*
X96490381Y-57375902D01*
X96506114Y-57434616D01*
X96548216Y-57591743D01*
X96550539Y-57596724D01*
X96550539Y-57596725D01*
X96642651Y-57794262D01*
X96642654Y-57794267D01*
X96644977Y-57799249D01*
X96648134Y-57803757D01*
X96771174Y-57979476D01*
X96776302Y-57986800D01*
X96938200Y-58148698D01*
X96942708Y-58151855D01*
X96942711Y-58151857D01*
X96963865Y-58166669D01*
X97125751Y-58280023D01*
X97130733Y-58282346D01*
X97130738Y-58282349D01*
X97164957Y-58298305D01*
X97218242Y-58345222D01*
X97237703Y-58413499D01*
X97217161Y-58481459D01*
X97164957Y-58526695D01*
X97130738Y-58542651D01*
X97130733Y-58542654D01*
X97125751Y-58544977D01*
X97020889Y-58618402D01*
X96942711Y-58673143D01*
X96942708Y-58673145D01*
X96938200Y-58676302D01*
X96776302Y-58838200D01*
X96644977Y-59025751D01*
X96642654Y-59030733D01*
X96642651Y-59030738D01*
X96590526Y-59142522D01*
X96548216Y-59233257D01*
X96546794Y-59238565D01*
X96546793Y-59238567D01*
X96515154Y-59356646D01*
X96488957Y-59454413D01*
X96469002Y-59682500D01*
X93726909Y-59682500D01*
X93735865Y-59653023D01*
X93735865Y-59653021D01*
X93737370Y-59648069D01*
X93766529Y-59426590D01*
X93768156Y-59360000D01*
X93749852Y-59137361D01*
X93695431Y-58920702D01*
X93606354Y-58715840D01*
X93485014Y-58528277D01*
X93334670Y-58363051D01*
X93330619Y-58359852D01*
X93330615Y-58359848D01*
X93163414Y-58227800D01*
X93163410Y-58227798D01*
X93159359Y-58224598D01*
X93118053Y-58201796D01*
X93068084Y-58151364D01*
X93053312Y-58081921D01*
X93078428Y-58015516D01*
X93105780Y-57988909D01*
X93149603Y-57957650D01*
X93284860Y-57861173D01*
X93443096Y-57703489D01*
X93502594Y-57620689D01*
X93570435Y-57526277D01*
X93573453Y-57522077D01*
X93672430Y-57321811D01*
X93726909Y-57142500D01*
X93735865Y-57113023D01*
X93735865Y-57113021D01*
X93737370Y-57108069D01*
X93766529Y-56886590D01*
X93768156Y-56820000D01*
X93749852Y-56597361D01*
X93695431Y-56380702D01*
X93606354Y-56175840D01*
X93485014Y-55988277D01*
X93334670Y-55823051D01*
X93330619Y-55819852D01*
X93330615Y-55819848D01*
X93163414Y-55687800D01*
X93163410Y-55687798D01*
X93159359Y-55684598D01*
X93118053Y-55661796D01*
X93068084Y-55611364D01*
X93053312Y-55541921D01*
X93078428Y-55475516D01*
X93105780Y-55448909D01*
X93149603Y-55417650D01*
X93284860Y-55321173D01*
X93443096Y-55163489D01*
X93502594Y-55080689D01*
X93570435Y-54986277D01*
X93573453Y-54982077D01*
X93672430Y-54781811D01*
X93726909Y-54602500D01*
X93735865Y-54573023D01*
X93735865Y-54573021D01*
X93737370Y-54568069D01*
X93766529Y-54346590D01*
X93768156Y-54280000D01*
X93749852Y-54057361D01*
X93695431Y-53840702D01*
X93606354Y-53635840D01*
X93557671Y-53560587D01*
X93487822Y-53452617D01*
X93487820Y-53452614D01*
X93485014Y-53448277D01*
X93481532Y-53444450D01*
X93337798Y-53286488D01*
X93306746Y-53222642D01*
X93315141Y-53152143D01*
X93360317Y-53097375D01*
X93386761Y-53083706D01*
X93493297Y-53043767D01*
X93501705Y-53040615D01*
X93618261Y-52953261D01*
X93705615Y-52836705D01*
X93756745Y-52700316D01*
X93763500Y-52638134D01*
X93763500Y-50841866D01*
X93756745Y-50779684D01*
X93705615Y-50643295D01*
X93618261Y-50526739D01*
X93501705Y-50439385D01*
X93365316Y-50388255D01*
X93303134Y-50381500D01*
X91506866Y-50381500D01*
X91444684Y-50388255D01*
X91308295Y-50439385D01*
X91191739Y-50526739D01*
X91104385Y-50643295D01*
X91053255Y-50779684D01*
X91046500Y-50841866D01*
X91046500Y-52638134D01*
X91053255Y-52700316D01*
X91104385Y-52836705D01*
X91191739Y-52953261D01*
X91308295Y-53040615D01*
X91316704Y-53043767D01*
X91316705Y-53043768D01*
X91425451Y-53084535D01*
X91482216Y-53127176D01*
X91506916Y-53193738D01*
X91491709Y-53263087D01*
X91472316Y-53289568D01*
X91345629Y-53422138D01*
X91219743Y-53606680D01*
X91204003Y-53640590D01*
X91140947Y-53776433D01*
X91125688Y-53809305D01*
X91065989Y-54024570D01*
X91042251Y-54246695D01*
X91042548Y-54251848D01*
X91042548Y-54251851D01*
X91049615Y-54374413D01*
X91055110Y-54469715D01*
X91056247Y-54474761D01*
X91056248Y-54474767D01*
X91076119Y-54562939D01*
X91104222Y-54687639D01*
X91188266Y-54894616D01*
X91304987Y-55085088D01*
X91451250Y-55253938D01*
X91623126Y-55396632D01*
X91693595Y-55437811D01*
X91696445Y-55439476D01*
X91745169Y-55491114D01*
X91758240Y-55560897D01*
X91731509Y-55626669D01*
X91691055Y-55660027D01*
X91678607Y-55666507D01*
X91674474Y-55669610D01*
X91674471Y-55669612D01*
X91556343Y-55758305D01*
X91499965Y-55800635D01*
X91345629Y-55962138D01*
X91219743Y-56146680D01*
X91125688Y-56349305D01*
X91065989Y-56564570D01*
X91042251Y-56786695D01*
X91042548Y-56791848D01*
X91042548Y-56791851D01*
X91049615Y-56914413D01*
X91055110Y-57009715D01*
X91056247Y-57014761D01*
X91056248Y-57014767D01*
X91076119Y-57102939D01*
X91104222Y-57227639D01*
X91188266Y-57434616D01*
X91304987Y-57625088D01*
X91451250Y-57793938D01*
X91623126Y-57936632D01*
X91693595Y-57977811D01*
X91696445Y-57979476D01*
X91745169Y-58031114D01*
X91758240Y-58100897D01*
X91731509Y-58166669D01*
X91691055Y-58200027D01*
X91678607Y-58206507D01*
X91674474Y-58209610D01*
X91674471Y-58209612D01*
X91556343Y-58298305D01*
X91499965Y-58340635D01*
X91345629Y-58502138D01*
X91219743Y-58686680D01*
X91125688Y-58889305D01*
X91065989Y-59104570D01*
X91042251Y-59326695D01*
X77961000Y-59326695D01*
X77961000Y-53332500D01*
X81219002Y-53332500D01*
X81238957Y-53560587D01*
X81240381Y-53565900D01*
X81240381Y-53565902D01*
X81291908Y-53758200D01*
X81298216Y-53781743D01*
X81300539Y-53786724D01*
X81300539Y-53786725D01*
X81392651Y-53984262D01*
X81392654Y-53984267D01*
X81394977Y-53989249D01*
X81468402Y-54094111D01*
X81506329Y-54148275D01*
X81526302Y-54176800D01*
X81688200Y-54338698D01*
X81692708Y-54341855D01*
X81692711Y-54341857D01*
X81739206Y-54374413D01*
X81875751Y-54470023D01*
X81880733Y-54472346D01*
X81880738Y-54472349D01*
X82075011Y-54562939D01*
X82083257Y-54566784D01*
X82088565Y-54568206D01*
X82088567Y-54568207D01*
X82299098Y-54624619D01*
X82299100Y-54624619D01*
X82304413Y-54626043D01*
X82532500Y-54645998D01*
X82760587Y-54626043D01*
X82765900Y-54624619D01*
X82765902Y-54624619D01*
X82976433Y-54568207D01*
X82976435Y-54568206D01*
X82981743Y-54566784D01*
X82989989Y-54562939D01*
X83184262Y-54472349D01*
X83184267Y-54472346D01*
X83189249Y-54470023D01*
X83262743Y-54418562D01*
X86810993Y-54418562D01*
X86820289Y-54430577D01*
X86871494Y-54466431D01*
X86880989Y-54471914D01*
X87078447Y-54563990D01*
X87088739Y-54567736D01*
X87299188Y-54624125D01*
X87309981Y-54626028D01*
X87527025Y-54645017D01*
X87537975Y-54645017D01*
X87755019Y-54626028D01*
X87765812Y-54624125D01*
X87976261Y-54567736D01*
X87986553Y-54563990D01*
X88184011Y-54471914D01*
X88193506Y-54466431D01*
X88245548Y-54429991D01*
X88253924Y-54419512D01*
X88246856Y-54406066D01*
X87545312Y-53704522D01*
X87531368Y-53696908D01*
X87529535Y-53697039D01*
X87522920Y-53701290D01*
X86817423Y-54406787D01*
X86810993Y-54418562D01*
X83262743Y-54418562D01*
X83325794Y-54374413D01*
X83372289Y-54341857D01*
X83372292Y-54341855D01*
X83376800Y-54338698D01*
X83538698Y-54176800D01*
X83558672Y-54148275D01*
X83596598Y-54094111D01*
X83670023Y-53989249D01*
X83672346Y-53984267D01*
X83672349Y-53984262D01*
X83764461Y-53786725D01*
X83764461Y-53786724D01*
X83766784Y-53781743D01*
X83773093Y-53758200D01*
X83824619Y-53565902D01*
X83824619Y-53565900D01*
X83826043Y-53560587D01*
X83845519Y-53337975D01*
X86219983Y-53337975D01*
X86238972Y-53555019D01*
X86240875Y-53565812D01*
X86297264Y-53776261D01*
X86301010Y-53786553D01*
X86393086Y-53984011D01*
X86398569Y-53993506D01*
X86435009Y-54045548D01*
X86445488Y-54053924D01*
X86458934Y-54046856D01*
X87160478Y-53345312D01*
X87166856Y-53333632D01*
X87896908Y-53333632D01*
X87897039Y-53335465D01*
X87901290Y-53342080D01*
X88606787Y-54047577D01*
X88618562Y-54054007D01*
X88630577Y-54044711D01*
X88666431Y-53993506D01*
X88671914Y-53984011D01*
X88763990Y-53786553D01*
X88767736Y-53776261D01*
X88824125Y-53565812D01*
X88826028Y-53555019D01*
X88845017Y-53337975D01*
X88845017Y-53327025D01*
X88826028Y-53109981D01*
X88824125Y-53099188D01*
X88767736Y-52888739D01*
X88763990Y-52878447D01*
X88671914Y-52680989D01*
X88666431Y-52671494D01*
X88629991Y-52619452D01*
X88619512Y-52611076D01*
X88606066Y-52618144D01*
X87904522Y-53319688D01*
X87896908Y-53333632D01*
X87166856Y-53333632D01*
X87168092Y-53331368D01*
X87167961Y-53329535D01*
X87163710Y-53322920D01*
X86458213Y-52617423D01*
X86446438Y-52610993D01*
X86434423Y-52620289D01*
X86398569Y-52671494D01*
X86393086Y-52680989D01*
X86301010Y-52878447D01*
X86297264Y-52888739D01*
X86240875Y-53099188D01*
X86238972Y-53109981D01*
X86219983Y-53327025D01*
X86219983Y-53337975D01*
X83845519Y-53337975D01*
X83845998Y-53332500D01*
X83826043Y-53104413D01*
X83789481Y-52967961D01*
X83768207Y-52888567D01*
X83768206Y-52888565D01*
X83766784Y-52883257D01*
X83764461Y-52878275D01*
X83672349Y-52680738D01*
X83672346Y-52680733D01*
X83670023Y-52675751D01*
X83596598Y-52570889D01*
X83541857Y-52492711D01*
X83541855Y-52492708D01*
X83538698Y-52488200D01*
X83376800Y-52326302D01*
X83372292Y-52323145D01*
X83372289Y-52323143D01*
X83261386Y-52245488D01*
X86811076Y-52245488D01*
X86818144Y-52258934D01*
X87519688Y-52960478D01*
X87533632Y-52968092D01*
X87535465Y-52967961D01*
X87542080Y-52963710D01*
X88247577Y-52258213D01*
X88254007Y-52246438D01*
X88244711Y-52234423D01*
X88193506Y-52198569D01*
X88184011Y-52193086D01*
X87986553Y-52101010D01*
X87976261Y-52097264D01*
X87765812Y-52040875D01*
X87755019Y-52038972D01*
X87537975Y-52019983D01*
X87527025Y-52019983D01*
X87309981Y-52038972D01*
X87299188Y-52040875D01*
X87088739Y-52097264D01*
X87078447Y-52101010D01*
X86880989Y-52193086D01*
X86871494Y-52198569D01*
X86819452Y-52235009D01*
X86811076Y-52245488D01*
X83261386Y-52245488D01*
X83246420Y-52235009D01*
X83189249Y-52194977D01*
X83184267Y-52192654D01*
X83184262Y-52192651D01*
X82986725Y-52100539D01*
X82986724Y-52100539D01*
X82981743Y-52098216D01*
X82976435Y-52096794D01*
X82976433Y-52096793D01*
X82765902Y-52040381D01*
X82765900Y-52040381D01*
X82760587Y-52038957D01*
X82532500Y-52019002D01*
X82304413Y-52038957D01*
X82299100Y-52040381D01*
X82299098Y-52040381D01*
X82088567Y-52096793D01*
X82088565Y-52096794D01*
X82083257Y-52098216D01*
X82078276Y-52100539D01*
X82078275Y-52100539D01*
X81880738Y-52192651D01*
X81880733Y-52192654D01*
X81875751Y-52194977D01*
X81818580Y-52235009D01*
X81692711Y-52323143D01*
X81692708Y-52323145D01*
X81688200Y-52326302D01*
X81526302Y-52488200D01*
X81523145Y-52492708D01*
X81523143Y-52492711D01*
X81468402Y-52570889D01*
X81394977Y-52675751D01*
X81392654Y-52680733D01*
X81392651Y-52680738D01*
X81300539Y-52878275D01*
X81298216Y-52883257D01*
X81296794Y-52888565D01*
X81296793Y-52888567D01*
X81275519Y-52967961D01*
X81238957Y-53104413D01*
X81219002Y-53332500D01*
X77961000Y-53332500D01*
X77961000Y-48896123D01*
X77961002Y-48895353D01*
X77961421Y-48826754D01*
X77961476Y-48817779D01*
X77953350Y-48789347D01*
X77949772Y-48772585D01*
X77946852Y-48752198D01*
X77945580Y-48743313D01*
X77934951Y-48719936D01*
X77928504Y-48702413D01*
X77923916Y-48686362D01*
X77921449Y-48677729D01*
X77916656Y-48670132D01*
X77905670Y-48652720D01*
X77897530Y-48637635D01*
X77885292Y-48610718D01*
X77868530Y-48591265D01*
X77857427Y-48576261D01*
X77843724Y-48554542D01*
X77836999Y-48548603D01*
X77836996Y-48548599D01*
X77821562Y-48534968D01*
X77809518Y-48522776D01*
X77796073Y-48507173D01*
X77796070Y-48507171D01*
X77790213Y-48500373D01*
X77768665Y-48486406D01*
X77753791Y-48475115D01*
X77741283Y-48464069D01*
X77741282Y-48464068D01*
X77734549Y-48458122D01*
X77707787Y-48445557D01*
X77692809Y-48437237D01*
X77675517Y-48426029D01*
X77675512Y-48426027D01*
X77667985Y-48421148D01*
X77659392Y-48418578D01*
X77659387Y-48418576D01*
X77643380Y-48413789D01*
X77625936Y-48407128D01*
X77610824Y-48400033D01*
X77610822Y-48400032D01*
X77602700Y-48396219D01*
X77593833Y-48394838D01*
X77593832Y-48394838D01*
X77584190Y-48393337D01*
X77573483Y-48391670D01*
X77556768Y-48387887D01*
X77537034Y-48381985D01*
X77537028Y-48381984D01*
X77528434Y-48379414D01*
X77519463Y-48379359D01*
X77519462Y-48379359D01*
X77509403Y-48379298D01*
X77493994Y-48379204D01*
X77493211Y-48379171D01*
X77492114Y-48379000D01*
X77461123Y-48379000D01*
X77460353Y-48378998D01*
X77386715Y-48378548D01*
X77386714Y-48378548D01*
X77382779Y-48378524D01*
X77381435Y-48378908D01*
X77380090Y-48379000D01*
X63482000Y-48379000D01*
X63413879Y-48358998D01*
X63367386Y-48305342D01*
X63356000Y-48253000D01*
X63356000Y-46710385D01*
X96474500Y-46710385D01*
X96478975Y-46725624D01*
X96480365Y-46726829D01*
X96488048Y-46728500D01*
X97510385Y-46728500D01*
X97525624Y-46724025D01*
X97526829Y-46722635D01*
X97528500Y-46714952D01*
X97528500Y-46710385D01*
X98036500Y-46710385D01*
X98040975Y-46725624D01*
X98042365Y-46726829D01*
X98050048Y-46728500D01*
X99072384Y-46728500D01*
X99087623Y-46724025D01*
X99088828Y-46722635D01*
X99090499Y-46714952D01*
X99090499Y-46137831D01*
X99090129Y-46131010D01*
X99084605Y-46080148D01*
X99080979Y-46064896D01*
X99035824Y-45944446D01*
X99027286Y-45928851D01*
X98950785Y-45826776D01*
X98938224Y-45814215D01*
X98836149Y-45737714D01*
X98820554Y-45729176D01*
X98700106Y-45684022D01*
X98684851Y-45680395D01*
X98633986Y-45674869D01*
X98627172Y-45674500D01*
X98054615Y-45674500D01*
X98039376Y-45678975D01*
X98038171Y-45680365D01*
X98036500Y-45688048D01*
X98036500Y-46710385D01*
X97528500Y-46710385D01*
X97528500Y-45692616D01*
X97524025Y-45677377D01*
X97522635Y-45676172D01*
X97514952Y-45674501D01*
X96937831Y-45674501D01*
X96931010Y-45674871D01*
X96880148Y-45680395D01*
X96864896Y-45684021D01*
X96744446Y-45729176D01*
X96728851Y-45737714D01*
X96626776Y-45814215D01*
X96614215Y-45826776D01*
X96537714Y-45928851D01*
X96529176Y-45944446D01*
X96484022Y-46064894D01*
X96480395Y-46080149D01*
X96474869Y-46131014D01*
X96474500Y-46137828D01*
X96474500Y-46710385D01*
X63356000Y-46710385D01*
X63356000Y-42195466D01*
X81185757Y-42195466D01*
X81216065Y-42329946D01*
X81219145Y-42339775D01*
X81299270Y-42537103D01*
X81303913Y-42546294D01*
X81415194Y-42727888D01*
X81421277Y-42736199D01*
X81560713Y-42897167D01*
X81568080Y-42904383D01*
X81731934Y-43040416D01*
X81740381Y-43046331D01*
X81924256Y-43153779D01*
X81933542Y-43158229D01*
X82132501Y-43234203D01*
X82142399Y-43237079D01*
X82245750Y-43258106D01*
X82259799Y-43256910D01*
X82263500Y-43246565D01*
X82263500Y-43246017D01*
X82771500Y-43246017D01*
X82775564Y-43259859D01*
X82788978Y-43261893D01*
X82795684Y-43261034D01*
X82805762Y-43258892D01*
X83009755Y-43197691D01*
X83019342Y-43193933D01*
X83210595Y-43100239D01*
X83219445Y-43094964D01*
X83392828Y-42971292D01*
X83400700Y-42964639D01*
X83551552Y-42814312D01*
X83558230Y-42806465D01*
X83685522Y-42629319D01*
X83686779Y-42630222D01*
X83733873Y-42586862D01*
X83803811Y-42574645D01*
X83869251Y-42602178D01*
X83897079Y-42634011D01*
X83957487Y-42732588D01*
X84103750Y-42901438D01*
X84275626Y-43044132D01*
X84468500Y-43156838D01*
X84677192Y-43236530D01*
X84682260Y-43237561D01*
X84682263Y-43237562D01*
X84777362Y-43256910D01*
X84896097Y-43281067D01*
X84901272Y-43281257D01*
X84901274Y-43281257D01*
X85114173Y-43289064D01*
X85114177Y-43289064D01*
X85119337Y-43289253D01*
X85124457Y-43288597D01*
X85124459Y-43288597D01*
X85335788Y-43261525D01*
X85335789Y-43261525D01*
X85340916Y-43260868D01*
X85345866Y-43259383D01*
X85549929Y-43198161D01*
X85549934Y-43198159D01*
X85554884Y-43196674D01*
X85755494Y-43098396D01*
X85937360Y-42968673D01*
X86045591Y-42860819D01*
X86107962Y-42826904D01*
X86178768Y-42832092D01*
X86235530Y-42874738D01*
X86252512Y-42905841D01*
X86296885Y-43024205D01*
X86384239Y-43140761D01*
X86500795Y-43228115D01*
X86637184Y-43279245D01*
X86699366Y-43286000D01*
X88495634Y-43286000D01*
X88557816Y-43279245D01*
X88694205Y-43228115D01*
X88810761Y-43140761D01*
X88898115Y-43024205D01*
X88949245Y-42887816D01*
X88956000Y-42825634D01*
X88956000Y-41029366D01*
X88949245Y-40967184D01*
X88898115Y-40830795D01*
X88810761Y-40714239D01*
X88694205Y-40626885D01*
X88557816Y-40575755D01*
X88495634Y-40569000D01*
X86699366Y-40569000D01*
X86637184Y-40575755D01*
X86500795Y-40626885D01*
X86384239Y-40714239D01*
X86296885Y-40830795D01*
X86293733Y-40839203D01*
X86252419Y-40949407D01*
X86209777Y-41006171D01*
X86143216Y-41030871D01*
X86073867Y-41015663D01*
X86041243Y-40989976D01*
X85990651Y-40934375D01*
X85990642Y-40934366D01*
X85987170Y-40930551D01*
X85983119Y-40927352D01*
X85983115Y-40927348D01*
X85815914Y-40795300D01*
X85815910Y-40795298D01*
X85811859Y-40792098D01*
X85775528Y-40772042D01*
X85759636Y-40763269D01*
X85616289Y-40684138D01*
X85611420Y-40682414D01*
X85611416Y-40682412D01*
X85410587Y-40611295D01*
X85410583Y-40611294D01*
X85405712Y-40609569D01*
X85400619Y-40608662D01*
X85400616Y-40608661D01*
X85190873Y-40571300D01*
X85190867Y-40571299D01*
X85185784Y-40570394D01*
X85111952Y-40569492D01*
X84967581Y-40567728D01*
X84967579Y-40567728D01*
X84962411Y-40567665D01*
X84741591Y-40601455D01*
X84529256Y-40670857D01*
X84331107Y-40774007D01*
X84326974Y-40777110D01*
X84326971Y-40777112D01*
X84156600Y-40905030D01*
X84152465Y-40908135D01*
X84127041Y-40934740D01*
X84058780Y-41006171D01*
X83998129Y-41069638D01*
X83995215Y-41073910D01*
X83995214Y-41073911D01*
X83890398Y-41227566D01*
X83835487Y-41272569D01*
X83764962Y-41280740D01*
X83701215Y-41249486D01*
X83680518Y-41225002D01*
X83599926Y-41100426D01*
X83593636Y-41092257D01*
X83450306Y-40934740D01*
X83442773Y-40927715D01*
X83275639Y-40795722D01*
X83267052Y-40790017D01*
X83080617Y-40687099D01*
X83071205Y-40682869D01*
X82870459Y-40611780D01*
X82860488Y-40609146D01*
X82789337Y-40596472D01*
X82776040Y-40597932D01*
X82771500Y-40612489D01*
X82771500Y-43246017D01*
X82263500Y-43246017D01*
X82263500Y-42199615D01*
X82259025Y-42184376D01*
X82257635Y-42183171D01*
X82249952Y-42181500D01*
X81200725Y-42181500D01*
X81187194Y-42185473D01*
X81185757Y-42195466D01*
X63356000Y-42195466D01*
X63356000Y-41661683D01*
X81181889Y-41661683D01*
X81183412Y-41670107D01*
X81195792Y-41673500D01*
X82245385Y-41673500D01*
X82260624Y-41669025D01*
X82261829Y-41667635D01*
X82263500Y-41659952D01*
X82263500Y-40610602D01*
X82259582Y-40597258D01*
X82245306Y-40595271D01*
X82206824Y-40601160D01*
X82196788Y-40603551D01*
X81994368Y-40669712D01*
X81984859Y-40673709D01*
X81795963Y-40772042D01*
X81787238Y-40777536D01*
X81616933Y-40905405D01*
X81609226Y-40912248D01*
X81462090Y-41066217D01*
X81455604Y-41074227D01*
X81335598Y-41250149D01*
X81330500Y-41259123D01*
X81240838Y-41452283D01*
X81237275Y-41461970D01*
X81181889Y-41661683D01*
X63356000Y-41661683D01*
X63356000Y-39495203D01*
X135668243Y-39495203D01*
X135705768Y-39780234D01*
X135781629Y-40057536D01*
X135894423Y-40321976D01*
X136042061Y-40568661D01*
X136221813Y-40793028D01*
X136430351Y-40990923D01*
X136663817Y-41158686D01*
X136667612Y-41160695D01*
X136667613Y-41160696D01*
X136689369Y-41172215D01*
X136917892Y-41293212D01*
X137187873Y-41392011D01*
X137468764Y-41453255D01*
X137497341Y-41455504D01*
X137691782Y-41470807D01*
X137691791Y-41470807D01*
X137694239Y-41471000D01*
X137849771Y-41471000D01*
X137851907Y-41470854D01*
X137851918Y-41470854D01*
X138060048Y-41456665D01*
X138060054Y-41456664D01*
X138064325Y-41456373D01*
X138068520Y-41455504D01*
X138068522Y-41455504D01*
X138205083Y-41427224D01*
X138345842Y-41398074D01*
X138616843Y-41302107D01*
X138872312Y-41170250D01*
X138875813Y-41167789D01*
X138875817Y-41167787D01*
X139008939Y-41074227D01*
X139107523Y-41004941D01*
X139207676Y-40911873D01*
X139314979Y-40812161D01*
X139314981Y-40812158D01*
X139318122Y-40809240D01*
X139500213Y-40586768D01*
X139650427Y-40341642D01*
X139765983Y-40078398D01*
X139844744Y-39801906D01*
X139885251Y-39517284D01*
X139885345Y-39499451D01*
X139886735Y-39234083D01*
X139886735Y-39234076D01*
X139886757Y-39229797D01*
X139849232Y-38944766D01*
X139773371Y-38667464D01*
X139731976Y-38570416D01*
X139662263Y-38406976D01*
X139662261Y-38406972D01*
X139660577Y-38403024D01*
X139552023Y-38221644D01*
X139515143Y-38160021D01*
X139515140Y-38160017D01*
X139512939Y-38156339D01*
X139333187Y-37931972D01*
X139207788Y-37812973D01*
X139127758Y-37737027D01*
X139127755Y-37737025D01*
X139124649Y-37734077D01*
X138891183Y-37566314D01*
X138869343Y-37554750D01*
X138685669Y-37457500D01*
X138637108Y-37431788D01*
X138367127Y-37332989D01*
X138086236Y-37271745D01*
X138055185Y-37269301D01*
X137863218Y-37254193D01*
X137863209Y-37254193D01*
X137860761Y-37254000D01*
X137705229Y-37254000D01*
X137703093Y-37254146D01*
X137703082Y-37254146D01*
X137494952Y-37268335D01*
X137494946Y-37268336D01*
X137490675Y-37268627D01*
X137486480Y-37269496D01*
X137486478Y-37269496D01*
X137349916Y-37297777D01*
X137209158Y-37326926D01*
X136938157Y-37422893D01*
X136682688Y-37554750D01*
X136679187Y-37557211D01*
X136679183Y-37557213D01*
X136630493Y-37591433D01*
X136447477Y-37720059D01*
X136369097Y-37792894D01*
X136291353Y-37865139D01*
X136236878Y-37915760D01*
X136054787Y-38138232D01*
X135904573Y-38383358D01*
X135789017Y-38646602D01*
X135710256Y-38923094D01*
X135669749Y-39207716D01*
X135669727Y-39212005D01*
X135669726Y-39212012D01*
X135668265Y-39490917D01*
X135668243Y-39495203D01*
X63356000Y-39495203D01*
X63356000Y-38352169D01*
X75459501Y-38352169D01*
X75459871Y-38358990D01*
X75465395Y-38409852D01*
X75469021Y-38425104D01*
X75514176Y-38545554D01*
X75522714Y-38561149D01*
X75599215Y-38663224D01*
X75611776Y-38675785D01*
X75713851Y-38752286D01*
X75729446Y-38760824D01*
X75849894Y-38805978D01*
X75865149Y-38809605D01*
X75916014Y-38815131D01*
X75922828Y-38815500D01*
X76545385Y-38815500D01*
X76560624Y-38811025D01*
X76561829Y-38809635D01*
X76563500Y-38801952D01*
X76563500Y-37729615D01*
X76559025Y-37714376D01*
X76557635Y-37713171D01*
X76549952Y-37711500D01*
X75477616Y-37711500D01*
X75462377Y-37715975D01*
X75461172Y-37717365D01*
X75459501Y-37725048D01*
X75459501Y-38352169D01*
X63356000Y-38352169D01*
X63356000Y-36320203D01*
X69628243Y-36320203D01*
X69628802Y-36324447D01*
X69628802Y-36324451D01*
X69645310Y-36449840D01*
X69665768Y-36605234D01*
X69741629Y-36882536D01*
X69743313Y-36886484D01*
X69830892Y-37091808D01*
X69854423Y-37146976D01*
X69880144Y-37189952D01*
X69965750Y-37332989D01*
X70002061Y-37393661D01*
X70181813Y-37618028D01*
X70390351Y-37815923D01*
X70623817Y-37983686D01*
X70627612Y-37985695D01*
X70627613Y-37985696D01*
X70649369Y-37997215D01*
X70877892Y-38118212D01*
X71147873Y-38217011D01*
X71428764Y-38278255D01*
X71457341Y-38280504D01*
X71651782Y-38295807D01*
X71651791Y-38295807D01*
X71654239Y-38296000D01*
X71809771Y-38296000D01*
X71811907Y-38295854D01*
X71811918Y-38295854D01*
X72020048Y-38281665D01*
X72020054Y-38281664D01*
X72024325Y-38281373D01*
X72028520Y-38280504D01*
X72028522Y-38280504D01*
X72165083Y-38252224D01*
X72305842Y-38223074D01*
X72576843Y-38127107D01*
X72832312Y-37995250D01*
X72835813Y-37992789D01*
X72835817Y-37992787D01*
X73017441Y-37865139D01*
X73067523Y-37829941D01*
X73173378Y-37731574D01*
X73274979Y-37637161D01*
X73274981Y-37637158D01*
X73278122Y-37634240D01*
X73460213Y-37411768D01*
X73598941Y-37185385D01*
X75459500Y-37185385D01*
X75463975Y-37200624D01*
X75465365Y-37201829D01*
X75473048Y-37203500D01*
X76545385Y-37203500D01*
X76560624Y-37199025D01*
X76561829Y-37197635D01*
X76563500Y-37189952D01*
X76563500Y-35189615D01*
X76559025Y-35174376D01*
X76557635Y-35173171D01*
X76549952Y-35171500D01*
X75500725Y-35171500D01*
X75487194Y-35175473D01*
X75485757Y-35185466D01*
X75516065Y-35319946D01*
X75519145Y-35329775D01*
X75599270Y-35527103D01*
X75603913Y-35536294D01*
X75715194Y-35717888D01*
X75721277Y-35726199D01*
X75860713Y-35887167D01*
X75868078Y-35894381D01*
X75873466Y-35898854D01*
X75913099Y-35957758D01*
X75914595Y-36028739D01*
X75877478Y-36089261D01*
X75837207Y-36113778D01*
X75729448Y-36154175D01*
X75713851Y-36162714D01*
X75611776Y-36239215D01*
X75599215Y-36251776D01*
X75522714Y-36353851D01*
X75514176Y-36369446D01*
X75469022Y-36489894D01*
X75465395Y-36505149D01*
X75459869Y-36556014D01*
X75459500Y-36562828D01*
X75459500Y-37185385D01*
X73598941Y-37185385D01*
X73610427Y-37166642D01*
X73725983Y-36903398D01*
X73804744Y-36626906D01*
X73845251Y-36342284D01*
X73845345Y-36324451D01*
X73846735Y-36059083D01*
X73846735Y-36059076D01*
X73846757Y-36054797D01*
X73844037Y-36034132D01*
X73813779Y-35804305D01*
X73809232Y-35769766D01*
X73797314Y-35726199D01*
X73768405Y-35620528D01*
X73733371Y-35492464D01*
X73663978Y-35329775D01*
X73622263Y-35231976D01*
X73622261Y-35231972D01*
X73620577Y-35228024D01*
X73508404Y-35040596D01*
X73475143Y-34985021D01*
X73475140Y-34985017D01*
X73472939Y-34981339D01*
X73293187Y-34756972D01*
X73084649Y-34559077D01*
X72851183Y-34391314D01*
X72829343Y-34379750D01*
X72806154Y-34367472D01*
X72597108Y-34256788D01*
X72327127Y-34157989D01*
X72046236Y-34096745D01*
X72015185Y-34094301D01*
X71823218Y-34079193D01*
X71823209Y-34079193D01*
X71820761Y-34079000D01*
X71665229Y-34079000D01*
X71663093Y-34079146D01*
X71663082Y-34079146D01*
X71454952Y-34093335D01*
X71454946Y-34093336D01*
X71450675Y-34093627D01*
X71446480Y-34094496D01*
X71446478Y-34094496D01*
X71309917Y-34122776D01*
X71169158Y-34151926D01*
X70898157Y-34247893D01*
X70642688Y-34379750D01*
X70639187Y-34382211D01*
X70639183Y-34382213D01*
X70547278Y-34446805D01*
X70407477Y-34545059D01*
X70392392Y-34559077D01*
X70210246Y-34728338D01*
X70196878Y-34740760D01*
X70014787Y-34963232D01*
X69864573Y-35208358D01*
X69749017Y-35471602D01*
X69670256Y-35748094D01*
X69629749Y-36032716D01*
X69629727Y-36037005D01*
X69629726Y-36037012D01*
X69628309Y-36307536D01*
X69628243Y-36320203D01*
X63356000Y-36320203D01*
X63356000Y-33647000D01*
X63376002Y-33578879D01*
X63429658Y-33532386D01*
X63482000Y-33521000D01*
X76044082Y-33521000D01*
X76112203Y-33541002D01*
G37*
%TD.AperFunction*%
M02*
