%TF.GenerationSoftware,KiCad,Pcbnew,(6.0.9)*%
%TF.CreationDate,2023-01-03T09:52:22-05:00*%
%TF.ProjectId,cape,63617065-2e6b-4696-9361-645f70636258,1.4*%
%TF.SameCoordinates,Original*%
%TF.FileFunction,Drillmap*%
%TF.FilePolarity,Positive*%
%FSLAX45Y45*%
G04 Gerber Fmt 4.5, Leading zero omitted, Abs format (unit mm)*
G04 Created by KiCad (PCBNEW (6.0.9)) date 2023-01-03 09:52:22*
%MOMM*%
%LPD*%
G01*
G04 APERTURE LIST*
%ADD10C,0.002540*%
%ADD11C,0.200000*%
%ADD12C,0.080000*%
%ADD13C,0.100000*%
G04 APERTURE END LIST*
D10*
X5713250Y-8127250D02*
G75*
G03*
X6348250Y-8762250I635000J0D01*
G01*
X14349250Y-7492250D02*
X14349250Y-4571250D01*
X6348250Y-8762250D02*
X13079250Y-8762250D01*
X7745250Y-6666750D02*
X5713250Y-6666750D01*
X6284750Y-3301250D02*
X6284750Y-4888750D01*
X5713250Y-6666750D02*
X5713250Y-8127250D01*
X13079250Y-3301250D02*
X6284750Y-3301250D01*
X13079250Y-8762250D02*
G75*
G03*
X14349250Y-7492250I0J1270000D01*
G01*
X14349250Y-4571250D02*
G75*
G03*
X13079250Y-3301250I-1270000J0D01*
G01*
X7745250Y-4888750D02*
X7745250Y-6666750D01*
X6284750Y-4888750D02*
X7745250Y-4888750D01*
D11*
D12*
X8213250Y-5293250D02*
X8293250Y-5373250D01*
X8293250Y-5293250D02*
X8213250Y-5373250D01*
X8713250Y-5293250D02*
X8793250Y-5373250D01*
X8793250Y-5293250D02*
X8713250Y-5373250D01*
X8725250Y-7706250D02*
X8805250Y-7786250D01*
X8805250Y-7706250D02*
X8725250Y-7786250D01*
X9225250Y-7706250D02*
X9305250Y-7786250D01*
X9305250Y-7706250D02*
X9225250Y-7786250D01*
X9738250Y-4658250D02*
X9818250Y-4738250D01*
X9818250Y-4658250D02*
X9738250Y-4738250D01*
X9738250Y-4912250D02*
X9818250Y-4992250D01*
X9818250Y-4912250D02*
X9738250Y-4992250D01*
X9738250Y-5166250D02*
X9818250Y-5246250D01*
X9818250Y-5166250D02*
X9738250Y-5246250D01*
X9738250Y-5420250D02*
X9818250Y-5500250D01*
X9818250Y-5420250D02*
X9738250Y-5500250D01*
X9738250Y-5674250D02*
X9818250Y-5754250D01*
X9818250Y-5674250D02*
X9738250Y-5754250D01*
X9738250Y-5928250D02*
X9818250Y-6008250D01*
X9818250Y-5928250D02*
X9738250Y-6008250D01*
X9738250Y-6182250D02*
X9818250Y-6262250D01*
X9818250Y-6182250D02*
X9738250Y-6262250D01*
X9738250Y-6436250D02*
X9818250Y-6516250D01*
X9818250Y-6436250D02*
X9738250Y-6516250D01*
X10050360Y-7414920D02*
X10130360Y-7494920D01*
X10130360Y-7414920D02*
X10050360Y-7494920D01*
X10550360Y-7414920D02*
X10630360Y-7494920D01*
X10630360Y-7414920D02*
X10550360Y-7494920D01*
X11008250Y-4658250D02*
X11088250Y-4738250D01*
X11088250Y-4658250D02*
X11008250Y-4738250D01*
X11008250Y-4912250D02*
X11088250Y-4992250D01*
X11088250Y-4912250D02*
X11008250Y-4992250D01*
X11008250Y-5166250D02*
X11088250Y-5246250D01*
X11088250Y-5166250D02*
X11008250Y-5246250D01*
X11008250Y-5420250D02*
X11088250Y-5500250D01*
X11088250Y-5420250D02*
X11008250Y-5500250D01*
X11008250Y-5674250D02*
X11088250Y-5754250D01*
X11088250Y-5674250D02*
X11008250Y-5754250D01*
X11008250Y-5928250D02*
X11088250Y-6008250D01*
X11088250Y-5928250D02*
X11008250Y-6008250D01*
X11008250Y-6182250D02*
X11088250Y-6262250D01*
X11088250Y-6182250D02*
X11008250Y-6262250D01*
X11008250Y-6436250D02*
X11088250Y-6516250D01*
X11088250Y-6436250D02*
X11008250Y-6516250D01*
X12150250Y-6944250D02*
X12230250Y-7024250D01*
X12230250Y-6944250D02*
X12150250Y-7024250D01*
X12150250Y-7325250D02*
X12230250Y-7405250D01*
X12230250Y-7325250D02*
X12150250Y-7405250D01*
X13166250Y-6944250D02*
X13246250Y-7024250D01*
X13246250Y-6944250D02*
X13166250Y-7024250D01*
X13166250Y-7325250D02*
X13246250Y-7405250D01*
X13246250Y-7325250D02*
X13166250Y-7405250D01*
D13*
X6367000Y-8095000D02*
G75*
G03*
X6367000Y-8095000I-50000J0D01*
G01*
X6621000Y-8095000D02*
G75*
G03*
X6621000Y-8095000I-50000J0D01*
G01*
X7129000Y-7206000D02*
G75*
G03*
X7129000Y-7206000I-50000J0D01*
G01*
X7383000Y-7206000D02*
G75*
G03*
X7383000Y-7206000I-50000J0D01*
G01*
X7637000Y-7206000D02*
G75*
G03*
X7637000Y-7206000I-50000J0D01*
G01*
X7731750Y-3491750D02*
G75*
G03*
X7731750Y-3491750I-50000J0D01*
G01*
X7731750Y-3745750D02*
G75*
G03*
X7731750Y-3745750I-50000J0D01*
G01*
X7731750Y-8317750D02*
G75*
G03*
X7731750Y-8317750I-50000J0D01*
G01*
X7731750Y-8571750D02*
G75*
G03*
X7731750Y-8571750I-50000J0D01*
G01*
X7985750Y-3491750D02*
G75*
G03*
X7985750Y-3491750I-50000J0D01*
G01*
X7985750Y-3745750D02*
G75*
G03*
X7985750Y-3745750I-50000J0D01*
G01*
X7985750Y-8317750D02*
G75*
G03*
X7985750Y-8317750I-50000J0D01*
G01*
X7985750Y-8571750D02*
G75*
G03*
X7985750Y-8571750I-50000J0D01*
G01*
X8239750Y-3491750D02*
G75*
G03*
X8239750Y-3491750I-50000J0D01*
G01*
X8239750Y-3745750D02*
G75*
G03*
X8239750Y-3745750I-50000J0D01*
G01*
X8239750Y-8317750D02*
G75*
G03*
X8239750Y-8317750I-50000J0D01*
G01*
X8239750Y-8571750D02*
G75*
G03*
X8239750Y-8571750I-50000J0D01*
G01*
X8301750Y-4192750D02*
G75*
G03*
X8301750Y-4192750I-50000J0D01*
G01*
X8303250Y-7183000D02*
G75*
G03*
X8303250Y-7183000I-50000J0D01*
G01*
X8493750Y-3491750D02*
G75*
G03*
X8493750Y-3491750I-50000J0D01*
G01*
X8493750Y-3745750D02*
G75*
G03*
X8493750Y-3745750I-50000J0D01*
G01*
X8493750Y-8317750D02*
G75*
G03*
X8493750Y-8317750I-50000J0D01*
G01*
X8493750Y-8571750D02*
G75*
G03*
X8493750Y-8571750I-50000J0D01*
G01*
X8555750Y-4192750D02*
G75*
G03*
X8555750Y-4192750I-50000J0D01*
G01*
X8557250Y-7183000D02*
G75*
G03*
X8557250Y-7183000I-50000J0D01*
G01*
X8747750Y-3491750D02*
G75*
G03*
X8747750Y-3491750I-50000J0D01*
G01*
X8747750Y-3745750D02*
G75*
G03*
X8747750Y-3745750I-50000J0D01*
G01*
X8747750Y-8317750D02*
G75*
G03*
X8747750Y-8317750I-50000J0D01*
G01*
X8747750Y-8571750D02*
G75*
G03*
X8747750Y-8571750I-50000J0D01*
G01*
X8809750Y-4192750D02*
G75*
G03*
X8809750Y-4192750I-50000J0D01*
G01*
X8811250Y-7183000D02*
G75*
G03*
X8811250Y-7183000I-50000J0D01*
G01*
X9001750Y-3491750D02*
G75*
G03*
X9001750Y-3491750I-50000J0D01*
G01*
X9001750Y-3745750D02*
G75*
G03*
X9001750Y-3745750I-50000J0D01*
G01*
X9001750Y-8317750D02*
G75*
G03*
X9001750Y-8317750I-50000J0D01*
G01*
X9001750Y-8571750D02*
G75*
G03*
X9001750Y-8571750I-50000J0D01*
G01*
X9255750Y-3491750D02*
G75*
G03*
X9255750Y-3491750I-50000J0D01*
G01*
X9255750Y-3745750D02*
G75*
G03*
X9255750Y-3745750I-50000J0D01*
G01*
X9255750Y-8317750D02*
G75*
G03*
X9255750Y-8317750I-50000J0D01*
G01*
X9255750Y-8571750D02*
G75*
G03*
X9255750Y-8571750I-50000J0D01*
G01*
X9290500Y-5174000D02*
G75*
G03*
X9290500Y-5174000I-50000J0D01*
G01*
X9290500Y-5428000D02*
G75*
G03*
X9290500Y-5428000I-50000J0D01*
G01*
X9290500Y-5682000D02*
G75*
G03*
X9290500Y-5682000I-50000J0D01*
G01*
X9290500Y-5936000D02*
G75*
G03*
X9290500Y-5936000I-50000J0D01*
G01*
X9509750Y-3491750D02*
G75*
G03*
X9509750Y-3491750I-50000J0D01*
G01*
X9509750Y-3745750D02*
G75*
G03*
X9509750Y-3745750I-50000J0D01*
G01*
X9509750Y-8317750D02*
G75*
G03*
X9509750Y-8317750I-50000J0D01*
G01*
X9509750Y-8571750D02*
G75*
G03*
X9509750Y-8571750I-50000J0D01*
G01*
X9763750Y-3491750D02*
G75*
G03*
X9763750Y-3491750I-50000J0D01*
G01*
X9763750Y-3745750D02*
G75*
G03*
X9763750Y-3745750I-50000J0D01*
G01*
X9763750Y-8317750D02*
G75*
G03*
X9763750Y-8317750I-50000J0D01*
G01*
X9763750Y-8571750D02*
G75*
G03*
X9763750Y-8571750I-50000J0D01*
G01*
X10017750Y-3491750D02*
G75*
G03*
X10017750Y-3491750I-50000J0D01*
G01*
X10017750Y-3745750D02*
G75*
G03*
X10017750Y-3745750I-50000J0D01*
G01*
X10017750Y-8317750D02*
G75*
G03*
X10017750Y-8317750I-50000J0D01*
G01*
X10017750Y-8571750D02*
G75*
G03*
X10017750Y-8571750I-50000J0D01*
G01*
X10271750Y-3491750D02*
G75*
G03*
X10271750Y-3491750I-50000J0D01*
G01*
X10271750Y-3745750D02*
G75*
G03*
X10271750Y-3745750I-50000J0D01*
G01*
X10271750Y-8317750D02*
G75*
G03*
X10271750Y-8317750I-50000J0D01*
G01*
X10271750Y-8571750D02*
G75*
G03*
X10271750Y-8571750I-50000J0D01*
G01*
X10525750Y-3491750D02*
G75*
G03*
X10525750Y-3491750I-50000J0D01*
G01*
X10525750Y-3745750D02*
G75*
G03*
X10525750Y-3745750I-50000J0D01*
G01*
X10525750Y-8317750D02*
G75*
G03*
X10525750Y-8317750I-50000J0D01*
G01*
X10525750Y-8571750D02*
G75*
G03*
X10525750Y-8571750I-50000J0D01*
G01*
X10779750Y-3491750D02*
G75*
G03*
X10779750Y-3491750I-50000J0D01*
G01*
X10779750Y-3745750D02*
G75*
G03*
X10779750Y-3745750I-50000J0D01*
G01*
X10779750Y-8317750D02*
G75*
G03*
X10779750Y-8317750I-50000J0D01*
G01*
X10779750Y-8571750D02*
G75*
G03*
X10779750Y-8571750I-50000J0D01*
G01*
X11033750Y-3491750D02*
G75*
G03*
X11033750Y-3491750I-50000J0D01*
G01*
X11033750Y-3745750D02*
G75*
G03*
X11033750Y-3745750I-50000J0D01*
G01*
X11033750Y-8317750D02*
G75*
G03*
X11033750Y-8317750I-50000J0D01*
G01*
X11033750Y-8571750D02*
G75*
G03*
X11033750Y-8571750I-50000J0D01*
G01*
X11287750Y-3491750D02*
G75*
G03*
X11287750Y-3491750I-50000J0D01*
G01*
X11287750Y-3745750D02*
G75*
G03*
X11287750Y-3745750I-50000J0D01*
G01*
X11287750Y-8317750D02*
G75*
G03*
X11287750Y-8317750I-50000J0D01*
G01*
X11287750Y-8571750D02*
G75*
G03*
X11287750Y-8571750I-50000J0D01*
G01*
X11541750Y-3491750D02*
G75*
G03*
X11541750Y-3491750I-50000J0D01*
G01*
X11541750Y-3745750D02*
G75*
G03*
X11541750Y-3745750I-50000J0D01*
G01*
X11541750Y-8317750D02*
G75*
G03*
X11541750Y-8317750I-50000J0D01*
G01*
X11541750Y-8571750D02*
G75*
G03*
X11541750Y-8571750I-50000J0D01*
G01*
X11795750Y-3491750D02*
G75*
G03*
X11795750Y-3491750I-50000J0D01*
G01*
X11795750Y-3745750D02*
G75*
G03*
X11795750Y-3745750I-50000J0D01*
G01*
X11795750Y-8317750D02*
G75*
G03*
X11795750Y-8317750I-50000J0D01*
G01*
X11795750Y-8571750D02*
G75*
G03*
X11795750Y-8571750I-50000J0D01*
G01*
X12049750Y-3491750D02*
G75*
G03*
X12049750Y-3491750I-50000J0D01*
G01*
X12049750Y-3745750D02*
G75*
G03*
X12049750Y-3745750I-50000J0D01*
G01*
X12049750Y-8317750D02*
G75*
G03*
X12049750Y-8317750I-50000J0D01*
G01*
X12049750Y-8571750D02*
G75*
G03*
X12049750Y-8571750I-50000J0D01*
G01*
X12240250Y-6451500D02*
G75*
G03*
X12240250Y-6451500I-50000J0D01*
G01*
X12303750Y-3491750D02*
G75*
G03*
X12303750Y-3491750I-50000J0D01*
G01*
X12303750Y-3745750D02*
G75*
G03*
X12303750Y-3745750I-50000J0D01*
G01*
X12303750Y-8317750D02*
G75*
G03*
X12303750Y-8317750I-50000J0D01*
G01*
X12303750Y-8571750D02*
G75*
G03*
X12303750Y-8571750I-50000J0D01*
G01*
X12494250Y-4673500D02*
G75*
G03*
X12494250Y-4673500I-50000J0D01*
G01*
X12494250Y-6451500D02*
G75*
G03*
X12494250Y-6451500I-50000J0D01*
G01*
X12557750Y-3491750D02*
G75*
G03*
X12557750Y-3491750I-50000J0D01*
G01*
X12557750Y-3745750D02*
G75*
G03*
X12557750Y-3745750I-50000J0D01*
G01*
X12557750Y-8317750D02*
G75*
G03*
X12557750Y-8317750I-50000J0D01*
G01*
X12557750Y-8571750D02*
G75*
G03*
X12557750Y-8571750I-50000J0D01*
G01*
X12748250Y-4673500D02*
G75*
G03*
X12748250Y-4673500I-50000J0D01*
G01*
X12748250Y-6451500D02*
G75*
G03*
X12748250Y-6451500I-50000J0D01*
G01*
X12811750Y-3491750D02*
G75*
G03*
X12811750Y-3491750I-50000J0D01*
G01*
X12811750Y-3745750D02*
G75*
G03*
X12811750Y-3745750I-50000J0D01*
G01*
X12811750Y-8317750D02*
G75*
G03*
X12811750Y-8317750I-50000J0D01*
G01*
X12811750Y-8571750D02*
G75*
G03*
X12811750Y-8571750I-50000J0D01*
G01*
X13002250Y-4673500D02*
G75*
G03*
X13002250Y-4673500I-50000J0D01*
G01*
X13002250Y-6451500D02*
G75*
G03*
X13002250Y-6451500I-50000J0D01*
G01*
X13065750Y-3491750D02*
G75*
G03*
X13065750Y-3491750I-50000J0D01*
G01*
X13065750Y-3745750D02*
G75*
G03*
X13065750Y-3745750I-50000J0D01*
G01*
X13065750Y-8317750D02*
G75*
G03*
X13065750Y-8317750I-50000J0D01*
G01*
X13065750Y-8571750D02*
G75*
G03*
X13065750Y-8571750I-50000J0D01*
G01*
X13256250Y-4673500D02*
G75*
G03*
X13256250Y-4673500I-50000J0D01*
G01*
X13256250Y-6451500D02*
G75*
G03*
X13256250Y-6451500I-50000J0D01*
G01*
X13319750Y-3491750D02*
G75*
G03*
X13319750Y-3491750I-50000J0D01*
G01*
X13319750Y-3745750D02*
G75*
G03*
X13319750Y-3745750I-50000J0D01*
G01*
X13319750Y-8317750D02*
G75*
G03*
X13319750Y-8317750I-50000J0D01*
G01*
X13319750Y-8571750D02*
G75*
G03*
X13319750Y-8571750I-50000J0D01*
G01*
X13510250Y-6451500D02*
G75*
G03*
X13510250Y-6451500I-50000J0D01*
G01*
D11*
X5970742Y-9072853D02*
X5970742Y-8872853D01*
X6018361Y-8872853D01*
X6046932Y-8882377D01*
X6065980Y-8901425D01*
X6075504Y-8920472D01*
X6085028Y-8958567D01*
X6085028Y-8987139D01*
X6075504Y-9025234D01*
X6065980Y-9044282D01*
X6046932Y-9063329D01*
X6018361Y-9072853D01*
X5970742Y-9072853D01*
X6170742Y-9072853D02*
X6170742Y-8939520D01*
X6170742Y-8977615D02*
X6180266Y-8958567D01*
X6189790Y-8949044D01*
X6208837Y-8939520D01*
X6227885Y-8939520D01*
X6294551Y-9072853D02*
X6294551Y-8939520D01*
X6294551Y-8872853D02*
X6285028Y-8882377D01*
X6294551Y-8891901D01*
X6304075Y-8882377D01*
X6294551Y-8872853D01*
X6294551Y-8891901D01*
X6418361Y-9072853D02*
X6399313Y-9063329D01*
X6389790Y-9044282D01*
X6389790Y-8872853D01*
X6523123Y-9072853D02*
X6504075Y-9063329D01*
X6494551Y-9044282D01*
X6494551Y-8872853D01*
X6751694Y-9072853D02*
X6751694Y-8872853D01*
X6818361Y-9015710D01*
X6885028Y-8872853D01*
X6885028Y-9072853D01*
X7065980Y-9072853D02*
X7065980Y-8968091D01*
X7056456Y-8949044D01*
X7037409Y-8939520D01*
X6999313Y-8939520D01*
X6980266Y-8949044D01*
X7065980Y-9063329D02*
X7046932Y-9072853D01*
X6999313Y-9072853D01*
X6980266Y-9063329D01*
X6970742Y-9044282D01*
X6970742Y-9025234D01*
X6980266Y-9006187D01*
X6999313Y-8996663D01*
X7046932Y-8996663D01*
X7065980Y-8987139D01*
X7161218Y-8939520D02*
X7161218Y-9139520D01*
X7161218Y-8949044D02*
X7180266Y-8939520D01*
X7218361Y-8939520D01*
X7237409Y-8949044D01*
X7246932Y-8958567D01*
X7256456Y-8977615D01*
X7256456Y-9034758D01*
X7246932Y-9053806D01*
X7237409Y-9063329D01*
X7218361Y-9072853D01*
X7180266Y-9072853D01*
X7161218Y-9063329D01*
X7342171Y-9053806D02*
X7351694Y-9063329D01*
X7342171Y-9072853D01*
X7332647Y-9063329D01*
X7342171Y-9053806D01*
X7342171Y-9072853D01*
X7342171Y-8949044D02*
X7351694Y-8958567D01*
X7342171Y-8968091D01*
X7332647Y-8958567D01*
X7342171Y-8949044D01*
X7342171Y-8968091D01*
D12*
X5633123Y-9362377D02*
X5713123Y-9442377D01*
X5713123Y-9362377D02*
X5633123Y-9442377D01*
D11*
X6008837Y-9292853D02*
X6027885Y-9292853D01*
X6046932Y-9302377D01*
X6056456Y-9311901D01*
X6065980Y-9330948D01*
X6075504Y-9369044D01*
X6075504Y-9416663D01*
X6065980Y-9454758D01*
X6056456Y-9473806D01*
X6046932Y-9483329D01*
X6027885Y-9492853D01*
X6008837Y-9492853D01*
X5989790Y-9483329D01*
X5980266Y-9473806D01*
X5970742Y-9454758D01*
X5961218Y-9416663D01*
X5961218Y-9369044D01*
X5970742Y-9330948D01*
X5980266Y-9311901D01*
X5989790Y-9302377D01*
X6008837Y-9292853D01*
X6161218Y-9473806D02*
X6170742Y-9483329D01*
X6161218Y-9492853D01*
X6151694Y-9483329D01*
X6161218Y-9473806D01*
X6161218Y-9492853D01*
X6285028Y-9378567D02*
X6265980Y-9369044D01*
X6256456Y-9359520D01*
X6246932Y-9340472D01*
X6246932Y-9330948D01*
X6256456Y-9311901D01*
X6265980Y-9302377D01*
X6285028Y-9292853D01*
X6323123Y-9292853D01*
X6342171Y-9302377D01*
X6351694Y-9311901D01*
X6361218Y-9330948D01*
X6361218Y-9340472D01*
X6351694Y-9359520D01*
X6342171Y-9369044D01*
X6323123Y-9378567D01*
X6285028Y-9378567D01*
X6265980Y-9388091D01*
X6256456Y-9397615D01*
X6246932Y-9416663D01*
X6246932Y-9454758D01*
X6256456Y-9473806D01*
X6265980Y-9483329D01*
X6285028Y-9492853D01*
X6323123Y-9492853D01*
X6342171Y-9483329D01*
X6351694Y-9473806D01*
X6361218Y-9454758D01*
X6361218Y-9416663D01*
X6351694Y-9397615D01*
X6342171Y-9388091D01*
X6323123Y-9378567D01*
X6485028Y-9292853D02*
X6504075Y-9292853D01*
X6523123Y-9302377D01*
X6532647Y-9311901D01*
X6542171Y-9330948D01*
X6551694Y-9369044D01*
X6551694Y-9416663D01*
X6542171Y-9454758D01*
X6532647Y-9473806D01*
X6523123Y-9483329D01*
X6504075Y-9492853D01*
X6485028Y-9492853D01*
X6465980Y-9483329D01*
X6456456Y-9473806D01*
X6446932Y-9454758D01*
X6437409Y-9416663D01*
X6437409Y-9369044D01*
X6446932Y-9330948D01*
X6456456Y-9311901D01*
X6465980Y-9302377D01*
X6485028Y-9292853D01*
X6675504Y-9292853D02*
X6694551Y-9292853D01*
X6713599Y-9302377D01*
X6723123Y-9311901D01*
X6732647Y-9330948D01*
X6742171Y-9369044D01*
X6742171Y-9416663D01*
X6732647Y-9454758D01*
X6723123Y-9473806D01*
X6713599Y-9483329D01*
X6694551Y-9492853D01*
X6675504Y-9492853D01*
X6656456Y-9483329D01*
X6646932Y-9473806D01*
X6637409Y-9454758D01*
X6627885Y-9416663D01*
X6627885Y-9369044D01*
X6637409Y-9330948D01*
X6646932Y-9311901D01*
X6656456Y-9302377D01*
X6675504Y-9292853D01*
X6827885Y-9492853D02*
X6827885Y-9359520D01*
X6827885Y-9378567D02*
X6837409Y-9369044D01*
X6856456Y-9359520D01*
X6885028Y-9359520D01*
X6904075Y-9369044D01*
X6913599Y-9388091D01*
X6913599Y-9492853D01*
X6913599Y-9388091D02*
X6923123Y-9369044D01*
X6942171Y-9359520D01*
X6970742Y-9359520D01*
X6989790Y-9369044D01*
X6999313Y-9388091D01*
X6999313Y-9492853D01*
X7094551Y-9492853D02*
X7094551Y-9359520D01*
X7094551Y-9378567D02*
X7104075Y-9369044D01*
X7123123Y-9359520D01*
X7151694Y-9359520D01*
X7170742Y-9369044D01*
X7180266Y-9388091D01*
X7180266Y-9492853D01*
X7180266Y-9388091D02*
X7189790Y-9369044D01*
X7208837Y-9359520D01*
X7237409Y-9359520D01*
X7256456Y-9369044D01*
X7265980Y-9388091D01*
X7265980Y-9492853D01*
X7656456Y-9283329D02*
X7485028Y-9540472D01*
X7913599Y-9292853D02*
X7932647Y-9292853D01*
X7951694Y-9302377D01*
X7961218Y-9311901D01*
X7970742Y-9330948D01*
X7980266Y-9369044D01*
X7980266Y-9416663D01*
X7970742Y-9454758D01*
X7961218Y-9473806D01*
X7951694Y-9483329D01*
X7932647Y-9492853D01*
X7913599Y-9492853D01*
X7894551Y-9483329D01*
X7885028Y-9473806D01*
X7875504Y-9454758D01*
X7865980Y-9416663D01*
X7865980Y-9369044D01*
X7875504Y-9330948D01*
X7885028Y-9311901D01*
X7894551Y-9302377D01*
X7913599Y-9292853D01*
X8065980Y-9473806D02*
X8075504Y-9483329D01*
X8065980Y-9492853D01*
X8056456Y-9483329D01*
X8065980Y-9473806D01*
X8065980Y-9492853D01*
X8199313Y-9292853D02*
X8218361Y-9292853D01*
X8237409Y-9302377D01*
X8246932Y-9311901D01*
X8256456Y-9330948D01*
X8265980Y-9369044D01*
X8265980Y-9416663D01*
X8256456Y-9454758D01*
X8246932Y-9473806D01*
X8237409Y-9483329D01*
X8218361Y-9492853D01*
X8199313Y-9492853D01*
X8180266Y-9483329D01*
X8170742Y-9473806D01*
X8161218Y-9454758D01*
X8151694Y-9416663D01*
X8151694Y-9369044D01*
X8161218Y-9330948D01*
X8170742Y-9311901D01*
X8180266Y-9302377D01*
X8199313Y-9292853D01*
X8332647Y-9292853D02*
X8456456Y-9292853D01*
X8389790Y-9369044D01*
X8418361Y-9369044D01*
X8437409Y-9378567D01*
X8446933Y-9388091D01*
X8456456Y-9407139D01*
X8456456Y-9454758D01*
X8446933Y-9473806D01*
X8437409Y-9483329D01*
X8418361Y-9492853D01*
X8361218Y-9492853D01*
X8342171Y-9483329D01*
X8332647Y-9473806D01*
X8646933Y-9492853D02*
X8532647Y-9492853D01*
X8589790Y-9492853D02*
X8589790Y-9292853D01*
X8570742Y-9321425D01*
X8551694Y-9340472D01*
X8532647Y-9349996D01*
X8827885Y-9292853D02*
X8732647Y-9292853D01*
X8723123Y-9388091D01*
X8732647Y-9378567D01*
X8751694Y-9369044D01*
X8799313Y-9369044D01*
X8818361Y-9378567D01*
X8827885Y-9388091D01*
X8837409Y-9407139D01*
X8837409Y-9454758D01*
X8827885Y-9473806D01*
X8818361Y-9483329D01*
X8799313Y-9492853D01*
X8751694Y-9492853D01*
X8732647Y-9483329D01*
X8723123Y-9473806D01*
X8913599Y-9292853D02*
X8913599Y-9330948D01*
X8989790Y-9292853D02*
X8989790Y-9330948D01*
X9285028Y-9569044D02*
X9275504Y-9559520D01*
X9256456Y-9530948D01*
X9246933Y-9511901D01*
X9237409Y-9483329D01*
X9227885Y-9435710D01*
X9227885Y-9397615D01*
X9237409Y-9349996D01*
X9246933Y-9321425D01*
X9256456Y-9302377D01*
X9275504Y-9273806D01*
X9285028Y-9264282D01*
X9351694Y-9311901D02*
X9361218Y-9302377D01*
X9380266Y-9292853D01*
X9427885Y-9292853D01*
X9446933Y-9302377D01*
X9456456Y-9311901D01*
X9465980Y-9330948D01*
X9465980Y-9349996D01*
X9456456Y-9378567D01*
X9342171Y-9492853D01*
X9465980Y-9492853D01*
X9637409Y-9292853D02*
X9599313Y-9292853D01*
X9580266Y-9302377D01*
X9570742Y-9311901D01*
X9551694Y-9340472D01*
X9542171Y-9378567D01*
X9542171Y-9454758D01*
X9551694Y-9473806D01*
X9561218Y-9483329D01*
X9580266Y-9492853D01*
X9618361Y-9492853D01*
X9637409Y-9483329D01*
X9646933Y-9473806D01*
X9656456Y-9454758D01*
X9656456Y-9407139D01*
X9646933Y-9388091D01*
X9637409Y-9378567D01*
X9618361Y-9369044D01*
X9580266Y-9369044D01*
X9561218Y-9378567D01*
X9551694Y-9388091D01*
X9542171Y-9407139D01*
X9894552Y-9492853D02*
X9894552Y-9292853D01*
X9980266Y-9492853D02*
X9980266Y-9388091D01*
X9970742Y-9369044D01*
X9951694Y-9359520D01*
X9923123Y-9359520D01*
X9904075Y-9369044D01*
X9894552Y-9378567D01*
X10104075Y-9492853D02*
X10085028Y-9483329D01*
X10075504Y-9473806D01*
X10065980Y-9454758D01*
X10065980Y-9397615D01*
X10075504Y-9378567D01*
X10085028Y-9369044D01*
X10104075Y-9359520D01*
X10132647Y-9359520D01*
X10151694Y-9369044D01*
X10161218Y-9378567D01*
X10170742Y-9397615D01*
X10170742Y-9454758D01*
X10161218Y-9473806D01*
X10151694Y-9483329D01*
X10132647Y-9492853D01*
X10104075Y-9492853D01*
X10285028Y-9492853D02*
X10265980Y-9483329D01*
X10256456Y-9464282D01*
X10256456Y-9292853D01*
X10437409Y-9483329D02*
X10418361Y-9492853D01*
X10380266Y-9492853D01*
X10361218Y-9483329D01*
X10351694Y-9464282D01*
X10351694Y-9388091D01*
X10361218Y-9369044D01*
X10380266Y-9359520D01*
X10418361Y-9359520D01*
X10437409Y-9369044D01*
X10446933Y-9388091D01*
X10446933Y-9407139D01*
X10351694Y-9426187D01*
X10523123Y-9483329D02*
X10542171Y-9492853D01*
X10580266Y-9492853D01*
X10599313Y-9483329D01*
X10608837Y-9464282D01*
X10608837Y-9454758D01*
X10599313Y-9435710D01*
X10580266Y-9426187D01*
X10551694Y-9426187D01*
X10532647Y-9416663D01*
X10523123Y-9397615D01*
X10523123Y-9388091D01*
X10532647Y-9369044D01*
X10551694Y-9359520D01*
X10580266Y-9359520D01*
X10599313Y-9369044D01*
X10675504Y-9569044D02*
X10685028Y-9559520D01*
X10704075Y-9530948D01*
X10713599Y-9511901D01*
X10723123Y-9483329D01*
X10732647Y-9435710D01*
X10732647Y-9397615D01*
X10723123Y-9349996D01*
X10713599Y-9321425D01*
X10704075Y-9302377D01*
X10685028Y-9273806D01*
X10675504Y-9264282D01*
D13*
X5713123Y-9666377D02*
G75*
G03*
X5713123Y-9666377I-50000J0D01*
G01*
D11*
X6075504Y-9756853D02*
X5961218Y-9756853D01*
X6018361Y-9756853D02*
X6018361Y-9556853D01*
X5999313Y-9585425D01*
X5980266Y-9604472D01*
X5961218Y-9613996D01*
X6161218Y-9737806D02*
X6170742Y-9747329D01*
X6161218Y-9756853D01*
X6151694Y-9747329D01*
X6161218Y-9737806D01*
X6161218Y-9756853D01*
X6294551Y-9556853D02*
X6313599Y-9556853D01*
X6332647Y-9566377D01*
X6342171Y-9575901D01*
X6351694Y-9594948D01*
X6361218Y-9633044D01*
X6361218Y-9680663D01*
X6351694Y-9718758D01*
X6342171Y-9737806D01*
X6332647Y-9747329D01*
X6313599Y-9756853D01*
X6294551Y-9756853D01*
X6275504Y-9747329D01*
X6265980Y-9737806D01*
X6256456Y-9718758D01*
X6246932Y-9680663D01*
X6246932Y-9633044D01*
X6256456Y-9594948D01*
X6265980Y-9575901D01*
X6275504Y-9566377D01*
X6294551Y-9556853D01*
X6485028Y-9556853D02*
X6504075Y-9556853D01*
X6523123Y-9566377D01*
X6532647Y-9575901D01*
X6542171Y-9594948D01*
X6551694Y-9633044D01*
X6551694Y-9680663D01*
X6542171Y-9718758D01*
X6532647Y-9737806D01*
X6523123Y-9747329D01*
X6504075Y-9756853D01*
X6485028Y-9756853D01*
X6465980Y-9747329D01*
X6456456Y-9737806D01*
X6446932Y-9718758D01*
X6437409Y-9680663D01*
X6437409Y-9633044D01*
X6446932Y-9594948D01*
X6456456Y-9575901D01*
X6465980Y-9566377D01*
X6485028Y-9556853D01*
X6675504Y-9556853D02*
X6694551Y-9556853D01*
X6713599Y-9566377D01*
X6723123Y-9575901D01*
X6732647Y-9594948D01*
X6742171Y-9633044D01*
X6742171Y-9680663D01*
X6732647Y-9718758D01*
X6723123Y-9737806D01*
X6713599Y-9747329D01*
X6694551Y-9756853D01*
X6675504Y-9756853D01*
X6656456Y-9747329D01*
X6646932Y-9737806D01*
X6637409Y-9718758D01*
X6627885Y-9680663D01*
X6627885Y-9633044D01*
X6637409Y-9594948D01*
X6646932Y-9575901D01*
X6656456Y-9566377D01*
X6675504Y-9556853D01*
X6827885Y-9756853D02*
X6827885Y-9623520D01*
X6827885Y-9642567D02*
X6837409Y-9633044D01*
X6856456Y-9623520D01*
X6885028Y-9623520D01*
X6904075Y-9633044D01*
X6913599Y-9652091D01*
X6913599Y-9756853D01*
X6913599Y-9652091D02*
X6923123Y-9633044D01*
X6942171Y-9623520D01*
X6970742Y-9623520D01*
X6989790Y-9633044D01*
X6999313Y-9652091D01*
X6999313Y-9756853D01*
X7094551Y-9756853D02*
X7094551Y-9623520D01*
X7094551Y-9642567D02*
X7104075Y-9633044D01*
X7123123Y-9623520D01*
X7151694Y-9623520D01*
X7170742Y-9633044D01*
X7180266Y-9652091D01*
X7180266Y-9756853D01*
X7180266Y-9652091D02*
X7189790Y-9633044D01*
X7208837Y-9623520D01*
X7237409Y-9623520D01*
X7256456Y-9633044D01*
X7265980Y-9652091D01*
X7265980Y-9756853D01*
X7656456Y-9547329D02*
X7485028Y-9804472D01*
X7913599Y-9556853D02*
X7932647Y-9556853D01*
X7951694Y-9566377D01*
X7961218Y-9575901D01*
X7970742Y-9594948D01*
X7980266Y-9633044D01*
X7980266Y-9680663D01*
X7970742Y-9718758D01*
X7961218Y-9737806D01*
X7951694Y-9747329D01*
X7932647Y-9756853D01*
X7913599Y-9756853D01*
X7894551Y-9747329D01*
X7885028Y-9737806D01*
X7875504Y-9718758D01*
X7865980Y-9680663D01*
X7865980Y-9633044D01*
X7875504Y-9594948D01*
X7885028Y-9575901D01*
X7894551Y-9566377D01*
X7913599Y-9556853D01*
X8065980Y-9737806D02*
X8075504Y-9747329D01*
X8065980Y-9756853D01*
X8056456Y-9747329D01*
X8065980Y-9737806D01*
X8065980Y-9756853D01*
X8199313Y-9556853D02*
X8218361Y-9556853D01*
X8237409Y-9566377D01*
X8246932Y-9575901D01*
X8256456Y-9594948D01*
X8265980Y-9633044D01*
X8265980Y-9680663D01*
X8256456Y-9718758D01*
X8246932Y-9737806D01*
X8237409Y-9747329D01*
X8218361Y-9756853D01*
X8199313Y-9756853D01*
X8180266Y-9747329D01*
X8170742Y-9737806D01*
X8161218Y-9718758D01*
X8151694Y-9680663D01*
X8151694Y-9633044D01*
X8161218Y-9594948D01*
X8170742Y-9575901D01*
X8180266Y-9566377D01*
X8199313Y-9556853D01*
X8332647Y-9556853D02*
X8456456Y-9556853D01*
X8389790Y-9633044D01*
X8418361Y-9633044D01*
X8437409Y-9642567D01*
X8446933Y-9652091D01*
X8456456Y-9671139D01*
X8456456Y-9718758D01*
X8446933Y-9737806D01*
X8437409Y-9747329D01*
X8418361Y-9756853D01*
X8361218Y-9756853D01*
X8342171Y-9747329D01*
X8332647Y-9737806D01*
X8551694Y-9756853D02*
X8589790Y-9756853D01*
X8608837Y-9747329D01*
X8618361Y-9737806D01*
X8637409Y-9709234D01*
X8646933Y-9671139D01*
X8646933Y-9594948D01*
X8637409Y-9575901D01*
X8627885Y-9566377D01*
X8608837Y-9556853D01*
X8570742Y-9556853D01*
X8551694Y-9566377D01*
X8542171Y-9575901D01*
X8532647Y-9594948D01*
X8532647Y-9642567D01*
X8542171Y-9661615D01*
X8551694Y-9671139D01*
X8570742Y-9680663D01*
X8608837Y-9680663D01*
X8627885Y-9671139D01*
X8637409Y-9661615D01*
X8646933Y-9642567D01*
X8818361Y-9623520D02*
X8818361Y-9756853D01*
X8770742Y-9547329D02*
X8723123Y-9690187D01*
X8846933Y-9690187D01*
X8913599Y-9556853D02*
X8913599Y-9594948D01*
X8989790Y-9556853D02*
X8989790Y-9594948D01*
X9285028Y-9833044D02*
X9275504Y-9823520D01*
X9256456Y-9794948D01*
X9246933Y-9775901D01*
X9237409Y-9747329D01*
X9227885Y-9699710D01*
X9227885Y-9661615D01*
X9237409Y-9613996D01*
X9246933Y-9585425D01*
X9256456Y-9566377D01*
X9275504Y-9537806D01*
X9285028Y-9528282D01*
X9465980Y-9756853D02*
X9351694Y-9756853D01*
X9408837Y-9756853D02*
X9408837Y-9556853D01*
X9389790Y-9585425D01*
X9370742Y-9604472D01*
X9351694Y-9613996D01*
X9656456Y-9756853D02*
X9542171Y-9756853D01*
X9599313Y-9756853D02*
X9599313Y-9556853D01*
X9580266Y-9585425D01*
X9561218Y-9604472D01*
X9542171Y-9613996D01*
X9723123Y-9556853D02*
X9856456Y-9556853D01*
X9770742Y-9756853D01*
X10085028Y-9756853D02*
X10085028Y-9556853D01*
X10170742Y-9756853D02*
X10170742Y-9652091D01*
X10161218Y-9633044D01*
X10142171Y-9623520D01*
X10113599Y-9623520D01*
X10094552Y-9633044D01*
X10085028Y-9642567D01*
X10294552Y-9756853D02*
X10275504Y-9747329D01*
X10265980Y-9737806D01*
X10256456Y-9718758D01*
X10256456Y-9661615D01*
X10265980Y-9642567D01*
X10275504Y-9633044D01*
X10294552Y-9623520D01*
X10323123Y-9623520D01*
X10342171Y-9633044D01*
X10351694Y-9642567D01*
X10361218Y-9661615D01*
X10361218Y-9718758D01*
X10351694Y-9737806D01*
X10342171Y-9747329D01*
X10323123Y-9756853D01*
X10294552Y-9756853D01*
X10475504Y-9756853D02*
X10456456Y-9747329D01*
X10446933Y-9728282D01*
X10446933Y-9556853D01*
X10627885Y-9747329D02*
X10608837Y-9756853D01*
X10570742Y-9756853D01*
X10551694Y-9747329D01*
X10542171Y-9728282D01*
X10542171Y-9652091D01*
X10551694Y-9633044D01*
X10570742Y-9623520D01*
X10608837Y-9623520D01*
X10627885Y-9633044D01*
X10637409Y-9652091D01*
X10637409Y-9671139D01*
X10542171Y-9690187D01*
X10713599Y-9747329D02*
X10732647Y-9756853D01*
X10770742Y-9756853D01*
X10789790Y-9747329D01*
X10799313Y-9728282D01*
X10799313Y-9718758D01*
X10789790Y-9699710D01*
X10770742Y-9690187D01*
X10742171Y-9690187D01*
X10723123Y-9680663D01*
X10713599Y-9661615D01*
X10713599Y-9652091D01*
X10723123Y-9633044D01*
X10742171Y-9623520D01*
X10770742Y-9623520D01*
X10789790Y-9633044D01*
X10865980Y-9833044D02*
X10875504Y-9823520D01*
X10894552Y-9794948D01*
X10904075Y-9775901D01*
X10913599Y-9747329D01*
X10923123Y-9699710D01*
X10923123Y-9661615D01*
X10913599Y-9613996D01*
X10904075Y-9585425D01*
X10894552Y-9566377D01*
X10875504Y-9537806D01*
X10865980Y-9528282D01*
M02*
