%TF.GenerationSoftware,KiCad,Pcbnew,(6.0.9)*%
%TF.CreationDate,2023-01-03T09:52:10-05:00*%
%TF.ProjectId,cape,63617065-2e6b-4696-9361-645f70636258,1.4*%
%TF.SameCoordinates,Original*%
%TF.FileFunction,Legend,Top*%
%TF.FilePolarity,Positive*%
%FSLAX46Y46*%
G04 Gerber Fmt 4.6, Leading zero omitted, Abs format (unit mm)*
G04 Created by KiCad (PCBNEW (6.0.9)) date 2023-01-03 09:52:10*
%MOMM*%
%LPD*%
G01*
G04 APERTURE LIST*
%ADD10C,0.200000*%
%ADD11C,0.300000*%
%ADD12C,0.150000*%
%ADD13C,0.120000*%
%ADD14C,0.100000*%
%ADD15R,1.700000X1.700000*%
%ADD16O,1.700000X1.700000*%
%ADD17C,1.700000*%
%ADD18C,3.200000*%
%ADD19C,1.600000*%
%ADD20O,1.600000X1.600000*%
%ADD21R,1.600000X1.600000*%
G04 APERTURE END LIST*
D10*
X94927142Y-55002380D02*
X94355714Y-55002380D01*
X94641428Y-55002380D02*
X94641428Y-54002380D01*
X94546190Y-54145238D01*
X94450952Y-54240476D01*
X94355714Y-54288095D01*
X95308095Y-54716666D02*
X95784285Y-54716666D01*
X95212857Y-55002380D02*
X95546190Y-54002380D01*
X95879523Y-55002380D01*
X121272380Y-62276190D02*
X121272380Y-61657142D01*
X121653333Y-61990476D01*
X121653333Y-61847619D01*
X121700952Y-61752380D01*
X121748571Y-61704761D01*
X121843809Y-61657142D01*
X122081904Y-61657142D01*
X122177142Y-61704761D01*
X122224761Y-61752380D01*
X122272380Y-61847619D01*
X122272380Y-62133333D01*
X122224761Y-62228571D01*
X122177142Y-62276190D01*
X122177142Y-61228571D02*
X122224761Y-61180952D01*
X122272380Y-61228571D01*
X122224761Y-61276190D01*
X122177142Y-61228571D01*
X122272380Y-61228571D01*
X121272380Y-60847619D02*
X121272380Y-60228571D01*
X121653333Y-60561904D01*
X121653333Y-60419047D01*
X121700952Y-60323809D01*
X121748571Y-60276190D01*
X121843809Y-60228571D01*
X122081904Y-60228571D01*
X122177142Y-60276190D01*
X122224761Y-60323809D01*
X122272380Y-60419047D01*
X122272380Y-60704761D01*
X122224761Y-60800000D01*
X122177142Y-60847619D01*
X121272380Y-59942857D02*
X122272380Y-59609523D01*
X121272380Y-59276190D01*
X78522380Y-54808690D02*
X78522380Y-54142023D01*
X79522380Y-54570595D01*
X79427142Y-53761071D02*
X79474761Y-53713452D01*
X79522380Y-53761071D01*
X79474761Y-53808690D01*
X79427142Y-53761071D01*
X79522380Y-53761071D01*
X78855714Y-52856309D02*
X79522380Y-52856309D01*
X78474761Y-53094404D02*
X79189047Y-53332500D01*
X79189047Y-52713452D01*
X78522380Y-52475357D02*
X79522380Y-52142023D01*
X78522380Y-51808690D01*
X75772380Y-69847619D02*
X75772380Y-69657142D01*
X75820000Y-69561904D01*
X75915238Y-69466666D01*
X76105714Y-69419047D01*
X76439047Y-69419047D01*
X76629523Y-69466666D01*
X76724761Y-69561904D01*
X76772380Y-69657142D01*
X76772380Y-69847619D01*
X76724761Y-69942857D01*
X76629523Y-70038095D01*
X76439047Y-70085714D01*
X76105714Y-70085714D01*
X75915238Y-70038095D01*
X75820000Y-69942857D01*
X75772380Y-69847619D01*
X76105714Y-68990476D02*
X76772380Y-68990476D01*
X76200952Y-68990476D02*
X76153333Y-68942857D01*
X76105714Y-68847619D01*
X76105714Y-68704761D01*
X76153333Y-68609523D01*
X76248571Y-68561904D01*
X76772380Y-68561904D01*
X86772380Y-80240476D02*
X86772380Y-80716666D01*
X87248571Y-80764285D01*
X87200952Y-80716666D01*
X87153333Y-80621428D01*
X87153333Y-80383333D01*
X87200952Y-80288095D01*
X87248571Y-80240476D01*
X87343809Y-80192857D01*
X87581904Y-80192857D01*
X87677142Y-80240476D01*
X87724761Y-80288095D01*
X87772380Y-80383333D01*
X87772380Y-80621428D01*
X87724761Y-80716666D01*
X87677142Y-80764285D01*
X86772380Y-79907142D02*
X87772380Y-79573809D01*
X86772380Y-79240476D01*
X94355714Y-56347619D02*
X94403333Y-56300000D01*
X94498571Y-56252380D01*
X94736666Y-56252380D01*
X94831904Y-56300000D01*
X94879523Y-56347619D01*
X94927142Y-56442857D01*
X94927142Y-56538095D01*
X94879523Y-56680952D01*
X94308095Y-57252380D01*
X94927142Y-57252380D01*
X95308095Y-56966666D02*
X95784285Y-56966666D01*
X95212857Y-57252380D02*
X95546190Y-56252380D01*
X95879523Y-57252380D01*
X84772380Y-46776190D02*
X84772380Y-46109523D01*
X85772380Y-46538095D01*
X85677142Y-45728571D02*
X85724761Y-45680952D01*
X85772380Y-45728571D01*
X85724761Y-45776190D01*
X85677142Y-45728571D01*
X85772380Y-45728571D01*
X85105714Y-44823809D02*
X85772380Y-44823809D01*
X84724761Y-45061904D02*
X85439047Y-45300000D01*
X85439047Y-44680952D01*
X84772380Y-44442857D02*
X85772380Y-44109523D01*
X84772380Y-43776190D01*
X72782380Y-77346190D02*
X72782380Y-76679523D01*
X73782380Y-77108095D01*
X73687142Y-76298571D02*
X73734761Y-76250952D01*
X73782380Y-76298571D01*
X73734761Y-76346190D01*
X73687142Y-76298571D01*
X73782380Y-76298571D01*
X73115714Y-75393809D02*
X73782380Y-75393809D01*
X72734761Y-75631904D02*
X73449047Y-75870000D01*
X73449047Y-75250952D01*
X72782380Y-75012857D02*
X73782380Y-74679523D01*
X72782380Y-74346190D01*
X81820000Y-46061904D02*
X81772380Y-46157142D01*
X81772380Y-46300000D01*
X81820000Y-46442857D01*
X81915238Y-46538095D01*
X82010476Y-46585714D01*
X82200952Y-46633333D01*
X82343809Y-46633333D01*
X82534285Y-46585714D01*
X82629523Y-46538095D01*
X82724761Y-46442857D01*
X82772380Y-46300000D01*
X82772380Y-46204761D01*
X82724761Y-46061904D01*
X82677142Y-46014285D01*
X82343809Y-46014285D01*
X82343809Y-46204761D01*
X82772380Y-45585714D02*
X81772380Y-45585714D01*
X82772380Y-45014285D01*
X81772380Y-45014285D01*
X82772380Y-44538095D02*
X81772380Y-44538095D01*
X81772380Y-44300000D01*
X81820000Y-44157142D01*
X81915238Y-44061904D01*
X82010476Y-44014285D01*
X82200952Y-43966666D01*
X82343809Y-43966666D01*
X82534285Y-44014285D01*
X82629523Y-44061904D01*
X82724761Y-44157142D01*
X82772380Y-44300000D01*
X82772380Y-44538095D01*
X126820000Y-62061904D02*
X126772380Y-62157142D01*
X126772380Y-62300000D01*
X126820000Y-62442857D01*
X126915238Y-62538095D01*
X127010476Y-62585714D01*
X127200952Y-62633333D01*
X127343809Y-62633333D01*
X127534285Y-62585714D01*
X127629523Y-62538095D01*
X127724761Y-62442857D01*
X127772380Y-62300000D01*
X127772380Y-62204761D01*
X127724761Y-62061904D01*
X127677142Y-62014285D01*
X127343809Y-62014285D01*
X127343809Y-62204761D01*
X127772380Y-61585714D02*
X126772380Y-61585714D01*
X127772380Y-61014285D01*
X126772380Y-61014285D01*
X127772380Y-60538095D02*
X126772380Y-60538095D01*
X126772380Y-60300000D01*
X126820000Y-60157142D01*
X126915238Y-60061904D01*
X127010476Y-60014285D01*
X127200952Y-59966666D01*
X127343809Y-59966666D01*
X127534285Y-60014285D01*
X127629523Y-60061904D01*
X127724761Y-60157142D01*
X127772380Y-60300000D01*
X127772380Y-60538095D01*
X92843809Y-64252380D02*
X93510476Y-64252380D01*
X93081904Y-65252380D01*
X93891428Y-65157142D02*
X93939047Y-65204761D01*
X93891428Y-65252380D01*
X93843809Y-65204761D01*
X93891428Y-65157142D01*
X93891428Y-65252380D01*
X94796190Y-64585714D02*
X94796190Y-65252380D01*
X94558095Y-64204761D02*
X94320000Y-64919047D01*
X94939047Y-64919047D01*
X95177142Y-64252380D02*
X95510476Y-65252380D01*
X95843809Y-64252380D01*
X94284285Y-58847619D02*
X94331904Y-58800000D01*
X94427142Y-58752380D01*
X94665238Y-58752380D01*
X94760476Y-58800000D01*
X94808095Y-58847619D01*
X94855714Y-58942857D01*
X94855714Y-59038095D01*
X94808095Y-59180952D01*
X94236666Y-59752380D01*
X94855714Y-59752380D01*
X95617619Y-59228571D02*
X95760476Y-59276190D01*
X95808095Y-59323809D01*
X95855714Y-59419047D01*
X95855714Y-59561904D01*
X95808095Y-59657142D01*
X95760476Y-59704761D01*
X95665238Y-59752380D01*
X95284285Y-59752380D01*
X95284285Y-58752380D01*
X95617619Y-58752380D01*
X95712857Y-58800000D01*
X95760476Y-58847619D01*
X95808095Y-58942857D01*
X95808095Y-59038095D01*
X95760476Y-59133333D01*
X95712857Y-59180952D01*
X95617619Y-59228571D01*
X95284285Y-59228571D01*
X88272380Y-46704761D02*
X87272380Y-46704761D01*
X87272380Y-46323809D01*
X87320000Y-46228571D01*
X87367619Y-46180952D01*
X87462857Y-46133333D01*
X87605714Y-46133333D01*
X87700952Y-46180952D01*
X87748571Y-46228571D01*
X87796190Y-46323809D01*
X87796190Y-46704761D01*
X87272380Y-45800000D02*
X88272380Y-45561904D01*
X87558095Y-45371428D01*
X88272380Y-45180952D01*
X87272380Y-44942857D01*
X88272380Y-44561904D02*
X87272380Y-44561904D01*
X87986666Y-44228571D01*
X87272380Y-43895238D01*
X88272380Y-43895238D01*
X96772380Y-74990476D02*
X96772380Y-75466666D01*
X97248571Y-75514285D01*
X97200952Y-75466666D01*
X97153333Y-75371428D01*
X97153333Y-75133333D01*
X97200952Y-75038095D01*
X97248571Y-74990476D01*
X97343809Y-74942857D01*
X97581904Y-74942857D01*
X97677142Y-74990476D01*
X97724761Y-75038095D01*
X97772380Y-75133333D01*
X97772380Y-75371428D01*
X97724761Y-75466666D01*
X97677142Y-75514285D01*
X96772380Y-74657142D02*
X97772380Y-74323809D01*
X96772380Y-73990476D01*
X93558095Y-61800000D02*
X93462857Y-61752380D01*
X93320000Y-61752380D01*
X93177142Y-61800000D01*
X93081904Y-61895238D01*
X93034285Y-61990476D01*
X92986666Y-62180952D01*
X92986666Y-62323809D01*
X93034285Y-62514285D01*
X93081904Y-62609523D01*
X93177142Y-62704761D01*
X93320000Y-62752380D01*
X93415238Y-62752380D01*
X93558095Y-62704761D01*
X93605714Y-62657142D01*
X93605714Y-62323809D01*
X93415238Y-62323809D01*
X94034285Y-62752380D02*
X94034285Y-61752380D01*
X94605714Y-62752380D01*
X94605714Y-61752380D01*
X95081904Y-62752380D02*
X95081904Y-61752380D01*
X95320000Y-61752380D01*
X95462857Y-61800000D01*
X95558095Y-61895238D01*
X95605714Y-61990476D01*
X95653333Y-62180952D01*
X95653333Y-62323809D01*
X95605714Y-62514285D01*
X95558095Y-62609523D01*
X95462857Y-62704761D01*
X95320000Y-62752380D01*
X95081904Y-62752380D01*
X70272380Y-69966666D02*
X70272380Y-69776190D01*
X70320000Y-69680952D01*
X70415238Y-69585714D01*
X70605714Y-69538095D01*
X70939047Y-69538095D01*
X71129523Y-69585714D01*
X71224761Y-69680952D01*
X71272380Y-69776190D01*
X71272380Y-69966666D01*
X71224761Y-70061904D01*
X71129523Y-70157142D01*
X70939047Y-70204761D01*
X70605714Y-70204761D01*
X70415238Y-70157142D01*
X70320000Y-70061904D01*
X70272380Y-69966666D01*
X70605714Y-69252380D02*
X70605714Y-68871428D01*
X71272380Y-69109523D02*
X70415238Y-69109523D01*
X70320000Y-69061904D01*
X70272380Y-68966666D01*
X70272380Y-68871428D01*
X70605714Y-68680952D02*
X70605714Y-68300000D01*
X71272380Y-68538095D02*
X70415238Y-68538095D01*
X70320000Y-68490476D01*
X70272380Y-68395238D01*
X70272380Y-68300000D01*
X94855714Y-52252380D02*
X94284285Y-52252380D01*
X94570000Y-52252380D02*
X94570000Y-51252380D01*
X94474761Y-51395238D01*
X94379523Y-51490476D01*
X94284285Y-51538095D01*
X95617619Y-51728571D02*
X95760476Y-51776190D01*
X95808095Y-51823809D01*
X95855714Y-51919047D01*
X95855714Y-52061904D01*
X95808095Y-52157142D01*
X95760476Y-52204761D01*
X95665238Y-52252380D01*
X95284285Y-52252380D01*
X95284285Y-51252380D01*
X95617619Y-51252380D01*
X95712857Y-51300000D01*
X95760476Y-51347619D01*
X95808095Y-51442857D01*
X95808095Y-51538095D01*
X95760476Y-51633333D01*
X95712857Y-51680952D01*
X95617619Y-51728571D01*
X95284285Y-51728571D01*
X81319880Y-70276190D02*
X81319880Y-69609523D01*
X82319880Y-70038095D01*
X82224642Y-69228571D02*
X82272261Y-69180952D01*
X82319880Y-69228571D01*
X82272261Y-69276190D01*
X82224642Y-69228571D01*
X82319880Y-69228571D01*
X81653214Y-68323809D02*
X82319880Y-68323809D01*
X81272261Y-68561904D02*
X81986547Y-68800000D01*
X81986547Y-68180952D01*
X81319880Y-67942857D02*
X82319880Y-67609523D01*
X81319880Y-67276190D01*
D11*
X66391428Y-83382857D02*
X65248571Y-83382857D01*
X65820000Y-82811428D02*
X65820000Y-83954285D01*
X63391428Y-83382857D02*
X62248571Y-83382857D01*
D12*
%TO.C,U1*%
X116274880Y-45204404D02*
X117084404Y-45204404D01*
X117179642Y-45156785D01*
X117227261Y-45109166D01*
X117274880Y-45013928D01*
X117274880Y-44823452D01*
X117227261Y-44728214D01*
X117179642Y-44680595D01*
X117084404Y-44632976D01*
X116274880Y-44632976D01*
X117274880Y-43632976D02*
X117274880Y-44204404D01*
X117274880Y-43918690D02*
X116274880Y-43918690D01*
X116417738Y-44013928D01*
X116512976Y-44109166D01*
X116560595Y-44204404D01*
%TO.C,P2*%
X74939880Y-40100595D02*
X73939880Y-40100595D01*
X73939880Y-39719642D01*
X73987500Y-39624404D01*
X74035119Y-39576785D01*
X74130357Y-39529166D01*
X74273214Y-39529166D01*
X74368452Y-39576785D01*
X74416071Y-39624404D01*
X74463690Y-39719642D01*
X74463690Y-40100595D01*
X74035119Y-39148214D02*
X73987500Y-39100595D01*
X73939880Y-39005357D01*
X73939880Y-38767261D01*
X73987500Y-38672023D01*
X74035119Y-38624404D01*
X74130357Y-38576785D01*
X74225595Y-38576785D01*
X74368452Y-38624404D01*
X74939880Y-39195833D01*
X74939880Y-38576785D01*
%TO.C,P1*%
X74755280Y-81400995D02*
X73755280Y-81400995D01*
X73755280Y-81020042D01*
X73802900Y-80924804D01*
X73850519Y-80877185D01*
X73945757Y-80829566D01*
X74088614Y-80829566D01*
X74183852Y-80877185D01*
X74231471Y-80924804D01*
X74279090Y-81020042D01*
X74279090Y-81400995D01*
X74755280Y-79877185D02*
X74755280Y-80448614D01*
X74755280Y-80162900D02*
X73755280Y-80162900D01*
X73898138Y-80258138D01*
X73993376Y-80353376D01*
X74040995Y-80448614D01*
%TO.C,R1*%
X119814880Y-70009166D02*
X119338690Y-70342500D01*
X119814880Y-70580595D02*
X118814880Y-70580595D01*
X118814880Y-70199642D01*
X118862500Y-70104404D01*
X118910119Y-70056785D01*
X119005357Y-70009166D01*
X119148214Y-70009166D01*
X119243452Y-70056785D01*
X119291071Y-70104404D01*
X119338690Y-70199642D01*
X119338690Y-70580595D01*
X119814880Y-69056785D02*
X119814880Y-69628214D01*
X119814880Y-69342500D02*
X118814880Y-69342500D01*
X118957738Y-69437738D01*
X119052976Y-69532976D01*
X119100595Y-69628214D01*
%TO.C,U4*%
X99764880Y-68064404D02*
X100574404Y-68064404D01*
X100669642Y-68016785D01*
X100717261Y-67969166D01*
X100764880Y-67873928D01*
X100764880Y-67683452D01*
X100717261Y-67588214D01*
X100669642Y-67540595D01*
X100574404Y-67492976D01*
X99764880Y-67492976D01*
X100098214Y-66588214D02*
X100764880Y-66588214D01*
X99717261Y-66826309D02*
X100431547Y-67064404D01*
X100431547Y-66445357D01*
%TO.C,C2*%
X96859642Y-77629166D02*
X96907261Y-77676785D01*
X96954880Y-77819642D01*
X96954880Y-77914880D01*
X96907261Y-78057738D01*
X96812023Y-78152976D01*
X96716785Y-78200595D01*
X96526309Y-78248214D01*
X96383452Y-78248214D01*
X96192976Y-78200595D01*
X96097738Y-78152976D01*
X96002500Y-78057738D01*
X95954880Y-77914880D01*
X95954880Y-77819642D01*
X96002500Y-77676785D01*
X96050119Y-77629166D01*
X96050119Y-77248214D02*
X96002500Y-77200595D01*
X95954880Y-77105357D01*
X95954880Y-76867261D01*
X96002500Y-76772023D01*
X96050119Y-76724404D01*
X96145357Y-76676785D01*
X96240595Y-76676785D01*
X96383452Y-76724404D01*
X96954880Y-77295833D01*
X96954880Y-76676785D01*
%TO.C,C3*%
X103236933Y-68656342D02*
X103189314Y-68703961D01*
X103046457Y-68751580D01*
X102951219Y-68751580D01*
X102808361Y-68703961D01*
X102713123Y-68608723D01*
X102665504Y-68513485D01*
X102617885Y-68323009D01*
X102617885Y-68180152D01*
X102665504Y-67989676D01*
X102713123Y-67894438D01*
X102808361Y-67799200D01*
X102951219Y-67751580D01*
X103046457Y-67751580D01*
X103189314Y-67799200D01*
X103236933Y-67846819D01*
X103570266Y-67751580D02*
X104189314Y-67751580D01*
X103855980Y-68132533D01*
X103998838Y-68132533D01*
X104094076Y-68180152D01*
X104141695Y-68227771D01*
X104189314Y-68323009D01*
X104189314Y-68561104D01*
X104141695Y-68656342D01*
X104094076Y-68703961D01*
X103998838Y-68751580D01*
X103713123Y-68751580D01*
X103617885Y-68703961D01*
X103570266Y-68656342D01*
%TO.C,JP1*%
X67912380Y-72893333D02*
X68626666Y-72893333D01*
X68769523Y-72940952D01*
X68864761Y-73036190D01*
X68912380Y-73179047D01*
X68912380Y-73274285D01*
X68912380Y-72417142D02*
X67912380Y-72417142D01*
X67912380Y-72036190D01*
X67960000Y-71940952D01*
X68007619Y-71893333D01*
X68102857Y-71845714D01*
X68245714Y-71845714D01*
X68340952Y-71893333D01*
X68388571Y-71940952D01*
X68436190Y-72036190D01*
X68436190Y-72417142D01*
X68912380Y-70893333D02*
X68912380Y-71464761D01*
X68912380Y-71179047D02*
X67912380Y-71179047D01*
X68055238Y-71274285D01*
X68150476Y-71369523D01*
X68198095Y-71464761D01*
%TO.C,C1*%
X90509642Y-48419166D02*
X90557261Y-48466785D01*
X90604880Y-48609642D01*
X90604880Y-48704880D01*
X90557261Y-48847738D01*
X90462023Y-48942976D01*
X90366785Y-48990595D01*
X90176309Y-49038214D01*
X90033452Y-49038214D01*
X89842976Y-48990595D01*
X89747738Y-48942976D01*
X89652500Y-48847738D01*
X89604880Y-48704880D01*
X89604880Y-48609642D01*
X89652500Y-48466785D01*
X89700119Y-48419166D01*
X90604880Y-47466785D02*
X90604880Y-48038214D01*
X90604880Y-47752500D02*
X89604880Y-47752500D01*
X89747738Y-47847738D01*
X89842976Y-47942976D01*
X89890595Y-48038214D01*
%TO.C,U2*%
X90874880Y-67811904D02*
X91684404Y-67811904D01*
X91779642Y-67764285D01*
X91827261Y-67716666D01*
X91874880Y-67621428D01*
X91874880Y-67430952D01*
X91827261Y-67335714D01*
X91779642Y-67288095D01*
X91684404Y-67240476D01*
X90874880Y-67240476D01*
X90970119Y-66811904D02*
X90922500Y-66764285D01*
X90874880Y-66669047D01*
X90874880Y-66430952D01*
X90922500Y-66335714D01*
X90970119Y-66288095D01*
X91065357Y-66240476D01*
X91160595Y-66240476D01*
X91303452Y-66288095D01*
X91874880Y-66859523D01*
X91874880Y-66240476D01*
%TO.C,U3*%
X91643095Y-48422380D02*
X91643095Y-49231904D01*
X91690714Y-49327142D01*
X91738333Y-49374761D01*
X91833571Y-49422380D01*
X92024047Y-49422380D01*
X92119285Y-49374761D01*
X92166904Y-49327142D01*
X92214523Y-49231904D01*
X92214523Y-48422380D01*
X92595476Y-48422380D02*
X93214523Y-48422380D01*
X92881190Y-48803333D01*
X93024047Y-48803333D01*
X93119285Y-48850952D01*
X93166904Y-48898571D01*
X93214523Y-48993809D01*
X93214523Y-49231904D01*
X93166904Y-49327142D01*
X93119285Y-49374761D01*
X93024047Y-49422380D01*
X92738333Y-49422380D01*
X92643095Y-49374761D01*
X92595476Y-49327142D01*
%TO.C,R2*%
X119814880Y-73819166D02*
X119338690Y-74152500D01*
X119814880Y-74390595D02*
X118814880Y-74390595D01*
X118814880Y-74009642D01*
X118862500Y-73914404D01*
X118910119Y-73866785D01*
X119005357Y-73819166D01*
X119148214Y-73819166D01*
X119243452Y-73866785D01*
X119291071Y-73914404D01*
X119338690Y-74009642D01*
X119338690Y-74390595D01*
X118910119Y-73438214D02*
X118862500Y-73390595D01*
X118814880Y-73295357D01*
X118814880Y-73057261D01*
X118862500Y-72962023D01*
X118910119Y-72914404D01*
X119005357Y-72866785D01*
X119100595Y-72866785D01*
X119243452Y-72914404D01*
X119814880Y-73485833D01*
X119814880Y-72866785D01*
%TO.C,BT1*%
X60558571Y-81735714D02*
X60606190Y-81592857D01*
X60653809Y-81545238D01*
X60749047Y-81497619D01*
X60891904Y-81497619D01*
X60987142Y-81545238D01*
X61034761Y-81592857D01*
X61082380Y-81688095D01*
X61082380Y-82069047D01*
X60082380Y-82069047D01*
X60082380Y-81735714D01*
X60130000Y-81640476D01*
X60177619Y-81592857D01*
X60272857Y-81545238D01*
X60368095Y-81545238D01*
X60463333Y-81592857D01*
X60510952Y-81640476D01*
X60558571Y-81735714D01*
X60558571Y-82069047D01*
X60082380Y-81211904D02*
X60082380Y-80640476D01*
X61082380Y-80926190D02*
X60082380Y-80926190D01*
X61082380Y-79783333D02*
X61082380Y-80354761D01*
X61082380Y-80069047D02*
X60082380Y-80069047D01*
X60225238Y-80164285D01*
X60320476Y-80259523D01*
X60368095Y-80354761D01*
%TO.C,M1*%
X90819880Y-42737023D02*
X89819880Y-42737023D01*
X90534166Y-42403690D01*
X89819880Y-42070357D01*
X90819880Y-42070357D01*
X90819880Y-41070357D02*
X90819880Y-41641785D01*
X90819880Y-41356071D02*
X89819880Y-41356071D01*
X89962738Y-41451309D01*
X90057976Y-41546547D01*
X90105595Y-41641785D01*
D13*
%TO.C,U1*%
X123172500Y-65845000D02*
X135932500Y-65845000D01*
X121902500Y-65845000D02*
X120572500Y-65845000D01*
X120572500Y-65845000D02*
X120572500Y-64515000D01*
X123172500Y-65845000D02*
X123172500Y-63185000D01*
X135932500Y-65845000D02*
X135932500Y-63185000D01*
X123172500Y-63185000D02*
X135932500Y-63185000D01*
D14*
X114917500Y-65785000D02*
X141587500Y-65785000D01*
X141587500Y-65785000D02*
X141587500Y-45465000D01*
X141587500Y-45465000D02*
X114917500Y-45465000D01*
X114917500Y-45465000D02*
X114917500Y-65785000D01*
D13*
X123172500Y-48005000D02*
X133332500Y-48005000D01*
X133332500Y-48005000D02*
X133332500Y-45465000D01*
X133332500Y-45465000D02*
X123172500Y-45465000D01*
X123172500Y-45465000D02*
X123172500Y-48005000D01*
%TO.C,P2*%
X76817500Y-38787500D02*
X75487500Y-38787500D01*
X75487500Y-36187500D02*
X75487500Y-33587500D01*
X75487500Y-38787500D02*
X75487500Y-37457500D01*
X75487500Y-33587500D02*
X134027500Y-33587500D01*
X134027500Y-38787500D02*
X134027500Y-33587500D01*
X78087500Y-36187500D02*
X75487500Y-36187500D01*
X78087500Y-38787500D02*
X78087500Y-36187500D01*
X78087500Y-38787500D02*
X134027500Y-38787500D01*
%TO.C,P1*%
X134027500Y-87047500D02*
X134027500Y-81847500D01*
X75487500Y-87047500D02*
X75487500Y-85717500D01*
X75487500Y-84447500D02*
X75487500Y-81847500D01*
X75487500Y-81847500D02*
X134027500Y-81847500D01*
X78087500Y-87047500D02*
X78087500Y-84447500D01*
X78087500Y-84447500D02*
X75487500Y-84447500D01*
X78087500Y-87047500D02*
X134027500Y-87047500D01*
X76817500Y-87047500D02*
X75487500Y-87047500D01*
%TO.C,R1*%
X123712500Y-68472500D02*
X123712500Y-71212500D01*
X123712500Y-71212500D02*
X130252500Y-71212500D01*
X130252500Y-71212500D02*
X130252500Y-68472500D01*
X122942500Y-69842500D02*
X123712500Y-69842500D01*
X131022500Y-69842500D02*
X130252500Y-69842500D01*
X130252500Y-68472500D02*
X123712500Y-68472500D01*
%TO.C,U4*%
X97782500Y-45582500D02*
X96382500Y-45582500D01*
X99052500Y-45582500D02*
X99052500Y-48252500D01*
X99052500Y-48252500D02*
X96382500Y-48252500D01*
X96382500Y-66162500D02*
X111882500Y-66162500D01*
X96382500Y-45582500D02*
X96382500Y-46982500D01*
X111882500Y-45582500D02*
X99052500Y-45582500D01*
X96382500Y-48252500D02*
X96382500Y-66162500D01*
X109212500Y-45582500D02*
X109212500Y-66162500D01*
X99052500Y-48252500D02*
X99052500Y-66162500D01*
X111882500Y-66162500D02*
X111882500Y-45582500D01*
%TO.C,C2*%
X95272500Y-76092500D02*
X95272500Y-78832500D01*
X85032500Y-76092500D02*
X95272500Y-76092500D01*
X85032500Y-78832500D02*
X95272500Y-78832500D01*
X85032500Y-76092500D02*
X85032500Y-78832500D01*
%TO.C,C3*%
X108523600Y-74549200D02*
G75*
G03*
X108523600Y-74549200I-5120000J0D01*
G01*
%TO.C,JP1*%
X72060000Y-73390000D02*
X72060000Y-70730000D01*
X72060000Y-73390000D02*
X77200000Y-73390000D01*
X77200000Y-73390000D02*
X77200000Y-70730000D01*
X70790000Y-73390000D02*
X69460000Y-73390000D01*
X69460000Y-73390000D02*
X69460000Y-72060000D01*
X72060000Y-70730000D02*
X77200000Y-70730000D01*
%TO.C,C1*%
X90152500Y-53332500D02*
G75*
G03*
X90152500Y-53332500I-5120000J0D01*
G01*
%TO.C,U2*%
X83802500Y-73160000D02*
X83802500Y-70500000D01*
X81202500Y-73160000D02*
X81202500Y-71830000D01*
X88942500Y-73160000D02*
X88942500Y-70500000D01*
X83802500Y-73160000D02*
X88942500Y-73160000D01*
X82532500Y-73160000D02*
X81202500Y-73160000D01*
X83802500Y-70500000D02*
X88942500Y-70500000D01*
D14*
X80622500Y-73100000D02*
X89522500Y-73100000D01*
X89522500Y-73100000D02*
X89522500Y-61000000D01*
X89522500Y-61000000D02*
X80622500Y-61000000D01*
X80622500Y-61000000D02*
X80622500Y-73100000D01*
D13*
%TO.C,U3*%
X91075000Y-53010000D02*
X91075000Y-60690000D01*
X91075000Y-53010000D02*
X93735000Y-53010000D01*
X93735000Y-53010000D02*
X93735000Y-60690000D01*
X91075000Y-60690000D02*
X93735000Y-60690000D01*
X92405000Y-50410000D02*
X93735000Y-50410000D01*
X93735000Y-50410000D02*
X93735000Y-51740000D01*
%TO.C,R2*%
X130252500Y-75022500D02*
X130252500Y-72282500D01*
X131022500Y-73652500D02*
X130252500Y-73652500D01*
X123712500Y-75022500D02*
X130252500Y-75022500D01*
X123712500Y-72282500D02*
X123712500Y-75022500D01*
X130252500Y-72282500D02*
X123712500Y-72282500D01*
X122942500Y-73652500D02*
X123712500Y-73652500D01*
%TO.C,BT1*%
X67040000Y-82280000D02*
X65710000Y-82280000D01*
X61840000Y-82280000D02*
X61840000Y-79620000D01*
X67040000Y-79620000D02*
X61840000Y-79620000D01*
X64440000Y-82280000D02*
X61840000Y-82280000D01*
X67040000Y-80950000D02*
X67040000Y-82280000D01*
X64440000Y-79680000D02*
X64440000Y-82280000D01*
X67040000Y-79680000D02*
X67040000Y-79620000D01*
X67040000Y-79680000D02*
X64440000Y-79680000D01*
%TO.C,M1*%
X81187500Y-40597500D02*
X81187500Y-43257500D01*
X86327500Y-40597500D02*
X81187500Y-40597500D01*
X86327500Y-40597500D02*
X86327500Y-43257500D01*
X88927500Y-41927500D02*
X88927500Y-43257500D01*
X88927500Y-43257500D02*
X87597500Y-43257500D01*
X86327500Y-43257500D02*
X81187500Y-43257500D01*
%TD*%
%LPC*%
D15*
%TO.C,U1*%
X121902500Y-64515000D03*
D16*
X124442500Y-64515000D03*
X126982500Y-64515000D03*
X129522500Y-64515000D03*
X132062500Y-64515000D03*
X134602500Y-64515000D03*
D17*
X124442500Y-46735000D03*
X126982500Y-46735000D03*
X129522500Y-46735000D03*
X132062500Y-46735000D03*
%TD*%
D15*
%TO.C,P2*%
X76817500Y-37457500D03*
D16*
X76817500Y-34917500D03*
X79357500Y-37457500D03*
X79357500Y-34917500D03*
X81897500Y-37457500D03*
X81897500Y-34917500D03*
X84437500Y-37457500D03*
X84437500Y-34917500D03*
X86977500Y-37457500D03*
X86977500Y-34917500D03*
X89517500Y-37457500D03*
X89517500Y-34917500D03*
X92057500Y-37457500D03*
X92057500Y-34917500D03*
X94597500Y-37457500D03*
X94597500Y-34917500D03*
X97137500Y-37457500D03*
X97137500Y-34917500D03*
X99677500Y-37457500D03*
X99677500Y-34917500D03*
X102217500Y-37457500D03*
X102217500Y-34917500D03*
X104757500Y-37457500D03*
X104757500Y-34917500D03*
X107297500Y-37457500D03*
X107297500Y-34917500D03*
X109837500Y-37457500D03*
X109837500Y-34917500D03*
X112377500Y-37457500D03*
X112377500Y-34917500D03*
X114917500Y-37457500D03*
X114917500Y-34917500D03*
X117457500Y-37457500D03*
X117457500Y-34917500D03*
X119997500Y-37457500D03*
X119997500Y-34917500D03*
X122537500Y-37457500D03*
X122537500Y-34917500D03*
X125077500Y-37457500D03*
X125077500Y-34917500D03*
X127617500Y-37457500D03*
X127617500Y-34917500D03*
X130157500Y-37457500D03*
X130157500Y-34917500D03*
X132697500Y-37457500D03*
X132697500Y-34917500D03*
%TD*%
D15*
%TO.C,P1*%
X76817500Y-85717500D03*
D16*
X76817500Y-83177500D03*
X79357500Y-85717500D03*
X79357500Y-83177500D03*
X81897500Y-85717500D03*
X81897500Y-83177500D03*
X84437500Y-85717500D03*
X84437500Y-83177500D03*
X86977500Y-85717500D03*
X86977500Y-83177500D03*
X89517500Y-85717500D03*
X89517500Y-83177500D03*
X92057500Y-85717500D03*
X92057500Y-83177500D03*
X94597500Y-85717500D03*
X94597500Y-83177500D03*
X97137500Y-85717500D03*
X97137500Y-83177500D03*
X99677500Y-85717500D03*
X99677500Y-83177500D03*
X102217500Y-85717500D03*
X102217500Y-83177500D03*
X104757500Y-85717500D03*
X104757500Y-83177500D03*
X107297500Y-85717500D03*
X107297500Y-83177500D03*
X109837500Y-85717500D03*
X109837500Y-83177500D03*
X112377500Y-85717500D03*
X112377500Y-83177500D03*
X114917500Y-85717500D03*
X114917500Y-83177500D03*
X117457500Y-85717500D03*
X117457500Y-83177500D03*
X119997500Y-85717500D03*
X119997500Y-83177500D03*
X122537500Y-85717500D03*
X122537500Y-83177500D03*
X125077500Y-85717500D03*
X125077500Y-83177500D03*
X127617500Y-85717500D03*
X127617500Y-83177500D03*
X130157500Y-85717500D03*
X130157500Y-83177500D03*
X132697500Y-85717500D03*
X132697500Y-83177500D03*
%TD*%
D18*
%TO.C,MH3*%
X137777500Y-39362500D03*
%TD*%
D19*
%TO.C,R1*%
X121902500Y-69842500D03*
D20*
X132062500Y-69842500D03*
%TD*%
D21*
%TO.C,U4*%
X97782500Y-46982500D03*
D20*
X97782500Y-49522500D03*
X97782500Y-52062500D03*
X97782500Y-54602500D03*
X97782500Y-57142500D03*
X97782500Y-59682500D03*
X97782500Y-62222500D03*
X97782500Y-64762500D03*
X110482500Y-64762500D03*
X110482500Y-62222500D03*
X110482500Y-59682500D03*
X110482500Y-57142500D03*
X110482500Y-54602500D03*
X110482500Y-52062500D03*
X110482500Y-49522500D03*
X110482500Y-46982500D03*
%TD*%
D19*
%TO.C,C2*%
X87652500Y-77462500D03*
X92652500Y-77462500D03*
%TD*%
D18*
%TO.C,MH4*%
X137777500Y-81272500D03*
%TD*%
%TO.C,MH1*%
X71737500Y-36187500D03*
%TD*%
D19*
%TO.C,C3*%
X100903600Y-74549200D03*
X105903600Y-74549200D03*
%TD*%
D15*
%TO.C,JP1*%
X70790000Y-72060000D03*
D16*
X73330000Y-72060000D03*
X75870000Y-72060000D03*
%TD*%
D19*
%TO.C,C1*%
X82532500Y-53332500D03*
X87532500Y-53332500D03*
%TD*%
D15*
%TO.C,U2*%
X82532500Y-71830000D03*
D16*
X85072500Y-71830000D03*
X87612500Y-71830000D03*
%TD*%
D15*
%TO.C,U3*%
X92405000Y-51740000D03*
D16*
X92405000Y-54280000D03*
X92405000Y-56820000D03*
X92405000Y-59360000D03*
%TD*%
D19*
%TO.C,R2*%
X121902500Y-73652500D03*
D20*
X132062500Y-73652500D03*
%TD*%
D18*
%TO.C,MH2*%
X71737500Y-84447500D03*
%TD*%
D15*
%TO.C,BT1*%
X65710000Y-80950000D03*
D16*
X63170000Y-80950000D03*
%TD*%
D15*
%TO.C,M1*%
X87597500Y-41927500D03*
D16*
X85057500Y-41927500D03*
X82517500Y-41927500D03*
%TD*%
M02*
