<svg xmlns="http://www.w3.org/2000/svg" xmlns:xlink="http://www.w3.org/1999/xlink" version="1.1" width="869" height="519">
    <defs>
        <linearGradient x1="0%" y1="0%" x2="0%" y2="100%" id="mx-gradient-96ffb9-1-96ffb9-1-s-0">
            <stop offset="0%" style="stop-color:#96ffb9"/>
            <stop offset="100%" style="stop-color:#96ffb9"/>
        </linearGradient>
        <linearGradient x1="0%" y1="0%" x2="0%" y2="100%" id="mx-gradient-ff5c56-1-ff5c56-1-s-0">
            <stop offset="0%" style="stop-color:#ff5c56"/>
            <stop offset="100%" style="stop-color:#ff5c56"/>
        </linearGradient>
        <linearGradient x1="0%" y1="0%" x2="0%" y2="100%" id="mx-gradient-c9c9c9-1-c9c9c9-1-s-0">
            <stop offset="0%" style="stop-color:#c9c9c9"/>
            <stop offset="100%" style="stop-color:#c9c9c9"/>
        </linearGradient>
        <linearGradient x1="0%" y1="0%" x2="0%" y2="100%" id="mx-gradient-72bfc1-1-72bfc1-1-s-0">
            <stop offset="0%" style="stop-color:#72bfc1"/>
            <stop offset="100%" style="stop-color:#72bfc1"/>
        </linearGradient>
    </defs>
    <g transform=" scale(1) translate(-1025.5,-935.5)">
        <rect x="1030" y="1235" width="130" height="50" fill="url(#mx-gradient-96ffb9-1-96ffb9-1-s-0)" stroke="#000000" pointer-events="none"/>
        <g fill="#000" font-family="Arial,Helvetica" text-anchor="middle" font-size="12px">
            <text x="1095" y="1258">
                RTL-SDR
            </text>
            <text x="1095" y="1272">
                USB Dongle
            </text>
        </g>
        <rect x="1080" y="940" width="130" height="50" fill="url(#mx-gradient-ff5c56-1-ff5c56-1-s-0)" stroke="#000000" pointer-events="none"/>
        <g fill="#000" font-family="Arial,Helvetica" text-anchor="middle" font-size="12px">
            <text x="1145" y="970">
                7.4V 2S LiPo
            </text>
        </g>
        <rect x="1290" y="1070" width="130" height="80" fill="url(#mx-gradient-c9c9c9-1-c9c9c9-1-s-0)" stroke="#000000" pointer-events="none"/>
        <g fill="#000" font-family="Arial,Helvetica" text-anchor="middle" font-size="12px">
            <text x="1355" y="1087">
                BeagleBone
            </text>
            <text x="1355" y="1101">
                Black Wireless
            </text>
            <text x="1355" y="1129">
                WiFi Access Point
            </text>
            <text x="1355" y="1143">
                HTTP Client
            </text>
        </g>
        <rect x="1560" y="1110" width="130" height="50" fill="url(#mx-gradient-72bfc1-1-72bfc1-1-s-0)" stroke="#000000" pointer-events="none"/>
        <g fill="#000" font-family="Arial,Helvetica" text-anchor="middle" font-size="12px">
            <text x="1625" y="1133">
                HSR-2648CR
            </text>
            <text x="1625" y="1147">
                Servo
            </text>
        </g>
        <rect x="1030" y="1315" width="130" height="50" fill="url(#mx-gradient-96ffb9-1-96ffb9-1-s-0)" stroke="#000000" pointer-events="none"/>
        <g fill="#000" font-family="Arial,Helvetica" text-anchor="middle" font-size="12px">
            <text x="1095" y="1345">
                BNO055 IMU
            </text>
        </g>
        <rect x="1030" y="1400" width="130" height="50" fill="url(#mx-gradient-96ffb9-1-96ffb9-1-s-0)" stroke="#000000" pointer-events="none"/>
        <g fill="#000" font-family="Arial,Helvetica" text-anchor="middle" font-size="12px">
            <text x="1095" y="1430">
                BMP390 Altimeter
            </text>
        </g>
        <rect x="1760" y="1020" width="130" height="50" fill="url(#mx-gradient-72bfc1-1-72bfc1-1-s-0)" stroke="#000000" pointer-events="none"/>
        <g fill="#000" font-family="Arial,Helvetica" text-anchor="middle" font-size="12px">
            <text x="1825" y="1043">
                NEMA 8
            </text>
            <text x="1825" y="1057">
                Stepper Motor
            </text>
        </g>
        <rect x="1290" y="940" width="130" height="50" fill="url(#mx-gradient-ff5c56-1-ff5c56-1-s-0)" stroke="#000000" pointer-events="none"/>
        <g fill="#000" font-family="Arial,Helvetica" text-anchor="middle" font-size="12px">
            <text x="1355" y="956">
                S13V10FS 5V 
            </text>
            <text x="1355" y="970">
                Step Up/Down 
            </text>
            <text x="1355" y="984">
                Converter
            </text>
        </g>
        <rect x="1560" y="1020" width="130" height="50" fill="url(#mx-gradient-72bfc1-1-72bfc1-1-s-0)" stroke="#000000" pointer-events="none"/>
        <g fill="#000" font-family="Arial,Helvetica" text-anchor="middle" font-size="12px">
            <text x="1625" y="1043">
                L298
            </text>
            <text x="1625" y="1057">
                Stepper Driver
            </text>
        </g>
        <path d="M 1420 1095 L 1470 1095 Q 1480 1095 1480 1085 L 1480 1060 Q 1480 1050 1490 1050 L 1553.26 1050" fill="none" stroke="#0065b2" stroke-width="2" stroke-miterlimit="10" pointer-events="none"/>
        <path d="M 1557.76 1050 L 1551.76 1053 L 1553.26 1050 L 1551.76 1047 Z" fill="#0065b2" stroke="#0065b2" stroke-width="2" stroke-miterlimit="10" pointer-events="none"/>
        <path d="M 1690 1045 L 1753.26 1045" fill="none" stroke="#0065b2" stroke-width="2" stroke-miterlimit="10" pointer-events="none"/>
        <path d="M 1757.76 1045 L 1751.76 1048 L 1753.26 1045 L 1751.76 1042 Z" fill="#0065b2" stroke="#0065b2" stroke-width="2" stroke-miterlimit="10" pointer-events="none"/>
        <path d="M 1283.26 1095 L 1260 1095 Q 1250 1095 1250 1105 L 1250 1330 Q 1250 1340 1240 1340 L 1166.74 1340" fill="none" stroke="#00bf5f" stroke-width="2" stroke-miterlimit="10" pointer-events="none"/>
        <path d="M 1287.76 1095 L 1281.76 1098 L 1283.26 1095 L 1281.76 1092 Z" fill="#00bf5f" stroke="#00bf5f" stroke-width="2" stroke-miterlimit="10" pointer-events="none"/>
        <path d="M 1162.24 1340 L 1168.24 1337 L 1166.74 1340 L 1168.24 1343 Z" fill="#00bf5f" stroke="#00bf5f" stroke-width="2" stroke-miterlimit="10" pointer-events="none"/>
        <path d="M 1283.26 1110 L 1276.63 1110 Q 1270 1110 1270 1120 L 1270 1415 Q 1270 1425 1260 1425 L 1166.74 1425" fill="none" stroke="#00bf5f" stroke-width="2" stroke-miterlimit="10" pointer-events="none"/>
        <path d="M 1287.76 1110 L 1281.76 1113 L 1283.26 1110 L 1281.76 1107 Z" fill="#00bf5f" stroke="#00bf5f" stroke-width="2" stroke-miterlimit="10" pointer-events="none"/>
        <path d="M 1162.24 1425 L 1168.24 1422 L 1166.74 1425 L 1168.24 1428 Z" fill="#00bf5f" stroke="#00bf5f" stroke-width="2" stroke-miterlimit="10" pointer-events="none"/>
        <path d="M 1166.74 1265 L 1220 1265 Q 1230 1265 1230 1255 L 1230 1090 Q 1230 1080 1240 1080 L 1283.26 1080" fill="none" stroke="#00bf5f" stroke-width="2" stroke-miterlimit="10" pointer-events="none"/>
        <path d="M 1162.24 1265 L 1168.24 1262 L 1166.74 1265 L 1168.24 1268 Z" fill="#00bf5f" stroke="#00bf5f" stroke-width="2" stroke-miterlimit="10" pointer-events="none"/>
        <path d="M 1287.76 1080 L 1281.76 1083 L 1283.26 1080 L 1281.76 1077 Z" fill="#00bf5f" stroke="#00bf5f" stroke-width="2" stroke-miterlimit="10" pointer-events="none"/>
        <path d="M 1210 965 L 1283.26 965" fill="none" stroke="#960707" stroke-width="2" stroke-miterlimit="10" pointer-events="none"/>
        <path d="M 1287.76 965 L 1281.76 968 L 1283.26 965 L 1281.76 962 Z" fill="#960707" stroke="#960707" stroke-width="2" stroke-miterlimit="10" pointer-events="none"/>
        <path d="M 1355 990 L 1355 1063.26" fill="none" stroke="#960707" stroke-width="2" stroke-miterlimit="10" pointer-events="none"/>
        <path d="M 1355 1067.76 L 1352 1061.76 L 1355 1063.26 L 1358 1061.76 Z" fill="#960707" stroke="#960707" stroke-width="2" stroke-miterlimit="10" pointer-events="none"/>
        <path d="M 1420 1110 L 1470 1110 Q 1480 1110 1480 1120 L 1480 1130 Q 1480 1140 1490 1140 L 1553.26 1140" fill="none" stroke="#0065b2" stroke-width="2" stroke-miterlimit="10" pointer-events="none"/>
        <path d="M 1557.76 1140 L 1551.76 1143 L 1553.26 1140 L 1551.76 1137 Z" fill="#0065b2" stroke="#0065b2" stroke-width="2" stroke-miterlimit="10" pointer-events="none"/>
        <rect x="1560" y="1380" width="130" height="50" fill="url(#mx-gradient-ff5c56-1-ff5c56-1-s-0)" stroke="#000000" pointer-events="none"/>
        <g fill="#000" font-family="Arial,Helvetica" text-anchor="middle" font-size="12px">
            <text x="1625" y="1410">
                3.7V 1S LiPo
            </text>
        </g>
        <rect x="1560" y="1200" width="130" height="70" fill="url(#mx-gradient-c9c9c9-1-c9c9c9-1-s-0)" stroke="#000000" pointer-events="none"/>
        <g fill="#000" font-family="Arial,Helvetica" text-anchor="middle" font-size="12px">
            <text x="1625" y="1219">
                ESP32-CAM
            </text>
            <text x="1625" y="1247">
                WiFi Client
            </text>
            <text x="1625" y="1261">
                HTTP Server
            </text>
        </g>
        <rect x="1560" y="1300" width="130" height="50" fill="url(#mx-gradient-ff5c56-1-ff5c56-1-s-0)" stroke="#000000" pointer-events="none"/>
        <g fill="#000" font-family="Arial,Helvetica" text-anchor="middle" font-size="12px">
            <text x="1625" y="1316">
                S13V10FS 5V 
            </text>
            <text x="1625" y="1330">
                Step Up/Down 
            </text>
            <text x="1625" y="1344">
                Converter
            </text>
        </g>
        <path d="M 1625 1380 L 1625 1356.74" fill="none" stroke="#960707" stroke-width="2" stroke-miterlimit="10" pointer-events="none"/>
        <path d="M 1625 1352.24 L 1628 1358.24 L 1625 1356.74 L 1622 1358.24 Z" fill="#960707" stroke="#960707" stroke-width="2" stroke-miterlimit="10" pointer-events="none"/>
        <path d="M 1625 1300 L 1625 1276.74" fill="none" stroke="#960707" stroke-width="2" stroke-miterlimit="10" pointer-events="none"/>
        <path d="M 1625 1272.24 L 1628 1278.24 L 1625 1276.74 L 1622 1278.24 Z" fill="#960707" stroke="#960707" stroke-width="2" stroke-miterlimit="10" pointer-events="none"/>
        <path d="M 1350 1156.74 L 1350 1235 Q 1350 1245 1360 1245 L 1553.26 1245" fill="none" stroke="#919191" stroke-width="2" stroke-miterlimit="10" pointer-events="none"/>
        <path d="M 1350 1152.24 L 1353 1158.24 L 1350 1156.74 L 1347 1158.24 Z" fill="#919191" stroke="#919191" stroke-width="2" stroke-miterlimit="10" pointer-events="none"/>
        <path d="M 1557.76 1245 L 1551.76 1248 L 1553.26 1245 L 1551.76 1242 Z" fill="#919191" stroke="#919191" stroke-width="2" stroke-miterlimit="10" pointer-events="none"/>
        <g fill="#000" font-family="Arial,Helvetica" font-weight="bold" font-size="12px">
            <text x="1192" y="1255">
                USB
            </text>
        </g>
        <g fill="#000" font-family="Arial,Helvetica" font-weight="bold" font-size="12px">
            <text x="1192" y="1325">
                I2C
            </text>
        </g>
        <g fill="#000" font-family="Arial,Helvetica" font-weight="bold" font-size="12px">
            <text x="1192" y="1415">
                I2C
            </text>
        </g>
        <g fill="#000" font-family="Arial,Helvetica" font-weight="bold" font-size="12px">
            <text x="1362" y="1035">
                5V
            </text>
        </g>
        <g fill="#000" font-family="Arial,Helvetica" font-weight="bold" font-size="12px">
            <text x="1232" y="955">
                7.4V
            </text>
        </g>
        <g fill="#000" font-family="Arial,Helvetica" font-weight="bold" font-size="12px">
            <text x="1632" y="1375">
                3.7V
            </text>
        </g>
        <g fill="#000" font-family="Arial,Helvetica" font-weight="bold" font-size="12px">
            <text x="1632" y="1295">
                5V
            </text>
        </g>
        <g fill="#000" font-family="Arial,Helvetica" font-weight="bold" font-size="12px">
            <text x="1392" y="1235">
                WiFi
            </text>
        </g>
        <g fill="#000" font-family="Arial,Helvetica" font-weight="bold" font-size="12px">
            <text x="1492" y="1135">
                PWM
            </text>
        </g>
        <g fill="#000" font-family="Arial,Helvetica" font-weight="bold" font-size="12px">
            <text x="1492" y="1045">
                GPIO
            </text>
        </g>
        <g fill="#000" font-family="Arial,Helvetica" font-weight="bold" font-size="12px">
            <text x="1702" y="1018">
                Full 
            </text>
            <text x="1702" y="1032">
                Stepping
            </text>
        </g>
    </g>
</svg>