%TF.GenerationSoftware,KiCad,Pcbnew,(6.0.9)*%
%TF.CreationDate,2022-12-17T18:28:14-05:00*%
%TF.ProjectId,test,74657374-2e6b-4696-9361-645f70636258,rev?*%
%TF.SameCoordinates,Original*%
%TF.FileFunction,Legend,Top*%
%TF.FilePolarity,Positive*%
%FSLAX46Y46*%
G04 Gerber Fmt 4.6, Leading zero omitted, Abs format (unit mm)*
G04 Created by KiCad (PCBNEW (6.0.9)) date 2022-12-17 18:28:14*
%MOMM*%
%LPD*%
G01*
G04 APERTURE LIST*
%ADD10C,0.150000*%
%ADD11C,0.120000*%
G04 APERTURE END LIST*
D10*
%TO.C,R1*%
X126833333Y-84092380D02*
X126500000Y-83616190D01*
X126261904Y-84092380D02*
X126261904Y-83092380D01*
X126642857Y-83092380D01*
X126738095Y-83140000D01*
X126785714Y-83187619D01*
X126833333Y-83282857D01*
X126833333Y-83425714D01*
X126785714Y-83520952D01*
X126738095Y-83568571D01*
X126642857Y-83616190D01*
X126261904Y-83616190D01*
X127785714Y-84092380D02*
X127214285Y-84092380D01*
X127500000Y-84092380D02*
X127500000Y-83092380D01*
X127404761Y-83235238D01*
X127309523Y-83330476D01*
X127214285Y-83378095D01*
%TO.C,D1*%
X119911904Y-93012380D02*
X119911904Y-92012380D01*
X120150000Y-92012380D01*
X120292857Y-92060000D01*
X120388095Y-92155238D01*
X120435714Y-92250476D01*
X120483333Y-92440952D01*
X120483333Y-92583809D01*
X120435714Y-92774285D01*
X120388095Y-92869523D01*
X120292857Y-92964761D01*
X120150000Y-93012380D01*
X119911904Y-93012380D01*
X121435714Y-93012380D02*
X120864285Y-93012380D01*
X121150000Y-93012380D02*
X121150000Y-92012380D01*
X121054761Y-92155238D01*
X120959523Y-92250476D01*
X120864285Y-92298095D01*
%TO.C,BT1*%
X132564285Y-94118571D02*
X132707142Y-94166190D01*
X132754761Y-94213809D01*
X132802380Y-94309047D01*
X132802380Y-94451904D01*
X132754761Y-94547142D01*
X132707142Y-94594761D01*
X132611904Y-94642380D01*
X132230952Y-94642380D01*
X132230952Y-93642380D01*
X132564285Y-93642380D01*
X132659523Y-93690000D01*
X132707142Y-93737619D01*
X132754761Y-93832857D01*
X132754761Y-93928095D01*
X132707142Y-94023333D01*
X132659523Y-94070952D01*
X132564285Y-94118571D01*
X132230952Y-94118571D01*
X133088095Y-93642380D02*
X133659523Y-93642380D01*
X133373809Y-94642380D02*
X133373809Y-93642380D01*
X134516666Y-94642380D02*
X133945238Y-94642380D01*
X134230952Y-94642380D02*
X134230952Y-93642380D01*
X134135714Y-93785238D01*
X134040476Y-93880476D01*
X133945238Y-93928095D01*
D11*
%TO.C,R1*%
X133580000Y-86360000D02*
X131620000Y-86360000D01*
X131620000Y-88080000D02*
X131620000Y-84640000D01*
X120420000Y-86360000D02*
X122380000Y-86360000D01*
X131620000Y-84640000D02*
X122380000Y-84640000D01*
X122380000Y-84640000D02*
X122380000Y-88080000D01*
X122380000Y-88080000D02*
X131620000Y-88080000D01*
%TO.C,D1*%
X118090000Y-94975000D02*
X118090000Y-98065000D01*
X118090000Y-98064830D02*
G75*
G03*
X123640000Y-96519538I2560000J1544830D01*
G01*
X123640000Y-96520462D02*
G75*
G03*
X118090000Y-94975170I-2990000J462D01*
G01*
X123150000Y-96520000D02*
G75*
G03*
X123150000Y-96520000I-2500000J0D01*
G01*
%TO.C,BT1*%
X130750000Y-95190000D02*
X132080000Y-95190000D01*
X130750000Y-96520000D02*
X130750000Y-95190000D01*
X130750000Y-97790000D02*
X130750000Y-97850000D01*
X133350000Y-97790000D02*
X133350000Y-95190000D01*
X130750000Y-97790000D02*
X133350000Y-97790000D01*
X133350000Y-95190000D02*
X135950000Y-95190000D01*
X130750000Y-97850000D02*
X135950000Y-97850000D01*
X135950000Y-95190000D02*
X135950000Y-97850000D01*
%TD*%
M02*
