M48
; DRILL file {KiCad (6.0.9)} date Sun Dec 18 22:03:28 2022
; FORMAT={-:-/ absolute / inch / decimal}
; #@! TF.CreationDate,2022-12-18T22:03:28-05:00
; #@! TF.GenerationSoftware,Kicad,Pcbnew,(6.0.9)
; #@! TF.FileFunction,Plated,1,2,PTH
FMAT,2
INCH
; #@! TA.AperFunction,Plated,PTH,ComponentDrill
T1C0.0315
; #@! TA.AperFunction,Plated,PTH,ComponentDrill
T2C0.0394
; #@! TA.AperFunction,Plated,PTH,ComponentDrill
T3C0.0650
%
G90
G05
T1
X4.2202Y-3.417
X4.417Y-3.417
X5.685Y-2.504
X6.085Y-2.504
X6.719Y-2.406
X7.119Y-2.406
T2
X4.712Y-1.862
X4.712Y-1.962
X4.712Y-3.762
X4.712Y-3.862
X4.812Y-1.862
X4.812Y-1.962
X4.812Y-3.762
X4.812Y-3.862
X4.902Y-2.205
X4.912Y-1.862
X4.912Y-1.962
X4.912Y-3.762
X4.912Y-3.862
X4.988Y-2.433
X5.002Y-2.205
X5.012Y-1.862
X5.012Y-1.962
X5.012Y-3.762
X5.012Y-3.862
X5.0198Y-3.025
X5.088Y-2.433
X5.102Y-2.205
X5.112Y-1.862
X5.112Y-1.962
X5.112Y-3.762
X5.112Y-3.862
X5.1198Y-3.025
X5.188Y-2.433
X5.202Y-2.205
X5.212Y-1.862
X5.212Y-1.962
X5.212Y-3.762
X5.212Y-3.862
X5.302Y-2.205
X5.312Y-1.862
X5.312Y-1.962
X5.312Y-3.762
X5.312Y-3.862
X5.402Y-2.205
X5.412Y-1.862
X5.412Y-1.962
X5.412Y-3.762
X5.412Y-3.862
X5.443Y-2.421
X5.443Y-2.521
X5.443Y-2.621
X5.512Y-1.862
X5.512Y-1.962
X5.512Y-3.762
X5.512Y-3.862
X5.612Y-1.862
X5.612Y-1.962
X5.612Y-3.762
X5.612Y-3.862
X5.712Y-1.862
X5.712Y-1.962
X5.712Y-3.762
X5.712Y-3.862
X5.737Y-3.497
X5.77Y-2.2
X5.812Y-1.862
X5.812Y-1.962
X5.812Y-3.762
X5.812Y-3.862
X5.837Y-3.497
X5.87Y-2.2
X5.912Y-1.862
X5.912Y-1.962
X5.912Y-3.762
X5.912Y-3.862
X5.937Y-3.497
X5.97Y-2.2
X6.012Y-1.862
X6.012Y-1.962
X6.012Y-3.762
X6.012Y-3.862
X6.037Y-3.497
X6.07Y-2.2
X6.112Y-1.862
X6.112Y-1.962
X6.112Y-3.762
X6.112Y-3.862
X6.137Y-3.497
X6.17Y-2.2
X6.212Y-1.862
X6.212Y-1.962
X6.212Y-3.762
X6.212Y-3.862
X6.237Y-3.497
X6.27Y-2.2
X6.312Y-1.862
X6.312Y-1.962
X6.312Y-3.762
X6.312Y-3.862
X6.37Y-2.2
X6.412Y-1.862
X6.412Y-1.962
X6.412Y-3.762
X6.412Y-3.862
X6.47Y-2.2
X6.512Y-1.862
X6.512Y-1.962
X6.512Y-3.762
X6.512Y-3.862
X6.612Y-1.862
X6.612Y-1.962
X6.612Y-3.762
X6.612Y-3.862
X6.712Y-1.862
X6.712Y-1.962
X6.712Y-3.762
X6.712Y-3.862
X6.722Y-2.687
X6.722Y-2.787
X6.722Y-2.887
X6.722Y-2.987
X6.722Y-3.087
X6.722Y-3.187
X6.722Y-3.287
X6.722Y-3.387
X6.812Y-1.862
X6.812Y-1.962
X6.812Y-3.762
X6.812Y-3.862
X6.912Y-1.862
X6.912Y-1.962
X6.912Y-3.762
X6.912Y-3.862
T3
X4.8925Y-3.403
X5.0736Y-3.403
T0
M30
